<?xml version="1.0" encoding="iso-8859-1"?>
<!-- Generator: Adobe Illustrator 20.1.0, SVG Export Plug-In . SVG Version: 6.00 Build 0)  -->
<svg version="1.1" xmlns="http://www.w3.org/2000/svg" xmlns:xlink="http://www.w3.org/1999/xlink" x="0px" y="0px" width="16px"
	 height="16px" viewBox="0 0 16 16" style="enable-background:new 0 0 16 16;" xml:space="preserve">
<g id="outline">
	<rect x="0" y="0" style="fill:#000000;" width="16" height="15"/>
</g>
<g id="icon_x5F_bg">
	<path style="fill:#FFFFFF;" d="M1,1v13h14V1H1z M14,13H2V2h12V13z"/>
	<path style="fill:#FFFFFF;" d="M8,6.814C8,7.44,7.793,7.92,7.38,8.254C6.967,8.588,6.379,8.755,5.616,8.755H4.988V11H4V5h1.74
		c0.755,0,1.32,0.153,1.696,0.46C7.812,5.766,8,6.217,8,6.814z M4.988,7.93h0.525c0.507,0,0.879-0.088,1.116-0.263
		c0.237-0.175,0.355-0.449,0.355-0.821c0-0.345-0.106-0.602-0.318-0.772c-0.212-0.17-0.542-0.254-0.992-0.254H4.988V7.93z"/>
	<path style="fill:#FFFFFF;" d="M12,9.538c0,0.471-0.145,0.833-0.435,1.084C11.274,10.873,10.859,11,10.317,11
		c-0.543,0-0.981-0.085-1.31-0.279V9.883c0.48,0.262,0.926,0.332,1.339,0.332c0.534,0,0.801-0.19,0.801-0.572
		c0-0.122-0.03-0.224-0.089-0.305C11,9.256,10.903,9.172,10.768,9.085s-0.324-0.186-0.565-0.297c-0.47-0.215-0.788-0.43-0.954-0.646
		C9.083,7.927,9,7.648,9,7.305c0-0.413,0.141-0.734,0.423-0.962C9.704,6.114,10.088,6,10.572,6c0.48,0,1,0.115,1.428,0.345
		l-0.347,0.772c-0.44-0.215-0.811-0.323-1.111-0.323c-0.458,0-0.686,0.154-0.686,0.462c0,0.151,0.06,0.279,0.179,0.384
		c0.119,0.105,0.379,0.249,0.78,0.432c0.337,0.154,0.582,0.295,0.734,0.423s0.266,0.275,0.339,0.443C11.963,9.106,12,9.306,12,9.538
		z"/>
</g>
<g id="icon_x5F_fg">
</g>
</svg>
