<?xml version="1.0" encoding="iso-8859-1"?>
<!-- Generator: Adobe Illustrator 20.1.0, SVG Export Plug-In . SVG Version: 6.00 Build 0)  -->
<svg version="1.1" xmlns="http://www.w3.org/2000/svg" xmlns:xlink="http://www.w3.org/1999/xlink" x="0px" y="0px" width="16px"
	 height="16px" viewBox="0 0 16 16" style="enable-background:new 0 0 16 16;" xml:space="preserve">
<g id="outline">
	<rect x="0" y="0" style="fill:none;" width="16" height="15"/>
</g>
<g id="icon_x5F_bg">
	<path style="fill:#656565;" d="M1,1v13h14V1H1z M14,13H2V2h12V13z"/>
	<path style="fill:#656565;" d="M5,11V5h1v6H5z"/>
	<path style="fill:#656565;" d="M11,11h-1V8c0-0.379-0.089-0.681-0.223-0.868c-0.134-0.187-0.347-0.28-0.639-0.28
		c-0.388,0-0.672,0.13-0.852,0.391C8.107,7.504,8,7.94,8,8.553V11H7V6h1v0.733H7.994c0.13-0.234,0.315-0.415,0.555-0.542
		S9.054,6,9.346,6C10.382,6,11,6.801,11,8V11z"/>
</g>
<g id="icon_x5F_fg">
</g>
</svg>
