<?xml version="1.0" encoding="iso-8859-1"?>
<!-- Generator: Adobe Illustrator 20.1.0, SVG Export Plug-In . SVG Version: 6.00 Build 0)  -->
<svg version="1.1" xmlns="http://www.w3.org/2000/svg" xmlns:xlink="http://www.w3.org/1999/xlink" x="0px" y="0px"
	 viewBox="0 0 16 16" style="enable-background:new 0 0 16 16;" xml:space="preserve">
<g id="colorImportance_copy_2">
	<path style="fill:#F3F3F3;" d="M12.792,4.668C12.634,4.668,13,4.688,12,4.725V5h0.48c-0.085-1-0.436-1.892-0.997-2.583l0.045-0.128
		c0.495-0.492,0.503-1.347-0.015-1.888c-0.507-0.483-1.318-0.497-1.812-0.004L9.3,0.789C8.45,0.53,7.531,0.528,6.691,0.786
		L6.286,0.379c-0.501-0.502-1.32-0.505-1.823-0.001C4.217,0.623,4.079,0.963,4.083,1.31c0.004,0.344,0.15,0.677,0.38,0.896
		l0.044,0.043C3.944,2.937,3.6,3.772,3.519,4.669L3.5,4.725C3.353,4.688,3.116,4.668,2.958,4.668C1.924,4.668,1,5.51,1,6.543v4.083
		c0,1.034,0.924,1.875,1.958,1.875c0.252,0,0.7-0.05,0.92-0.141C4.088,12.685,4,12.927,5,13.03v1.097
		c0,1.034,0.675,1.876,1.708,1.876c0.588,0,1.031-0.272,1.375-0.698c0.344,0.426,0.661,0.698,1.249,0.698
		c1.034,0,1.667-0.842,1.667-1.876V13.03c1-0.104,0.87-0.346,1.079-0.669c0.22,0.091,0.627,0.141,0.879,0.141
		c1.034,0,2.042-0.841,2.042-1.875V6.543C15,5.51,13.826,4.668,12.792,4.668z"/>
</g>
<g id="colorImportance_copy">
	<path id="path4_1_" style="fill:#C0CA33;" d="M9.75,3.918H9.167V3.335H9.75 M6.833,3.918H6.25V3.335h0.583 M10.059,2.262
		l0.764-0.764c0.111-0.111,0.111-0.298,0-0.414c-0.117-0.111-0.303-0.111-0.414,0L9.546,1.947C9.079,1.719,8.554,1.585,8,1.585
		c-0.56,0-1.085,0.134-1.552,0.368L5.579,1.083c-0.111-0.111-0.298-0.111-0.408,0c-0.117,0.117-0.117,0.303,0,0.414l0.764,0.764
		C5.066,2.903,4.5,3.918,4.5,5.085H11.5C11.5,3.918,10.917,2.897,10.059,2.262 M12.959,5.668c-0.483,0-0.875,0.392-0.875,0.875
		v4.084c0,0.483,0.392,0.875,0.875,0.875s0.875-0.392,0.875-0.875V6.544C13.834,6.06,13.442,5.668,12.959,5.668 M3.041,5.668
		c-0.483,0-0.875,0.392-0.875,0.875v4.084c0,0.483,0.392,0.875,0.875,0.875s0.875-0.392,0.875-0.875V6.544
		C3.916,6.06,3.525,5.668,3.041,5.668 M4.5,11.502c0,0.322,0.261,0.583,0.583,0.583h0.583v2.042c0,0.483,0.392,0.875,0.875,0.875
		s0.875-0.392,0.875-0.875v-2.042h1.167v2.042c0,0.483,0.392,0.875,0.875,0.875s0.875-0.392,0.875-0.875v-2.042h0.583
		c0.322,0,0.583-0.261,0.583-0.583V5.668H4.5V11.502z"/>
</g>
</svg>
