<?xml version="1.0" encoding="iso-8859-1"?>
<!-- Generator: Adobe Illustrator 20.1.0, SVG Export Plug-In . SVG Version: 6.00 Build 0)  -->
<svg version="1.1" xmlns="http://www.w3.org/2000/svg" xmlns:xlink="http://www.w3.org/1999/xlink" x="0px" y="0px"
	 viewBox="0 0 16 16" style="enable-background:new 0 0 16 16;" xml:space="preserve">
<g id="outline">
	<rect x="0" style="opacity:0.01;fill:#F6F6F6;" width="16" height="16"/>
	<path style="fill:#F6F6F6;" d="M12.06,0H6C5.03,0,4,0.701,4,2v6.342C3.596,7.808,2.869,7.589,2.224,7.86
		c-0.762,0.321-1.121,1.203-0.8,1.964l0.419,0.996C0.677,11.919,0,13.432,0,15l0,1h13v-1c0-0.337-0.046-0.671-0.118-1H14
		c1.299,0,2-1.03,2-2V3.556L12.06,0z"/>
</g>
<g id="icon_x5F_bg">
	<path style="fill:#656565;" d="M11.641,1H5.964C5.964,1,5,1,5,2c0,0.588,0,4.289,0,7.238c0.328-0.062,0.661-0.102,1-0.115V2h5v3h3
		v7h-2.004c0.216,0.318,0.403,0.653,0.555,1c0.668,0,1.192,0,1.413,0c1,0,1.035-1,1.035-1V4L11.641,1z"/>
</g>
<g id="Layer_4">
	<g>
		<path style="fill:#A4C439;" d="M1,15h10.509c0-1.555-0.804-2.986-2.049-3.882l0.708-1.682c0.107-0.253-0.013-0.548-0.267-0.655
			C9.648,8.675,9.353,8.795,9.247,9.048l-0.451,1.071L8.54,10.587c-0.692-0.308-1.467-0.481-2.286-0.48
			c-0.817-0.001-1.591,0.171-2.281,0.478L3.72,10.123L3.267,9.048C3.161,8.795,2.866,8.675,2.612,8.781
			C2.359,8.888,2.239,9.183,2.346,9.436l0.707,1.68C1.806,12.011,0.999,13.444,1,15z M9,12.5c0.276,0,0.5,0.224,0.5,0.5
			c0,0.276-0.224,0.5-0.5,0.5S8.5,13.276,8.5,13C8.5,12.724,8.724,12.5,9,12.5z M4,12.5c0.276,0,0.5,0.224,0.5,0.5
			c0,0.276-0.224,0.5-0.5,0.5c-0.276,0-0.5-0.224-0.5-0.5C3.5,12.724,3.724,12.5,4,12.5z"/>
	</g>
</g>
<g id="icon_x5F_fg">
	<path style="fill:#F3F3F3;" d="M11,5V2H6v7.123C6.085,9.12,6.168,9.106,6.254,9.106c0.581-0.031,1.207,0.079,1.783,0.239
		L8.326,8.66c0.32-0.761,1.2-1.123,1.963-0.8c0.37,0.156,0.656,0.446,0.808,0.818s0.148,0.779-0.008,1.148L11,10.823
		c0.373,0.353,0.707,0.751,0.996,1.177H14V5H11z"/>
</g>
</svg>
