<?xml version="1.0" encoding="iso-8859-1"?>
<!-- Generator: Adobe Illustrator 19.2.1, SVG Export Plug-In . SVG Version: 6.00 Build 0)  -->
<svg version="1.1" xmlns="http://www.w3.org/2000/svg" xmlns:xlink="http://www.w3.org/1999/xlink" x="0px" y="0px"
	 viewBox="0 0 16 16" style="enable-background:new 0 0 16 16;" xml:space="preserve">
<g id="canvas">
	<path style="opacity:0;fill:#F6F6F6;" d="M16,16H0V0h16V16z"/>
</g>
<g id="outline">
</g>
<g id="iconBg">
</g>
<g id="iconFg">
</g>
<g id="colorImportance">
	<path id="path4" style="fill:#C0CA33;" d="M9.75,3.918H9.167V3.335H9.75 M6.833,3.918H6.25V3.335h0.583 M10.059,2.262l0.764-0.764
		c0.111-0.111,0.111-0.298,0-0.414c-0.117-0.111-0.303-0.111-0.414,0L9.546,1.947C9.079,1.719,8.554,1.585,8,1.585
		c-0.56,0-1.085,0.134-1.552,0.368L5.579,1.083c-0.111-0.111-0.298-0.111-0.408,0c-0.117,0.117-0.117,0.303,0,0.414l0.764,0.764
		C5.066,2.903,4.5,3.918,4.5,5.085H11.5C11.5,3.918,10.917,2.897,10.059,2.262 M12.959,5.668c-0.483,0-0.875,0.392-0.875,0.875
		v4.084c0,0.483,0.392,0.875,0.875,0.875s0.875-0.392,0.875-0.875V6.544C13.834,6.06,13.442,5.668,12.959,5.668 M3.041,5.668
		c-0.483,0-0.875,0.392-0.875,0.875v4.084c0,0.483,0.392,0.875,0.875,0.875s0.875-0.392,0.875-0.875V6.544
		C3.916,6.06,3.525,5.668,3.041,5.668 M4.5,11.502c0,0.322,0.261,0.583,0.583,0.583h0.583v2.042c0,0.483,0.392,0.875,0.875,0.875
		s0.875-0.392,0.875-0.875v-2.042h1.167v2.042c0,0.483,0.392,0.875,0.875,0.875s0.875-0.392,0.875-0.875v-2.042h0.583
		c0.322,0,0.583-0.261,0.583-0.583V5.668H4.5V11.502z"/>
</g>
</svg>
