<?xml version="1.0" encoding="iso-8859-1"?>
<!-- Generator: Adobe Illustrator 20.1.0, SVG Export Plug-In . SVG Version: 6.00 Build 0)  -->
<svg version="1.1" xmlns="http://www.w3.org/2000/svg" xmlns:xlink="http://www.w3.org/1999/xlink" x="0px" y="0px"
	 viewBox="0 0 16 16" style="enable-background:new 0 0 16 16;" xml:space="preserve">
<g id="canvas">
	<path id="XMLID_1_" style="opacity:0;fill:#000000;" d="M16,16H0V0h16V16z"/>
</g>
<g id="outline">
	<path id="XMLID_3_" style="fill:#000000;" d="M16,3.556V12c0,0.97-0.701,2-2,2H9.739c-1.01,1.221-2.535,2-4.239,2
		C2.468,16,0,13.533,0,10.5c0-2.512,1.695-4.631,4-5.286V2c0-1.299,1.03-2,2-2h6L16,3.556z"/>
</g>
<g id="iconBg">
	<path id="XMLID_5_" style="fill:#FFFFFF;" d="M15,4v8c0,0-0.035,1-1.035,1c-0.429,0-1.962,0-3.572,0
		c0.163-0.317,0.295-0.651,0.394-1H14V5h-3V2H6v3.025C5.835,5.011,5.669,5,5.5,5S5.165,5.011,5,5.025C5,3.522,5,2.314,5,2
		c0-1,0.964-1,0.964-1h5.677L15,4z"/>
</g>
<g id="iconFg">
	<path style="fill:#000000;" d="M14,5v7h-3.213C10.923,11.523,11,11.021,11,10.5c0-2.863-2.201-5.221-5-5.475V2h5v3H14z"/>
</g>
<g id="colorImportance">
	<path style="fill:#FFFFFF;" d="M10.027,10.543c0-0.053-0.008-0.102-0.008-0.152l0,0C9.938,7.977,7.962,6.043,5.527,6.043
		c-2.485,0-4.5,2.015-4.5,4.5c0,0.132,0.008,0.26,0.02,0.389c0.01,0.115,0.027,0.229,0.045,0.341c0,0.005,0,0.008,0.002,0.013l0,0
		c0.313,1.891,1.804,3.38,3.696,3.691l0,0c0.005,0.001,0.009,0.002,0.013,0.002c0.112,0.019,0.225,0.035,0.338,0.045
		c0.128,0.012,0.257,0.02,0.387,0.02c0.148,0,0.295-0.009,0.439-0.022l0,0C8.245,14.799,10.027,12.88,10.027,10.543z M7.436,9.476
		c0.467-0.073,0.961-0.198,1.489-0.388c0.19,0.445,0.299,0.938,0.299,1.455c0,0.08-0.008,0.16-0.012,0.24
		c-0.668,0.291-1.269,0.465-1.831,0.555c0.07-0.393,0.108-0.768,0.104-1.119C7.482,9.96,7.461,9.716,7.436,9.476z M8.58,8.459
		C8.139,8.611,7.724,8.717,7.325,8.778C7.188,8.117,6.972,7.545,6.736,7.053C7.493,7.314,8.137,7.812,8.58,8.459z M5.527,14.239
		c-0.109,0-0.217-0.008-0.324-0.018c-0.322-0.717-0.57-1.43-0.725-2.124c0.336,0.033,0.686,0.057,1.045,0.059
		c0.086,0.002,0.174,0.002,0.259,0.002c0.224,0,0.45-0.006,0.678-0.018c-0.196,0.638-0.487,1.335-0.87,2.095
		C5.568,14.236,5.549,14.239,5.527,14.239z M5.531,11.457c-0.41-0.006-0.803-0.035-1.182-0.079
		c-0.055-0.392-0.082-0.778-0.078-1.153c0.002-0.247,0.02-0.507,0.043-0.737C4.701,9.531,5.104,9.6,5.523,9.6
		c0.086,0,0.174,0,0.259,0c0.314,0,0.632-0.045,0.956-0.068c0.025,0.219,0.044,0.451,0.046,0.683
		c0.004,0.372-0.044,0.778-0.135,1.208C6.273,11.447,5.905,11.459,5.531,11.457z M5.527,6.847c0.106,0,0.21,0.008,0.312,0.016
		c0.302,0.522,0.607,1.187,0.786,1.997C6.259,8.885,5.897,8.889,5.531,8.885c-0.386-0.004-0.76-0.029-1.119-0.07
		c0.15-0.782,0.398-1.424,0.645-1.935C5.211,6.86,5.367,6.847,5.527,6.847z M4.188,7.101C4.002,7.565,3.832,8.1,3.717,8.713
		c-0.443-0.078-0.85-0.175-1.223-0.28C2.911,7.835,3.5,7.368,4.188,7.101z M1.831,10.543c0-0.525,0.112-1.025,0.31-1.481
		c0.44,0.131,0.932,0.254,1.479,0.346C3.592,9.67,3.572,9.937,3.57,10.219c-0.004,0.342,0.021,0.694,0.062,1.051
		c-0.691-0.126-1.288-0.299-1.788-0.467C1.838,10.717,1.831,10.631,1.831,10.543z M1.982,11.587c0.514,0.157,1.102,0.31,1.765,0.415
		c0.132,0.673,0.349,1.359,0.632,2.053C3.227,13.678,2.327,12.754,1.982,11.587z M6.418,14.127c0.35-0.737,0.62-1.424,0.795-2.054
		c0.574-0.073,1.186-0.22,1.855-0.472C8.696,12.846,7.686,13.814,6.418,14.127z"/>
</g>
</svg>
