<?xml version="1.0" encoding="iso-8859-1"?>
<!-- Generator: Adobe Illustrator 20.1.0, SVG Export Plug-In . SVG Version: 6.00 Build 0)  -->
<svg version="1.1" xmlns="http://www.w3.org/2000/svg" xmlns:xlink="http://www.w3.org/1999/xlink" x="0px" y="0px"
	 viewBox="0 0 16 16" style="enable-background:new 0 0 16 16;" xml:space="preserve">
<g id="canvas">
	<path id="XMLID_2_" style="opacity:0;fill:#F6F6F6;" d="M16,16H0V0h16V16z"/>
</g>
<g id="outline">
	<path style="fill:#F6F6F6;" d="M16,9h-1.931l1.301,1.301l-2.069,2.07L10.93,10H10v5H7.586l-4-4H0V4h3.586l4-4H10v5h0.93
		l2.371-2.371l2.069,2.069L14.069,6H16V9z"/>
</g>
<g id="iconBg">
	<path style="fill:#656565;" d="M9,6h2v3H9v5H8l-4-4H1V5h3l4-4h1V6z M12.611,6.043l1.345-1.345l-0.655-0.655l-1.345,1.345
		C12.217,5.561,12.439,5.783,12.611,6.043z M11.956,9.611l1.345,1.346l0.655-0.656l-1.345-1.344
		C12.439,9.217,12.217,9.439,11.956,9.611z M13,7c0.032,0.162,0.05,0.329,0.05,0.5S13.032,7.838,13,8h2V7H13z"/>
</g>
</svg>
