<?xml version="1.0" encoding="iso-8859-1"?>
<!-- Generator: Adobe Illustrator 20.1.0, SVG Export Plug-In . SVG Version: 6.00 Build 0)  -->
<svg version="1.1" xmlns="http://www.w3.org/2000/svg" xmlns:xlink="http://www.w3.org/1999/xlink" x="0px" y="0px"
	 viewBox="0 0 16 16" style="enable-background:new 0 0 16 16;" xml:space="preserve">
<g id="canvas">
	<path id="XMLID_1_" style="opacity:0;fill:#F6F6F6;" d="M16,16H0V0h16V16z"/>
</g>
<g id="outline">
	<path id="XMLID_3_" style="fill:#F6F6F6;" d="M16,14H6.281l0.5,2h0H3.779L3.5,15.162L3.221,16H0.22h0L1,12.875v-1.24
		C0.683,11.152,0.5,10.588,0.5,10c0-0.438,0.099-0.85,0.268-1.225l0,0C0.835,8.626,0.911,8.482,1,8.348V1h15V14z"/>
</g>
<g id="iconBg">
	<path id="XMLID_5_" style="fill:#656565;" d="M5.5,10c0-1.104-0.896-2-2-2s-2,0.896-2,2c0,0.672,0.335,1.264,0.843,1.627L1.5,15h1
		l1-3l1,3h1l-0.843-3.373C5.165,11.264,5.5,10.672,5.5,10z M3.5,11c-0.552,0-1-0.447-1-1c0-0.553,0.448-1,1-1s1,0.447,1,1
		C4.5,10.553,4.052,11,3.5,11z M15,2v2v1v8H6.031L5.77,11.955c0.122-0.141,0.228-0.293,0.32-0.452
		c0.001-0.002,0.001-0.004,0.002-0.006c0.092-0.158,0.167-0.324,0.229-0.496c0-0.001,0-0.001,0-0.001H7v1h1v-1h1v1h1v-1h1v1h1v-1h1
		v1h1v-1h-1v-1h1V9h-1V8h1V7h-1V6h1V5h-1V4h1V3h-1v1h-1V3h-1v1h-1V3H9v1H8V3H7v1H6V3H5v1H4V3H3v1h1v1H3v1h1v1.051
		C3.836,7.023,3.671,7,3.5,7C2.951,7,2.443,7.159,2,7.417V2H15z M12,6H5V5h7V6z M11,7v1H6V7H11z M3.38,7.009
		C3.42,7.007,3.459,7,3.5,7C3.563,7,3.489,7.003,3.38,7.009z M3,7.038c0.054-0.012,0.242-0.022,0.38-0.029
		C3.251,7.014,3.124,7.027,3,7.049V7.038z"/>
</g>
<g id="iconFg">
	<path id="XMLID_12_" style="fill:#F3F3F3;" d="M4.5,10c0,0.553-0.448,1-1,1s-1-0.447-1-1c0-0.553,0.448-1,1-1S4.5,9.447,4.5,10z
		 M14,3h-1v1h1V3z M14,11h-1v1h1V11z M5.781,12L5.781,12L5.781,12L5.781,12z M3,7.05L3,7.05C3.164,7.023,3.329,7,3.5,7
		C3.328,7,3.162,7.021,3,7.05z M13,6v1h1v1h-1v1h1v1h-1v1h-1v1h-1v-1h-1v1H9v-1H8v1H7v-1H6.322H6c0.002-0.318,0.339-0.655,0.339-1
		c0-1.483-0.923-2.71-2.339-2.949V6H3V5h1V4h1V3h1v1h1V3h1v1h1V3h1v1h1V3h1v1h1v1h1v1H13z M11,7H6v1h5V7z M12,5H5v1h7V5z M6,11.003
		C6,11.002,6,11.001,6,11h0C6,11,6,11.002,6,11.003z M6.09,11.503c-0.092,0.159-0.198,0.312-0.32,0.452L5.781,12L5.77,11.955
		c0.242-0.281,0.427-0.606,0.551-0.952c-0.062,0.171-0.137,0.337-0.229,0.494C6.092,11.499,6.092,11.501,6.09,11.503z M4,7.051
		C3.836,7.023,3.671,7,3.5,7C3.672,7,3.836,7.023,4,7.051L4,7.051z M4,3H3v1h1V3z"/>
</g>
</svg>
