<?xml version="1.0" encoding="iso-8859-1"?>
<!-- Generator: Adobe Illustrator 20.1.0, SVG Export Plug-In . SVG Version: 6.00 Build 0)  -->
<svg version="1.1" xmlns="http://www.w3.org/2000/svg" xmlns:xlink="http://www.w3.org/1999/xlink" x="0px" y="0px"
	 viewBox="0 0 16 16" style="enable-background:new 0 0 16 16;" xml:space="preserve">
<g id="canvas">
	<path id="XMLID_1_" style="opacity:0;fill:#252526;" d="M16,16H0V0h16V16z"/>
</g>
<g id="outline">
	<path id="XMLID_3_" style="fill:#252526;" d="M4,15c-0.97,0-2-0.701-2-2V3c0-1.299,1.03-2,2-2h6.061L14,4.556V13
		c0,0.97-0.701,2-2,2H4z"/>
</g>
<g id="iconBg">
	<path id="XMLID_5_" style="fill:#C5C5C5;" d="M9.641,2H3.964C3.964,2,3,2,3,3c0,0.805,0,7.442,0,10c0,1,0.964,1,0.964,1s7,0,8,0
		S13,13,13,13V5L9.641,2z M12,13H4V3h5v3h3V13z"/>
</g>
<g id="iconFg">
	<path id="XMLID_8_" style="fill:#252526;" d="M9,6V3H4v10h8V6H9z M9,8.181c-0.148-0.108-0.308-0.194-0.479-0.26
		C8.349,7.855,8.163,7.823,7.963,7.823c-0.197,0-0.382,0.035-0.555,0.102c-0.172,0.068-0.323,0.169-0.45,0.299
		C6.833,8.355,6.733,8.517,6.66,8.708C6.588,8.9,6.551,9.119,6.551,9.366c0,0.229,0.032,0.436,0.097,0.621
		c0.063,0.184,0.155,0.34,0.275,0.468c0.121,0.128,0.267,0.226,0.438,0.297c0.171,0.069,0.366,0.104,0.584,0.104
		c0.087,0,0.177-0.01,0.271-0.031c0.092-0.019,0.185-0.047,0.276-0.081c0.092-0.033,0.181-0.071,0.268-0.116
		c0.087-0.046,0.167-0.095,0.24-0.147v0.901c-0.156,0.091-0.338,0.163-0.543,0.216c-0.205,0.054-0.446,0.081-0.725,0.081
		c-0.34,0-0.646-0.056-0.919-0.168C6.54,11.4,6.308,11.245,6.116,11.045c-0.192-0.198-0.339-0.434-0.442-0.705
		c-0.103-0.272-0.155-0.565-0.155-0.882c0-0.373,0.056-0.709,0.167-1.011c0.112-0.303,0.272-0.56,0.482-0.773
		c0.208-0.214,0.462-0.379,0.76-0.497C7.227,7.059,7.56,7,7.928,7c0.119,0,0.232,0.007,0.34,0.022
		c0.107,0.014,0.206,0.032,0.298,0.053C8.659,7.098,8.74,7.122,8.815,7.148C8.89,7.174,8.95,7.2,9,7.226V8.181z"/>
</g>
<g id="colorImportance">
	<path id="XMLID_11_" style="fill:#CF69C8;" d="M8.457,11.599c-0.205,0.054-0.446,0.081-0.725,0.081
		c-0.34,0-0.646-0.056-0.919-0.168C6.54,11.4,6.308,11.245,6.116,11.045c-0.192-0.198-0.339-0.434-0.442-0.705
		c-0.103-0.272-0.155-0.565-0.155-0.882c0-0.373,0.056-0.709,0.167-1.011c0.112-0.303,0.272-0.56,0.482-0.773
		c0.208-0.214,0.462-0.379,0.76-0.497C7.227,7.059,7.56,7,7.928,7c0.119,0,0.232,0.007,0.34,0.022
		c0.107,0.014,0.206,0.032,0.298,0.053C8.659,7.098,8.74,7.122,8.815,7.148C8.89,7.174,8.95,7.2,9,7.226v0.955
		c-0.148-0.108-0.308-0.194-0.479-0.26C8.349,7.855,8.163,7.823,7.963,7.823c-0.197,0-0.382,0.035-0.555,0.102
		c-0.172,0.068-0.323,0.169-0.45,0.299C6.833,8.355,6.733,8.517,6.66,8.708C6.588,8.9,6.551,9.119,6.551,9.366
		c0,0.229,0.032,0.436,0.097,0.621c0.063,0.184,0.155,0.34,0.275,0.468c0.121,0.128,0.267,0.226,0.438,0.297
		c0.171,0.069,0.366,0.104,0.584,0.104c0.087,0,0.177-0.01,0.271-0.031c0.092-0.019,0.185-0.047,0.276-0.081
		c0.092-0.033,0.181-0.071,0.268-0.116c0.087-0.046,0.167-0.095,0.24-0.147v0.901C8.844,11.474,8.662,11.546,8.457,11.599z"/>
</g>
</svg>
