<?xml version="1.0" encoding="iso-8859-1"?>
<!-- Generator: Adobe Illustrator 20.1.0, SVG Export Plug-In . SVG Version: 6.00 Build 0)  -->
<svg version="1.1" xmlns="http://www.w3.org/2000/svg" xmlns:xlink="http://www.w3.org/1999/xlink" x="0px" y="0px"
	 viewBox="0 0 16 16" style="enable-background:new 0 0 16 16;" xml:space="preserve">
<g id="canvas">
	<path id="XMLID_1_" style="opacity:0;fill:#F3F3F3;" d="M16,16H0V0h16V16z"/>
</g>
<g id="outline">
	<path style="fill:#F3F3F3;" d="M15.102,12.324l-2.121,2.121L8.02,9.484l-4.961,4.961l-2.121-2.121L4.362,8.9
		C1.737,8.446,1,6.56,1,5.5c0-2.466,2.069-3.444,3.46-3.499c0,0,0.001,0,0.002,0c1.679,0,2.817,0.688,3.535,1.673
		C8.709,2.688,9.839,2,11.5,2C12.931,2.056,15,3.034,15,5.5c0,1.055-0.731,2.931-3.328,3.394L15.102,12.324z"/>
</g>
<g id="iconBg">
	<path style="fill:#656565;" d="M10.4,8C14,8,14,5.5,14,5.5C14,3.1,11.5,3,11.5,3C8.467,3,8.062,5.83,8.009,6.724L7.99,6.705
		C7.933,5.791,7.512,3,4.5,3C4.5,3,2,3.1,2,5.5C2,5.5,2,8,5.6,8h1.076l-4.324,4.324l0.707,0.707L8.02,8.07l4.961,4.961l0.707-0.707
		L9.363,8H10.4z M9,6.366C9.002,6.084,9.096,4,11.333,4C11.333,4,13,4.061,13,5.5c0,0,0,1.5-2.4,1.5H9.666H9V6.366z M5.4,7
		C3,7,3,5.5,3,5.5C3,4.061,4.667,4,4.667,4C6.904,4,6.998,6.084,7,6.366V7H6.333H5.4z"/>
</g>
</svg>
