<?xml version="1.0" encoding="iso-8859-1"?>
<!-- Generator: Adobe Illustrator 19.2.1, SVG Export Plug-In . SVG Version: 6.00 Build 0)  -->
<svg version="1.1" xmlns="http://www.w3.org/2000/svg" xmlns:xlink="http://www.w3.org/1999/xlink" x="0px" y="0px" width="16px"
	 height="16px" viewBox="0 0 16 16" style="enable-background:new 0 0 16 16;" xml:space="preserve">
<g id="outline">
	<rect style="opacity:0;fill:#252526;" width="16" height="16"/>
	<path style="fill:#252526;" d="M12.061,0H6C5.03,0,4,0.701,4,2v1.767L2.665,4.241C1.071,4.808,0,6.318,0,8
		c0,1.436,0.78,2.746,2,3.451V14c0,1.102,0.897,2,2,2s2-0.898,2-2h8c1.299,0,2-1.03,2-2V3.556L12.061,0z"/>
</g>
<g id="icon_x5F_bg">
	<g>
		<path style="fill:#C5C5C5;" d="M11.641,1H5.964C5.964,1,5,1,5,2c0,0.249,0,1.055,0,2.123l0.335,0.119
			C5.57,4.325,5.79,4.435,6,4.557V2h5v3h3v7H6v1c0.374,0,6.993,0,7.965,0c1,0,1.035-1,1.035-1V4L11.641,1z"/>
		<path style="fill:#C5C5C5;" d="M5,5.184V8H3V5.184C1.837,5.597,1,6.696,1,8c0,1.305,0.838,2.403,2,2.816V14c0,0.553,0.448,1,1,1
			s1-0.447,1-1v-3.184C6.162,10.402,7,9.305,7,8C7,6.696,6.162,5.597,5,5.184z"/>
	</g>
</g>
<g id="icon_x5F_fg">
	<path style="fill:#252526;" d="M11,5V2H6v2.557C7.217,5.264,8,6.567,8,8c0,1.435-0.78,2.745-2,3.451V12h8V5H11z"/>
</g>
</svg>
