<svg xmlns="http://www.w3.org/2000/svg" viewBox="0 0 16 16">
  <defs>
    <style>.canvas{fill: none; opacity: 0;}.light-defaultgrey-10{fill: #212121; opacity: 0.1;}.light-defaultgrey{fill: #212121; opacity: 1;}.cls-1{opacity:0.75;}</style>
  </defs>
  <title>IconLightConfigurationFile</title>
  <g id="canvas" class="canvas">
    <path class="canvas" d="M16,16H0V0H16Z" />
  </g>
  <g id="level-1">
    <g class="cls-1">
      <path class="light-defaultgrey-10" d="M10.5,1.5h-8V6.055A3.968,3.968,0,0,1,3.008,6,3.95,3.95,0,0,1,5.82,7.161a4,4,0,0,1,1.027,3.855L10,14.172V14.5h3.5V4.5Z" />
      <path class="light-defaultgrey" d="M13.85,4.15l-3-3L10.5,1h-8L2,1.5V6.139A4.042,4.042,0,0,1,3,6V2h7V5h3v9H9.831l.171.172V15h3.5l.5-.5V4.5Z" />
    </g>
    <path class="light-defaultgrey" d="M.293,8.705,2.285,10.7,3.7,9.282,1.708,7.291a2.983,2.983,0,0,1,3.983,3.983L9,14.586v.707L8.3,16H7.588L4.276,12.688A2.983,2.983,0,0,1,.293,8.705Z" />
  </g>
</svg>
