<?xml version="1.0" encoding="iso-8859-1"?>
<!-- Generator: Adobe Illustrator 20.1.0, SVG Export Plug-In . SVG Version: 6.00 Build 0)  -->
<svg version="1.1" xmlns="http://www.w3.org/2000/svg" xmlns:xlink="http://www.w3.org/1999/xlink" x="0px" y="0px"
	 viewBox="0 0 16 16" style="enable-background:new 0 0 16 16;" xml:space="preserve">
<g id="outline">
	<rect x="0" y="0" style="opacity:0;fill:#000000;" width="16" height="16"/>
	<path style="fill:#000000;" d="M10.71,0.025C8.73,0.025,6.98,1.074,6,2.64V2H1v3h1v1H1v2H0v8h14v-5.981l0.719-0.752
		C15.339,8.622,15.758,7.844,16,7.01V4.007C15.346,1.697,13.232,0.025,10.71,0.025z"/>
</g>
<g id="icon_x5F_bg">
	<g>
		<path style="fill:#FFFFFF;" d="M1,9v6h11.969V9H1z M4,14l-0.25-1h-0.5L3,14H2l1-4h1l1,4H4z M8.639,11h-1v3H6.672v-3H5.639v-1h3V11
			z M11.969,14h-2v-4h1v3h1V14z"/>
		<g>
			<polyline style="fill:#FFFFFF;" points="3.75,12.3 3.5,11 3.25,12.3 			"/>
		</g>
	</g>
</g>
<g id="color_x5F_importance">
	<rect x="13.513" y="8" style="fill:#FFFFFF;" width="0.487" height="0"/>
	<rect x="9.237" y="8" style="fill:#FFFFFF;" width="0.733" height="0"/>
	<rect x="11.383" y="8" style="fill:#FFFFFF;" width="0.755" height="0"/>
	<g>
		<rect x="3" y="5" style="fill:#FFFFFF;" width="2" height="1"/>
		<rect x="2" y="3" style="fill:#FFFFFF;" width="3" height="1"/>
		<rect x="2" y="7" style="fill:#FFFFFF;" width="3" height="1"/>
		<path style="fill:#FFFFFF;" d="M14,8.09v0.565c0.778-0.809,1.264-1.901,1.264-3.112c0-0.052-0.008-0.102-0.008-0.152
			c-0.082-2.413-2.059-4.348-4.492-4.348c-2.486,0-4.501,2.016-4.501,4.5c0,0.133,0.008,0.26,0.02,0.389
			c0.01,0.115,0.027,0.229,0.045,0.342c0,0.004,0,0.008,0.002,0.012C6.434,6.913,6.677,7.489,7.012,8h1.012l0,0
			C7.662,7.596,7.376,7.123,7.218,6.588c0.513,0.156,1.101,0.309,1.765,0.414C9.048,7.332,9.134,7.665,9.237,8h0.733
			c-0.1-0.303-0.19-0.604-0.256-0.901c0.336,0.033,0.686,0.057,1.045,0.059c0.086,0.002,0.174,0.002,0.258,0.002
			c0.225,0,0.451-0.006,0.678-0.018C11.611,7.415,11.502,7.704,11.383,8h0.755c0.122-0.32,0.229-0.63,0.311-0.925
			C13.023,7,13.635,6.854,14.305,6.602C14.146,7.129,13.869,7.601,13.513,8H14v0V8.09z M10.293,1.881
			c0.153-0.02,0.311-0.033,0.471-0.033c0.105,0,0.209,0.008,0.312,0.016c0.301,0.521,0.607,1.186,0.785,1.996
			c-0.367,0.025-0.729,0.029-1.094,0.025c-0.387-0.004-0.76-0.029-1.119-0.07C9.799,3.034,10.047,2.391,10.293,1.881z M7.081,5.803
			c-0.007-0.086-0.014-0.172-0.014-0.26c0-0.525,0.112-1.025,0.31-1.479c0.44,0.13,0.932,0.253,1.478,0.346
			c-0.027,0.262-0.046,0.528-0.049,0.81C8.802,5.561,8.827,5.915,8.869,6.27C8.177,6.145,7.581,5.971,7.081,5.803z M8.953,3.714
			C8.509,3.635,8.103,3.54,7.73,3.434C8.147,2.836,8.736,2.37,9.424,2.102C9.238,2.567,9.067,3.101,8.953,3.714z M11.885,6.422
			c-0.375,0.025-0.744,0.037-1.117,0.035c-0.41-0.006-0.803-0.035-1.182-0.078C9.531,5.987,9.503,5.6,9.507,5.226
			c0.002-0.247,0.02-0.507,0.044-0.737c0.387,0.043,0.789,0.055,1.209,0.055c0.086,0,0.174,0,0.258,0
			c0.314,0,0.633,0.012,0.957-0.012C12,4.75,12.018,4.984,12.019,5.215C12.023,5.586,11.977,5.993,11.885,6.422z M11.973,2.054
			c0.756,0.262,1.4,0.759,1.844,1.406c-0.441,0.152-0.857,0.258-1.256,0.319C12.424,3.118,12.207,2.546,11.973,2.054z M12.617,6.338
			c0.07-0.393,0.107-0.768,0.104-1.119c-0.002-0.258-0.023-0.502-0.049-0.742c0.467-0.074,0.961-0.199,1.488-0.389
			c0.191,0.446,0.299,0.938,0.299,1.455c0,0.08-0.008,0.16-0.012,0.24C13.779,6.075,13.18,6.249,12.617,6.338z"/>
	</g>
</g>
<g id="icon_x5F_fg">
	<g>
		<g>
			<path style="fill:#000000;" d="M11.018,7.159c-0.084,0-0.172,0-0.258-0.002C10.4,7.155,10.051,7.131,9.715,7.098
				C9.78,7.396,9.871,7.697,9.971,8h1.412c0.119-0.295,0.229-0.585,0.312-0.858C11.469,7.153,11.242,7.159,11.018,7.159z"/>
			<path style="fill:#000000;" d="M12.449,7.075C12.367,7.37,12.26,7.68,12.138,8h1.375c0.356-0.399,0.634-0.871,0.792-1.397
				C13.635,6.854,13.023,7,12.449,7.075z"/>
			<path style="fill:#000000;" d="M7.218,6.588C7.376,7.123,7.662,7.596,8.023,8h1.214C9.134,7.665,9.048,7.332,8.983,7.002
				C8.319,6.897,7.731,6.745,7.218,6.588z"/>
			<path style="fill:#000000;" d="M11.973,2.054c0.234,0.492,0.451,1.063,0.588,1.726c0.398-0.062,0.814-0.167,1.256-0.319
				C13.373,2.813,12.729,2.316,11.973,2.054z"/>
			<path style="fill:#000000;" d="M11.018,4.543c-0.084,0-0.172,0-0.258,0c-0.42,0-0.822-0.012-1.209-0.055
				c-0.024,0.23-0.042,0.49-0.044,0.737C9.503,5.6,9.531,5.987,9.586,6.379c0.379,0.043,0.771,0.072,1.182,0.078
				c0.373,0.002,0.742-0.01,1.117-0.035c0.092-0.43,0.139-0.836,0.135-1.207C12.018,4.984,12,4.75,11.975,4.532
				C11.65,4.555,11.332,4.543,11.018,4.543z"/>
			<path style="fill:#000000;" d="M11.861,3.86c-0.178-0.811-0.484-1.475-0.785-1.996c-0.103-0.008-0.207-0.016-0.312-0.016
				c-0.16,0-0.317,0.014-0.471,0.033c-0.246,0.51-0.494,1.152-0.645,1.934c0.359,0.041,0.732,0.066,1.119,0.07
				C11.133,3.889,11.494,3.885,11.861,3.86z"/>
			<path style="fill:#000000;" d="M14.459,5.543c0-0.518-0.107-1.009-0.299-1.455c-0.527,0.189-1.022,0.314-1.488,0.389
				c0.025,0.24,0.047,0.484,0.049,0.742c0.004,0.352-0.033,0.727-0.104,1.119c0.562-0.09,1.162-0.264,1.83-0.555
				C14.451,5.704,14.459,5.624,14.459,5.543z"/>
			<path style="fill:#000000;" d="M8.855,4.41C8.309,4.317,7.817,4.194,7.377,4.064c-0.198,0.454-0.31,0.954-0.31,1.479
				c0,0.088,0.007,0.174,0.014,0.26c0.5,0.168,1.097,0.342,1.788,0.467C8.827,5.915,8.802,5.561,8.806,5.219
				C8.809,4.938,8.828,4.671,8.855,4.41z"/>
			<path style="fill:#000000;" d="M7.73,3.434c0.372,0.105,0.779,0.201,1.223,0.28c0.114-0.613,0.285-1.147,0.471-1.612
				C8.736,2.37,8.147,2.836,7.73,3.434z"/>
		</g>
		<g>
			<path style="fill:#000000;" d="M3,10l-1,4h1l0.25-0.969h0.5L4,14h1l-1-4H3z M3.295,12.22L3.5,11l0.219,1.22H3.295z"/>
			<polygon style="fill:#000000;" points="5.639,11.027 6.639,11.027 6.639,14 7.639,14 7.639,11.027 8.639,11.027 8.639,10 
				5.639,10 			"/>
			<polygon style="fill:#000000;" points="10.969,12.926 10.969,10 9.969,10 9.969,14.025 11.969,14.025 11.969,12.926 			"/>
		</g>
	</g>
	<path style="fill:#FFFFFF;" d="M0,9.221"/>
</g>
</svg>
