<?xml version="1.0" encoding="iso-8859-1"?>
<!-- Generator: Adobe Illustrator 20.1.0, SVG Export Plug-In . SVG Version: 6.00 Build 0)  -->
<svg version="1.1" xmlns="http://www.w3.org/2000/svg" xmlns:xlink="http://www.w3.org/1999/xlink" x="0px" y="0px"
	 viewBox="0 0 16 16" style="enable-background:new 0 0 16 16;" xml:space="preserve">
<g id="outline">
	<rect x="0" y="0" style="opacity:0;fill:#252526;" width="16" height="16"/>
	<path style="fill:#252526;" d="M4,15c-0.97,0-2-0.701-2-2V3c0-1.299,1.03-2,2-2h6.061L14,4.556V13c0,0.97-0.701,2-2,2H4z"/>
</g>
<g id="icon_x5F_bg">
	<path style="fill:#C5C5C5;" d="M9.641,2H3.964C3.964,2,3,2,3,3c0,0.805,0,7.442,0,10c0,1,0.965,1,0.965,1s7,0,8,0S13,13,13,13V5
		L9.641,2z M12,13H4V3h5v3h3V13z"/>
</g>
<g id="color_x5F_importance">
	<polygon style="fill:#CF69C8;" points="7,8 7,6 6,6 6,11 7,11 7,9 9,9 9,11 10,11 10,9 10,8 9,8 	"/>
</g>
<g id="icon_x5F_fg">
	<path style="fill:#252526;" d="M9,6V3H4v10h8V6H9z M10,9v2H9V9H7v2H6V6h1v2h2h1V9z"/>
</g>
</svg>
