<?xml version="1.0" encoding="iso-8859-1"?>
<!-- Generator: Adobe Illustrator 20.1.0, SVG Export Plug-In . SVG Version: 6.00 Build 0)  -->
<svg version="1.1" xmlns="http://www.w3.org/2000/svg" xmlns:xlink="http://www.w3.org/1999/xlink" x="0px" y="0px"
	 viewBox="0 0 16 16" style="enable-background:new 0 0 16 16;" xml:space="preserve">
<g id="outline">
	<rect style="opacity:0;fill:#252526;" width="16" height="16"/>
</g>
<g id="icon_x5F_bg">
	<path style="fill:#252526;" d="M14,4V3H9v0.812L8.358,3.566C7.811,3.356,7.158,3.25,6.416,3.25c-1.288,0-2.361,0.443-3.189,1.317
		C2.413,5.427,2,6.546,2,7.894c0,1.231,0.352,2.254,1.043,3.042c0.762,0.872,1.813,1.314,3.124,1.314
		c0.913,0,1.683-0.157,2.289-0.469L9,11.503V10h5V9h1V4H14z M6.453,8.934c-0.389,0-0.561-0.135-0.665-0.251
		C5.609,8.482,5.522,8.189,5.522,7.785c0-0.651,0.229-0.885,0.303-0.961c0.12-0.122,0.309-0.262,0.708-0.262
		c0.357,0,0.664,0.083,0.937,0.253L8,7.147v1.176L7.474,8.649C7.164,8.84,6.831,8.934,6.453,8.934z"/>
	<path style="fill:#87CF84;" d="M8,10.892c-0.467,0.239-1.08,0.358-1.833,0.358c-1.015,0-1.805-0.324-2.371-0.973
		C3.266,9.674,3,8.879,3,7.894c0-1.09,0.318-1.969,0.953-2.639C4.588,4.585,5.408,4.25,6.416,4.25C7.041,4.25,7.567,4.334,8,4.5
		v1.468C7.567,5.697,7.079,5.562,6.533,5.562c-0.582,0-1.055,0.188-1.422,0.562c-0.394,0.403-0.59,0.957-0.59,1.662
		c0,0.654,0.174,1.176,0.522,1.564c0.35,0.389,0.819,0.584,1.41,0.584c0.563,0,1.08-0.146,1.547-0.435V10.892z"/>
	<path style="fill:#87CF84;" d="M14,6V5h-1V4h-1v1h-1V4h-1v1H9v1h1v1H9v1h1v1h1V8h1v1h1V8h1V7h-1V6H14z M12,7h-1V6h1V7z"/>
</g>
</svg>
