<?xml version="1.0" encoding="iso-8859-1"?>
<!-- Generator: Adobe Illustrator 20.1.0, SVG Export Plug-In . SVG Version: 6.00 Build 0)  -->
<svg version="1.1" xmlns="http://www.w3.org/2000/svg" xmlns:xlink="http://www.w3.org/1999/xlink" x="0px" y="0px"
	 viewBox="0 0 16 16" style="enable-background:new 0 0 16 16;" xml:space="preserve">
<g id="_x7B__PAGE_GRID__x7D_">
</g>
<g id="outline">
	<path style="fill:#252526;" d="M8,0C4.01,0,1,1.72,1,4v8c0,2.28,3.01,4,7,4c3.99,0,7-1.72,7-4V4C15,1.72,11.99,0,8,0z"/>
</g>
<g id="icon_x5F_bg">
	<path style="fill:#C5C5C5;" d="M8,1C4.687,1,2,2.343,2,4v8c0,1.657,2.687,3,6,3c3.314,0,6-1.343,6-3V4C14,2.343,11.314,1,8,1z
		 M7.997,5.875C5.066,5.875,3.122,4.746,3.122,4c0-0.747,1.944-1.875,4.875-1.875c2.931,0,4.875,1.128,4.875,1.875
		C12.872,4.746,10.928,5.875,7.997,5.875z"/>
</g>
<g id="icon_x5F_fg">
	<path style="fill:#252526;" d="M7.997,2.125C5.066,2.125,3.122,3.253,3.122,4c0,0.746,1.944,1.875,4.875,1.875
		c2.931,0,4.875-1.129,4.875-1.875C12.872,3.253,10.928,2.125,7.997,2.125z"/>
</g>
<g id="not_x5F_bg">
</g>
<g id="not_x5F_fg">
</g>
</svg>
