<svg xmlns="http://www.w3.org/2000/svg" xmlns:xlink="http://www.w3.org/1999/xlink" viewBox="0 0 16 16"><defs><style>.canvas{fill:none;opacity:0;}.cls-1{fill:url(#linear-gradient);}.cls-2{opacity:0.75;}.light-defaultgrey,.light-defaultgrey-10{fill:#212121;}.light-defaultgrey-10{opacity:0.1;}</style><linearGradient id="linear-gradient" x1="7.464" y1="1.464" x2="14.536" y2="8.536" gradientUnits="userSpaceOnUse"><stop offset="0" stop-color="#f4f4f4"/><stop offset="1" stop-color="#212121"/></linearGradient></defs><title>IconLightDGSLFile</title><g id="canvas"><path class="canvas" d="M16,16H0V0H16Z"/></g><g id="level-1"><path class="cls-1" d="M14.536,8.536a5,5,0,1,1,0-7.072A5,5,0,0,1,14.536,8.536Z"/><g class="cls-2"><path class="light-defaultgrey" d="M8,11.5V13H7V12H2v1H1V11.5l.5-.5H4V10H5v1H7.5Z"/></g><path class="light-defaultgrey-10" d="M5.5,9.5h-2v-2h2Zm-3,6H.5v-2h2Zm6,0h-2v-2h2Z"/><path class="light-defaultgrey" d="M5.5,10h-2L3,9.5v-2L3.5,7h2l.5.5v2ZM4,9H5V8H4ZM2.5,16H.5L0,15.5v-2L.5,13h2l.5.5v2ZM1,15H2V14H1Zm7.5,1h-2L6,15.5v-2l.5-.5h2l.5.5v2ZM7,15H8V14H7Z"/></g></svg>