<?xml version="1.0" encoding="iso-8859-1"?>
<!-- Generator: Adobe Illustrator 20.1.0, SVG Export Plug-In . SVG Version: 6.00 Build 0)  -->
<svg version="1.1" xmlns="http://www.w3.org/2000/svg" xmlns:xlink="http://www.w3.org/1999/xlink" x="0px" y="0px"
	 viewBox="0 0 16 16" style="enable-background:new 0 0 16 16;" xml:space="preserve">
<g id="outline">
	<rect style="opacity:0;fill:#F6F6F6;" width="16" height="16"/>
	<polygon style="fill:#F6F6F6;" points="14,3 2,3 2,12 5.949,12 5.949,9.281 8.754,9.281 8.754,9 9,9 9,10 14,10 14,9 15,9 15,4 
		14,4 	"/>
</g>
<g id="icon_x5F_bg">
</g>
<g id="color_x5F_importance">
	<g>
		<path style="fill:#682878;" d="M14,6V5h-1V4h-1v1h-1V4h-1v1H9v1h1v1H9v1h1v1h1V8h1v1h1V8h1V7h-1V6H14z M12,7h-1V6h1V7z"/>
		<polygon style="fill:#682878;" points="3,11 4.949,11 4.949,8.281 7.754,8.281 7.754,7.001 4.949,7.001 4.949,5.283 8,5.283 8,4 
			3,4 		"/>
	</g>
</g>
</svg>
