<?xml version="1.0" encoding="iso-8859-1"?>
<!-- Generator: Adobe Illustrator 20.1.0, SVG Export Plug-In . SVG Version: 6.00 Build 0)  -->
<svg version="1.1" xmlns="http://www.w3.org/2000/svg" xmlns:xlink="http://www.w3.org/1999/xlink" x="0px" y="0px"
	 viewBox="0 0 16 16" style="enable-background:new 0 0 16 16;" xml:space="preserve">
<g id="canvas">
	<path style="opacity:0;fill:#252526;" d="M16,16H0V0h16V16z"/>
</g>
<g id="outline">
	<path style="fill:#252526;" d="M8.015,16c-0.508,0-0.985-0.197-1.345-0.556L0.557,9.333c-0.743-0.743-0.743-1.951,0-2.693
		L6.64,0.558C7,0.198,7.478,0,7.986,0c0.509,0,0.987,0.199,1.346,0.559l6.111,6.11c0.742,0.742,0.742,1.95,0,2.693l-6.082,6.082
		C8.999,15.803,8.522,16,8.015,16z"/>
</g>
<g id="iconBg">
	<path style="fill:#F05133;" d="M14.736,8.667l-6.071,6.071c-0.352,0.35-0.921,0.35-1.272,0l-6.1-6.099
		c-0.352-0.352-0.352-0.922,0-1.273l4.182-4.182L7.06,4.768c-0.162,0.389-0.086,0.854,0.23,1.17
		c0.104,0.104,0.074,0.057,0.202,0.109v3.867c-0.116,0.047-0.176,0.126-0.263,0.216c-0.23,0.204-0.377,0.499-0.377,0.831
		c0,0.617,0.5,1.117,1.117,1.117c0.08,0,0.158-0.009,0.233-0.024c0.22-0.032,0.433-0.13,0.602-0.299
		c0.373-0.372,0.411-0.95,0.119-1.368c-0.098-0.162-0.236-0.297-0.401-0.391V6.238l1.444,1.443c-0.16,0.388-0.082,0.85,0.232,1.165
		c0.418,0.418,1.096,0.418,1.516,0c0.418-0.418,0.418-1.096,0-1.514c-0.301-0.3-0.732-0.383-1.107-0.254L9.057,5.53
		c0.131-0.375,0.047-0.807-0.253-1.107C8.506,4.127,8.078,4.042,7.705,4.168L6.098,2.562l1.267-1.267
		c0.352-0.351,0.922-0.351,1.272,0l6.1,6.099C15.088,7.745,15.088,8.315,14.736,8.667z"/>
</g>
</svg>
