<svg xmlns="http://www.w3.org/2000/svg" viewBox="0 0 16 16">
  <defs>
    <style>.canvas{fill: none; opacity: 0;}.light-defaultgrey-10{fill: #212121; opacity: 0.1;}.light-defaultgrey{fill: #212121; opacity: 1;}.cls-1{opacity:0.75;}</style>
  </defs>
  <title>IconLightHTMLFile</title>
  <g id="canvas">
    <path class="canvas" d="M16,16H0V0H16Z" />
  </g>
  <g id="level-1">
    <g class="cls-1">
      <path class="light-defaultgrey-10" d="M13.5,4.5v10H10.615l1.234-1.226v-1.54L8.658,8.555,6.836,10.388a2.494,2.494,0,0,0-2.675,0L2.5,8.737V1.5h8Z" />
      <path class="light-defaultgrey" d="M14,4.5v10l-.5.5H10.112l1.006-1H13V5H10V2H3V9.235l-.684-.68L2,8.873V1.5L2.5,1h8l.354.146,3,3Z" />
    </g>
    <path class="light-defaultgrey" d="M1.212,12.5l1.816,1.82-.707.707L.152,12.854v-.706L2.32,9.969l.709.705Zm9.637-.351v.709L8.661,15.031l-.7-.709L9.787,12.5,7.956,10.679l.7-.709ZM5.5,11A1.5,1.5,0,1,0,7,12.5,1.5,1.5,0,0,0,5.5,11Zm0,2a.5.5,0,1,1,.5-.5A.5.5,0,0,1,5.5,13Z" />
  </g>
</svg>
