<?xml version="1.0" encoding="iso-8859-1"?>
<!-- Generator: Adobe Illustrator 19.2.1, SVG Export Plug-In . SVG Version: 6.00 Build 0)  -->
<svg version="1.1" xmlns="http://www.w3.org/2000/svg" xmlns:xlink="http://www.w3.org/1999/xlink" x="0px" y="0px" width="16px"
	 height="16px" viewBox="0 0 16 16" style="enable-background:new 0 0 16 16;" xml:space="preserve">
<g id="outline">
	<rect style="opacity:0;fill:#000000;" width="16" height="16"/>
	<path style="fill:#000000;" d="M4,15c-0.97,0-2-0.701-2-2V3c0-1.299,1.03-2,2-2h6.061L14,4.556V13c0,0.97-0.701,2-2,2H4z"/>
	<path style="fill:#FFFFFF;" d="M9.641,2H3.964C3.964,2,3,2,3,3c0,0.805,0,7.442,0,10c0,1,0.964,1,0.964,1s7,0,8,0S13,13,13,13V5
		L9.641,2z M12,13H4V3h5v3h3V13z"/>
</g>
<g id="icon_x5F_bg">
	<rect x="5" y="5" style="fill:#FFFFFF;" width="1" height="1"/>
	<rect x="7" y="5" style="fill:#FFFFFF;" width="1" height="1"/>
	<rect x="10" y="8" style="fill:#FFFFFF;" width="1" height="1"/>
	<rect x="10" y="11" style="fill:#FFFFFF;" width="1" height="1"/>
	<polygon style="fill:#FFFFFF;" points="9,8.984 7.483,10.184 8,12 6.464,11 5,12 5.443,10.184 4,8.984 5.832,8.984 6.464,7 
		7.095,8.984 	"/>
</g>
<g id="icon_x5F_fg">
	<path style="fill:#000000;" d="M9,6V3H4v6h1.832l0.632-1.984L7.095,9H9l-1.517,1.191L8,12.004l-1.536-1.002L5,12.001l0.443-1.817
		L4,8.984V13h8V6H9z M6,6H5V5h1V6z M8,6H7V5h1V6z M11,12h-1v-1h1V12z M11,9h-1V8h1V9z"/>
</g>
</svg>
