<?xml version="1.0" encoding="iso-8859-1"?>
<!-- Generator: Adobe Illustrator 20.1.0, SVG Export Plug-In . SVG Version: 6.00 Build 0)  -->
<svg version="1.1" xmlns="http://www.w3.org/2000/svg" xmlns:xlink="http://www.w3.org/1999/xlink" x="0px" y="0px"
	 viewBox="0 0 16 16" style="enable-background:new 0 0 16 16;" xml:space="preserve">
<g id="canvas">
	<path id="XMLID_1_" style="opacity:0;fill:#252526;" d="M16,16H0V0h16V16z"/>
</g>
<g id="outline">
	<path id="XMLID_3_" style="fill:#252526;" d="M0,0h16l0,0l0,0v15H0V0z"/>
</g>
<g id="iconBg">
	<path id="XMLID_4_" style="fill:#C5C5C5;" d="M1,1v13h14V1H1z M2,2h12l0.016,6.871L12,7L9,9L4.976,5.091L2,8.628V2z M14,13.019
		L2,13v-2.329l3.006-3.628L9.002,11l2.982-2L14,10.604V13.019z M9.5,3C10.328,3,11,3.672,11,4.5S10.328,6,9.5,6
		C8.671,6,8,5.329,8,4.5S8.671,3,9.5,3z"/>
</g>
<g id="iconFg">
	<path id="XMLID_7_" style="fill:#252526;" d="M14,13H2v-2.329l3.006-3.628L9.002,11l2.982-2L14,10.549V13z M14.016,8.886L12,7.003
		L9,9.005L4.976,5.099L2,8.643V2h12L14.016,8.886z M11,4.5C11,3.672,10.328,3,9.5,3C8.671,3,8,3.672,8,4.5S8.671,6,9.5,6
		C10.328,6,11,5.329,11,4.5z"/>
</g>
</svg>
