<?xml version="1.0" encoding="iso-8859-1"?>
<!-- Generator: Adobe Illustrator 20.1.0, SVG Export Plug-In . SVG Version: 6.00 Build 0)  -->
<svg version="1.1" xmlns="http://www.w3.org/2000/svg" xmlns:xlink="http://www.w3.org/1999/xlink" x="0px" y="0px"
	 viewBox="0 0 16 16" style="enable-background:new 0 0 16 16;" xml:space="preserve">
<g id="outline">
	<rect style="opacity:0;fill:#F6F6F6;" width="16" height="16"/>
	<path style="fill:#F6F6F6;" d="M16,5V3c0-1.654-1.346-3-3-3H6C3.794,0,2,1.794,2,4v4H0v2v1.5V16h14V8h-1V5H16z"/>
</g>
<g id="iconBg">
	<path style="fill:#656565;" d="M13,1H6C4.343,1,3,2.343,3,4v4h2V4c0-0.553,0.447-1,1-1h5v5h1V4h3V3C15,1.895,14.104,1,13,1z"/>
	<path style="fill:#656565;" d="M1,9v6h12V9H1z"/>
	<g>
		<path style="fill:#F3F3F3;" d="M3.477,12.835c-0.012,0.133-0.033,0.259-0.065,0.379c-0.031,0.12-0.075,0.232-0.132,0.336
			c-0.056,0.104-0.129,0.193-0.218,0.27s-0.196,0.136-0.323,0.179c-0.127,0.044-0.276,0.065-0.448,0.065
			c-0.037,0-0.077-0.003-0.119-0.01c-0.043-0.007-0.086-0.015-0.128-0.023C2,14.021,1.959,14.01,1.919,13.995
			c-0.04-0.014-0.075-0.027-0.106-0.04v-0.728c0.054,0.032,0.115,0.06,0.186,0.084c0.07,0.023,0.145,0.036,0.223,0.036
			c0.1,0,0.182-0.021,0.247-0.062c0.064-0.041,0.116-0.1,0.154-0.177c0.037-0.076,0.064-0.17,0.08-0.281s0.023-0.238,0.023-0.381
			v-2.435h0.77v2.424C3.495,12.569,3.489,12.702,3.477,12.835z"/>
		<path style="fill:#F3F3F3;" d="M5.983,13.994l-0.223-0.978H4.767l-0.228,0.978H3.736l1.105-3.981h0.892l1.058,3.981H5.983z
			 M5.353,11.151c-0.007-0.039-0.015-0.084-0.023-0.135s-0.016-0.102-0.022-0.151c-0.006-0.05-0.012-0.095-0.017-0.135
			s-0.009-0.066-0.013-0.079H5.261c-0.002,0.013-0.005,0.038-0.011,0.076s-0.012,0.08-0.02,0.126
			c-0.008,0.047-0.016,0.095-0.025,0.144c-0.009,0.049-0.019,0.093-0.03,0.132l-0.294,1.285H5.63L5.353,11.151z"/>
		<path style="fill:#F3F3F3;" d="M9.89,11.953c0,0.298-0.035,0.572-0.104,0.822s-0.171,0.465-0.308,0.646
			c-0.138,0.181-0.309,0.321-0.516,0.422c-0.206,0.101-0.447,0.151-0.723,0.151H7.171v-3.981h1.058c0.26,0,0.491,0.035,0.696,0.106
			c0.204,0.071,0.378,0.185,0.521,0.339s0.253,0.355,0.329,0.602S9.89,11.604,9.89,11.953z M9.093,11.965
			c0-0.157-0.014-0.313-0.041-0.468c-0.026-0.155-0.073-0.293-0.139-0.416C8.848,10.959,8.76,10.86,8.65,10.786
			c-0.108-0.075-0.246-0.112-0.41-0.112H7.938v2.659h0.308c0.145,0,0.27-0.034,0.375-0.103s0.193-0.163,0.264-0.284
			s0.123-0.266,0.157-0.434C9.075,12.346,9.093,12.162,9.093,11.965z"/>
		<path style="fill:#F3F3F3;" d="M10.422,13.994v-3.981h1.83v0.661h-1.063v0.993h0.996v0.661h-0.996v1.005h1.133v0.661H10.422z"/>
	</g>
</g>
<g id="iconFg">
	<path style="fill:#F3F3F3;" d="M11,8V3H6C5.447,3,5,3.447,5,4v4H11z"/>
	<g>
		<path style="fill:#F3F3F3;" d="M3.477,12.835c-0.012,0.133-0.033,0.259-0.065,0.379c-0.031,0.12-0.075,0.232-0.132,0.336
			c-0.056,0.104-0.129,0.193-0.218,0.27s-0.196,0.136-0.323,0.179c-0.127,0.044-0.276,0.065-0.448,0.065
			c-0.037,0-0.077-0.003-0.119-0.01c-0.043-0.007-0.086-0.015-0.128-0.023C2,14.021,1.959,14.01,1.919,13.995
			c-0.04-0.014-0.075-0.027-0.106-0.04v-0.728c0.054,0.032,0.115,0.06,0.186,0.084c0.07,0.023,0.145,0.036,0.223,0.036
			c0.1,0,0.182-0.021,0.247-0.062c0.064-0.041,0.116-0.1,0.154-0.177c0.037-0.076,0.064-0.17,0.08-0.281s0.023-0.238,0.023-0.381
			v-2.435h0.77v2.424C3.495,12.569,3.489,12.702,3.477,12.835z"/>
		<path style="fill:#F3F3F3;" d="M5.983,13.994l-0.223-0.978H4.767l-0.228,0.978H3.736l1.105-3.981h0.892l1.058,3.981H5.983z
			 M5.353,11.151c-0.007-0.039-0.015-0.084-0.023-0.135s-0.016-0.102-0.022-0.151c-0.006-0.05-0.012-0.095-0.017-0.135
			s-0.009-0.066-0.013-0.079H5.261c-0.002,0.013-0.005,0.038-0.011,0.076s-0.012,0.08-0.02,0.126
			c-0.008,0.047-0.016,0.095-0.025,0.144c-0.009,0.049-0.019,0.093-0.03,0.132l-0.294,1.285H5.63L5.353,11.151z"/>
		<path style="fill:#F3F3F3;" d="M9.89,11.953c0,0.298-0.035,0.572-0.104,0.822s-0.171,0.465-0.308,0.646
			c-0.138,0.181-0.309,0.321-0.516,0.422c-0.206,0.101-0.447,0.151-0.723,0.151H7.171v-3.981h1.058c0.26,0,0.491,0.035,0.696,0.106
			c0.204,0.071,0.378,0.185,0.521,0.339s0.253,0.355,0.329,0.602S9.89,11.604,9.89,11.953z M9.093,11.965
			c0-0.157-0.014-0.313-0.041-0.468c-0.026-0.155-0.073-0.293-0.139-0.416C8.848,10.959,8.76,10.86,8.65,10.786
			c-0.108-0.075-0.246-0.112-0.41-0.112H7.938v2.659h0.308c0.145,0,0.27-0.034,0.375-0.103s0.193-0.163,0.264-0.284
			s0.123-0.266,0.157-0.434C9.075,12.346,9.093,12.162,9.093,11.965z"/>
		<path style="fill:#F3F3F3;" d="M10.422,13.994v-3.981h1.83v0.661h-1.063v0.993h0.996v0.661h-0.996v1.005h1.133v0.661H10.422z"/>
	</g>
</g>
</svg>
