<?xml version="1.0" encoding="iso-8859-1"?>
<!-- Generator: Adobe Illustrator 20.1.0, SVG Export Plug-In . SVG Version: 6.00 Build 0)  -->
<svg version="1.1" xmlns="http://www.w3.org/2000/svg" xmlns:xlink="http://www.w3.org/1999/xlink" x="0px" y="0px"
	 viewBox="0 0 16 16" style="enable-background:new 0 0 16 16;" xml:space="preserve">
<g id="canvas">
	<path id="XMLID_1_" style="opacity:0;fill:#000000;" d="M16,16H0V0h16V16z"/>
</g>
<g id="outline">
	<path style="fill:#000000;" d="M4,15c-0.97,0-2-0.701-2-2V3c0-1.299,1.03-2,2-2h6.061L14,4.556V13c0,0.97-0.701,2-2,2H4z"/>
</g>
<g id="iconBg">
	<path style="fill:#FFFFFF;" d="M9.641,2H3.964C3.964,2,3,2,3,3c0,0.805,0,7.442,0,10c0,1,0.965,1,0.965,1s7,0,8,0S13,13,13,13V5
		L9.641,2z M12,13H4V3h5v3h3V13z"/>
</g>
<g id="iconFg">
	<path id="XMLID_3_" style="fill:#000000;" d="M4,3h5v3h3v7H4V3z"/>
</g>
<g id="colorImportance">
	<path style="fill:#FFFFFF;" d="M9,9.786c0,0.7-0.202,1.244-0.606,1.631C7.991,11.806,7.451,12,6.774,12
		C6.46,12,6.202,11.967,6,11.901V11c1.281,0.438,2-0.149,2-1.206V6h1V9.786z"/>
</g>
</svg>
