<?xml version="1.0" encoding="iso-8859-1"?>
<!-- Generator: Adobe Illustrator 20.1.0, SVG Export Plug-In . SVG Version: 6.00 Build 0)  -->
<svg version="1.1" xmlns="http://www.w3.org/2000/svg" xmlns:xlink="http://www.w3.org/1999/xlink" x="0px" y="0px"
	 viewBox="0 0 16 16" style="enable-background:new 0 0 16 16;" xml:space="preserve">
<g id="outline">
	<rect style="opacity:0;fill:#252526;" width="16" height="16"/>
	<path style="fill:#252526;" d="M12.619,4H8.162C8.094,3.864,8.026,3.727,7.953,3.599C7.448,2.707,6.5,2.335,5.663,2.007
		C4.525,1.561,4.37,1.408,4.395,1.076L4.477,0H1.423v1c0,1.769,0.764,2.557,1.572,3H1v5.031C1,10.816,1.47,12.096,2.09,13H2v3h10
		v-2.763c0.253-0.354,0.463-0.765,0.589-1.237h0.03C14.642,12,16,9.873,16,7.887V7.559C16,5.497,14.578,4,12.619,4z"/>
</g>
<g id="color_x5F_importance">
	<path style="fill:#F16421;" d="M12.619,5h-0.625c-0.006,0-0.012,0-0.018,0H7.518C7.421,4.698,7.27,4.422,7.083,4.092
		C6.297,2.703,3.246,3,3.398,1H2.423c0,2,1.136,2.194,2.206,2.594c0.188,0.07,1.282,0.353,1.561,0.939
		C6.269,4.701,6.354,4.85,6.432,5H2v3.316v0.715C2,13.25,4.973,14,5,14H3v1h8v-1H9.371c0.027,0,2.348-0.781,2.348-3.016
		C11.769,10.986,11.942,11,11.994,11h0.625C14.066,11,15,9.336,15,7.887V7.559C15,6.111,14.066,5,12.619,5z M11,7H3V6h8V7z
		 M14,7.887C14,8.646,13.469,10,11.969,10C11.949,9.125,12,8.066,12,8.066V6.046c1.031,0,2,0.779,2,1.513V7.887z"/>
</g>
<g id="icon_x5F_fg">
	<rect x="3" y="6" style="fill:#252526;" width="8" height="1"/>
</g>
</svg>
