<?xml version="1.0" encoding="utf-8"?>
<!-- Generator: Adobe Illustrator 20.1.0, SVG Export Plug-In . SVG Version: 6.00 Build 0)  -->
<svg version="1.1" id="Layer_1" xmlns="http://www.w3.org/2000/svg" xmlns:xlink="http://www.w3.org/1999/xlink" x="0px" y="0px"
	 viewBox="0 0 16 16" style="enable-background:new 0 0 16 16;" xml:space="preserve">
<style type="text/css">
	.st0{fill:#000000;fill-opacity:0;}
	.st1{fill:#000000;}
	.st2{fill:#FFFFFF;}
	.st3{fill:#000000;}
	.st4{fill:url(#SVGID_1_);}
</style>
<g id="Outline">
	<rect class="st0" width="16" height="16"/>
	<path class="st1" d="M13,0H6C3.8,0,2,1.8,2,4v4.6C1.4,8.9,0.9,9.4,0.6,10H0v1.5c0,0.1,0,0.2,0,0.3c0,0.1,0,0.2,0,0.3
		c0,2.2,1.8,4,4,4c1,0,1.9-0.4,2.6-1h2.9c1.9,0,3.5-1.6,3.5-3.5V5h3V3C16,1.3,14.7,0,13,0z"/>
</g>
<g id="icon_x5F_bg">
	<path class="st2" d="M13,1H6C4.3,1,3,2.3,3,4v4.2C3.3,8.1,3.6,8,4,8c0.4,0,0.7,0.1,1,0.1V4c0-0.6,0.4-1,1-1h5v8.5
		c0,0.8-0.7,1.5-1.5,1.5S8,12.3,8,11.5V11H7.8C7.9,11.3,8,11.7,8,12c0,0.7-0.2,1.4-0.5,2h2.1c1.4,0,2.5-1.1,2.5-2.5V4h3V3
		C15,1.9,14.1,1,13,1z"/>
</g>
<g id="icon_x5F_fg">
	<path class="st3" d="M6,3C5.4,3,5,3.4,5,4v4.2C6.4,8.5,7.5,9.6,7.8,11H8v0.5C8,12.3,8.7,13,9.5,13s1.5-0.7,1.5-1.5V3H6z"/>
</g>
<g>
	<linearGradient id="SVGID_1_" gradientUnits="userSpaceOnUse" x1="4.2235" y1="9.0682" x2="4.0521" y2="8.8968">
		<stop  offset="0" style="stop-color:#000000"/>
		<stop  offset="1" style="stop-color:#000000"/>
	</linearGradient>
	<path class="st4" d="M4.3,9C4.2,9,4.1,9,4,9C4.1,9,4.2,9,4.3,9z"/>
	<path class="st2" d="M4.3,9C4.3,9,4.3,9,4.3,9C4.2,9,4.1,9,4,9c-1.5,0-3,1.3-3,3c0,1.9,1.7,3,3,3c0,0,0,0,0,0c0,0,0,0,0,0
		c1.5,0,3-1.3,3-3C7,10.2,5.6,9.1,4.3,9z M4.9,12c0,1.1-0.9,1.5-0.9,1.5c0,0,0,0,0,0c0,0-0.9-0.4-0.9-1.5c0-1.1,0.9-1.5,0.9-1.5
		c0,0,0,0,0,0C4,10.5,4.9,10.9,4.9,12z M3.9,10.5c-0.1,0-0.1,0-0.2,0C3.8,10.5,3.9,10.5,3.9,10.5z"/>
</g>
</svg>
