<?xml version="1.0" encoding="iso-8859-1"?>
<!-- Generator: Adobe Illustrator 20.1.0, SVG Export Plug-In . SVG Version: 6.00 Build 0)  -->
<svg version="1.1" xmlns="http://www.w3.org/2000/svg" xmlns:xlink="http://www.w3.org/1999/xlink" x="0px" y="0px"
	 viewBox="0 0 16 16" style="enable-background:new 0 0 16 16;" xml:space="preserve">
<g id="canvas">
	<path style="opacity:0;fill:#252526;" d="M16,16H0V0h16V16z"/>
</g>
<g id="outline">
	<path style="fill:#252526;" d="M13,0H6C3.794,0,2,1.793,2,4v6H0v3.414L2.586,16H4v-0.545C4.524,15.793,5.213,16,6,16
		s1.476-0.207,2-0.545V16h1.414l1.198-1.198C11.995,14.334,13,13.039,13,11.5V5h3V3C16,1.346,14.654,0,13,0z"/>
</g>
<g id="iconBg">
	<path style="fill:#C5C5C5;" d="M13,1H6C4.343,1,3,2.342,3,4v5h2V4c0-0.553,0.447-1,1-1h5v8.5c0,0.027-0.006,0.052-0.008,0.078
		l0.831,0.831C11.934,12.127,12,11.822,12,11.5V4h3V3C15,1.895,14.104,1,13,1z"/>
</g>
<g id="iconFg">
	<path style="fill:#252526;" d="M6,3C5.447,3,5,3.447,5,4v5h3.414c0,0,2.586,2.527,2.586,2.5V3H6z"/>
</g>
<g id="colorImportance">
	<g>
		<path style="fill:#F16421;" d="M11,13l-2,2v-1l1-1l-1-1v-1L11,13z"/>
		<path style="fill:#F16421;" d="M3,11v1l-1,1l1,1v1l-2-2L3,11z"/>
		<path style="fill:#F16421;" d="M6,10c-1.104,0-2,0.537-2,1.199v2.6C4,14.463,4.896,15,6,15s2-0.537,2-1.201v-2.6
			C8,10.537,7.104,10,6,10z M6,11.949c-0.858,0-1.5-0.394-1.5-0.75c0-0.353,0.642-0.75,1.5-0.75s1.5,0.397,1.5,0.75
			C7.5,11.555,6.858,11.949,6,11.949z"/>
	</g>
</g>
<g id="notificationFg">
	<path style="fill:#252526;" d="M6,11.949c-0.858,0-1.5-0.394-1.5-0.75c0-0.353,0.642-0.75,1.5-0.75s1.5,0.397,1.5,0.75
		C7.5,11.555,6.858,11.949,6,11.949z"/>
</g>
</svg>
