<?xml version="1.0" encoding="iso-8859-1"?>
<!-- Generator: Adobe Illustrator 20.1.0, SVG Export Plug-In . SVG Version: 6.00 Build 0)  -->
<svg version="1.1" xmlns="http://www.w3.org/2000/svg" xmlns:xlink="http://www.w3.org/1999/xlink" x="0px" y="0px"
	 viewBox="0 0 16 16" style="enable-background:new 0 0 16 16;" xml:space="preserve">
<g id="outline">
	<rect style="opacity:0;fill:#000000;" width="16" height="16"/>
	<path style="fill:#000000;" d="M11,4C9.525,4,8.25,4.81,7.557,6H1v4h1v2h5v-2h0.557C8.25,11.189,9.525,12,11,12
		c2.206,0,4-1.794,4-4C15,5.794,13.206,4,11,4z"/>
</g>
<g id="icon_x5F_bg">
	<path style="fill:#FFFFFF;" d="M11,5C9.699,5,8.599,5.839,8.185,7H2v2h1v2h1V9h1v2h1V9h2.185c0.414,1.161,1.515,2,2.815,2
		c1.654,0,3-1.346,3-3C14,6.346,12.654,5,11,5z M11,9c-0.551,0-1-0.449-1-1s0.449-1,1-1c0.553,0,1,0.449,1,1S11.553,9,11,9z"/>
</g>
<g id="icon_x5F_fg">
	<path style="fill:#000000;" d="M12,8c0-0.551-0.447-1-1-1c-0.551,0-1,0.449-1,1s0.449,1,1,1C11.553,9,12,8.551,12,8"/>
</g>
</svg>
