<?xml version="1.0" encoding="iso-8859-1"?>
<!-- Generator: Adobe Illustrator 20.1.0, SVG Export Plug-In . SVG Version: 6.00 Build 0)  -->
<svg version="1.1" xmlns="http://www.w3.org/2000/svg" xmlns:xlink="http://www.w3.org/1999/xlink" x="0px" y="0px"
	 viewBox="0 0 16 16" style="enable-background:new 0 0 16 16;" xml:space="preserve">
<g id="outline">
	<path style="fill:#252526;" d="M12.061,0H6C5.03,0,4,0.702,4,2v6H0V16h14v-1.999c1.299,0,2-1.031,2-2V3.556L12.061,0z"/>
</g>
<g id="icon_x5F_bg">
	<g>
		<rect x="7" y="3" style="fill:#C5C5C5;" width="1" height="1"/>
		<rect x="7" y="5" style="fill:#C5C5C5;" width="1" height="1"/>
		<path style="fill:#C5C5C5;" d="M11.639,1H5.964C5.964,1,5,1,5,2c0,0.508,0,3.337,0,6h1V2h5v3h3v3v1.001v3v0.994
			c0.961-0.025,1-0.994,1-0.994V4L11.639,1z"/>
		<polygon style="fill:#C5C5C5;" points="10.998,8 12.029,7 12.028,8 13,8 13,6 11.705,6 9.598,8 		"/>
		<rect x="7" y="7" style="fill:#C5C5C5;" width="1" height="1"/>
	</g>
</g>
<g id="color_x5F_importance">
	<path style="fill:#0088FF;" d="M1,9v6h12V9H1z M4.078,14H2v-4h0.786v3.299h1.292V14z M6.616,13.988H4.523V10h2.014v0.686H5.304
		v0.981h1.147v0.654H5.304v0.967h0.007v0.012h1.306V13.988z M9.307,13.107c-0.02,0.09-0.049,0.178-0.094,0.262
		c-0.043,0.086-0.098,0.164-0.166,0.238c-0.07,0.076-0.154,0.141-0.256,0.197c-0.102,0.057-0.221,0.102-0.355,0.135
		c-0.136,0.033-0.293,0.049-0.467,0.049c-0.078,0-0.162-0.006-0.255-0.02c-0.092-0.014-0.181-0.029-0.265-0.053
		c-0.085-0.02-0.162-0.045-0.23-0.072c-0.068-0.027-0.123-0.055-0.157-0.086V12.9c0.052,0.055,0.115,0.106,0.188,0.152
		c0.074,0.051,0.156,0.094,0.242,0.133c0.085,0.035,0.174,0.064,0.264,0.088c0.091,0.021,0.174,0.035,0.255,0.035
		c0.091,0,0.165-0.014,0.224-0.035c0.061-0.025,0.107-0.055,0.143-0.092c0.037-0.037,0.062-0.08,0.074-0.127
		c0.015-0.045,0.021-0.092,0.021-0.139c0-0.066-0.014-0.127-0.041-0.178c-0.025-0.055-0.064-0.106-0.118-0.156
		c-0.054-0.049-0.118-0.098-0.196-0.146c-0.076-0.049-0.169-0.1-0.271-0.156c-0.151-0.076-0.277-0.16-0.383-0.242
		c-0.102-0.088-0.186-0.176-0.248-0.269c-0.063-0.094-0.108-0.189-0.137-0.293c-0.027-0.102-0.042-0.209-0.042-0.32
		c0-0.174,0.03-0.328,0.092-0.469c0.062-0.139,0.147-0.262,0.26-0.361c0.11-0.1,0.247-0.178,0.405-0.232
		c0.157-0.053,0.334-0.082,0.525-0.082c0.088,0,0.174,0.006,0.26,0.014c0.084,0.006,0.164,0.02,0.237,0.031
		c0.072,0.012,0.141,0.025,0.203,0.043c0.059,0.017,0.109,0.033,0.148,0.049v0.842C9.119,10.945,9.062,10.906,9,10.871
		c-0.068-0.033-0.136-0.066-0.208-0.094c-0.073-0.027-0.149-0.049-0.227-0.062c-0.077-0.016-0.152-0.021-0.226-0.021
		c-0.061,0-0.118,0.006-0.175,0.021c-0.055,0.014-0.104,0.037-0.148,0.068c-0.042,0.031-0.076,0.072-0.102,0.121
		c-0.027,0.047-0.039,0.104-0.039,0.172c0,0.066,0.01,0.125,0.033,0.18c0.021,0.053,0.057,0.103,0.102,0.148
		c0.044,0.045,0.102,0.09,0.17,0.131c0.066,0.043,0.146,0.086,0.234,0.133c0.164,0.086,0.305,0.172,0.42,0.26
		c0.115,0.09,0.21,0.182,0.285,0.277c0.072,0.096,0.127,0.197,0.164,0.305c0.033,0.104,0.049,0.215,0.049,0.336
		C9.332,12.93,9.326,13.018,9.307,13.107z M11.982,13.107c-0.018,0.09-0.049,0.178-0.092,0.262
		c-0.041,0.086-0.098,0.164-0.168,0.238c-0.068,0.076-0.154,0.141-0.256,0.197c-0.1,0.057-0.219,0.102-0.355,0.135
		c-0.135,0.033-0.289,0.049-0.467,0.049c-0.074,0-0.162-0.006-0.252-0.02c-0.094-0.014-0.182-0.029-0.266-0.053
		c-0.086-0.02-0.164-0.045-0.232-0.072c-0.07-0.027-0.119-0.055-0.156-0.086V12.9c0.053,0.055,0.115,0.106,0.189,0.152
		c0.074,0.051,0.156,0.094,0.242,0.133c0.084,0.035,0.172,0.064,0.262,0.088c0.092,0.021,0.176,0.035,0.258,0.035
		c0.09,0,0.164-0.014,0.223-0.035c0.059-0.025,0.106-0.055,0.144-0.092c0.033-0.037,0.059-0.08,0.074-0.127
		c0.014-0.045,0.019-0.092,0.019-0.139c0-0.066-0.014-0.127-0.039-0.178c-0.027-0.055-0.068-0.106-0.119-0.156
		c-0.055-0.049-0.119-0.098-0.197-0.146c-0.078-0.049-0.168-0.1-0.271-0.156c-0.152-0.076-0.279-0.16-0.383-0.242
		c-0.104-0.088-0.186-0.176-0.248-0.269c-0.064-0.094-0.109-0.189-0.137-0.293c-0.027-0.102-0.043-0.209-0.043-0.32
		c0-0.174,0.031-0.328,0.092-0.469c0.062-0.139,0.146-0.262,0.26-0.361c0.111-0.1,0.248-0.178,0.404-0.232
		c0.158-0.053,0.336-0.082,0.527-0.082c0.09,0,0.174,0.006,0.258,0.014c0.086,0.006,0.164,0.02,0.236,0.031
		c0.076,0.012,0.143,0.025,0.205,0.043c0.061,0.017,0.111,0.033,0.148,0.049v0.842c-0.047-0.043-0.102-0.082-0.168-0.117
		c-0.064-0.033-0.135-0.066-0.207-0.094c-0.072-0.027-0.146-0.049-0.227-0.062c-0.078-0.016-0.154-0.021-0.225-0.021
		c-0.062,0-0.119,0.006-0.176,0.021c-0.057,0.014-0.105,0.037-0.148,0.068c-0.043,0.031-0.076,0.072-0.104,0.121
		c-0.025,0.047-0.039,0.104-0.039,0.172c0,0.066,0.014,0.125,0.035,0.18c0.021,0.053,0.057,0.103,0.102,0.148s0.1,0.09,0.166,0.131
		c0.07,0.043,0.148,0.086,0.238,0.133c0.164,0.086,0.305,0.172,0.418,0.26c0.117,0.09,0.213,0.182,0.287,0.277
		c0.072,0.096,0.129,0.197,0.162,0.305c0.037,0.104,0.053,0.215,0.053,0.336C12.012,12.93,12.002,13.018,11.982,13.107z"/>
</g>
<g id="icon_x5F_fg">
	<g>
		<polygon style="fill:#252526;" points="2.786,10 2,10 2,14 4.078,14 4.078,13.299 2.786,13.299 		"/>
		<path style="fill:#252526;" d="M9.119,12.205c-0.074-0.096-0.169-0.188-0.285-0.277c-0.116-0.088-0.256-0.174-0.42-0.26
			c-0.089-0.047-0.168-0.09-0.234-0.133c-0.068-0.041-0.126-0.086-0.17-0.131c-0.045-0.045-0.08-0.096-0.102-0.148
			c-0.023-0.055-0.033-0.113-0.033-0.18c0-0.068,0.012-0.125,0.039-0.172c0.025-0.049,0.06-0.09,0.102-0.121
			c0.045-0.031,0.094-0.055,0.148-0.068c0.057-0.016,0.114-0.021,0.175-0.021c0.073,0,0.148,0.006,0.226,0.021
			c0.078,0.014,0.154,0.035,0.227,0.062C8.864,10.805,8.932,10.838,9,10.871c0.062,0.035,0.119,0.074,0.166,0.117v-0.842
			c-0.039-0.016-0.09-0.031-0.148-0.049c-0.062-0.018-0.13-0.031-0.203-0.043c-0.073-0.012-0.153-0.025-0.237-0.031
			c-0.086-0.008-0.172-0.014-0.26-0.014c-0.191,0-0.368,0.029-0.525,0.082c-0.158,0.055-0.295,0.133-0.405,0.232
			c-0.112,0.1-0.198,0.223-0.26,0.361c-0.062,0.141-0.092,0.295-0.092,0.469c0,0.111,0.015,0.219,0.042,0.32
			c0.028,0.104,0.073,0.199,0.137,0.293c0.062,0.094,0.146,0.182,0.248,0.269c0.105,0.082,0.231,0.166,0.383,0.242
			c0.103,0.057,0.195,0.107,0.271,0.156c0.078,0.049,0.143,0.098,0.196,0.146c0.054,0.051,0.093,0.102,0.118,0.156
			c0.027,0.051,0.041,0.111,0.041,0.178c0,0.047-0.007,0.094-0.021,0.139c-0.012,0.047-0.037,0.09-0.074,0.127
			c-0.035,0.037-0.082,0.066-0.143,0.092c-0.059,0.021-0.133,0.035-0.224,0.035c-0.081,0-0.164-0.014-0.255-0.035
			c-0.09-0.023-0.179-0.053-0.264-0.088c-0.086-0.039-0.168-0.082-0.242-0.133c-0.073-0.047-0.137-0.098-0.188-0.152v0.857
			c0.034,0.031,0.089,0.059,0.157,0.086c0.068,0.027,0.146,0.053,0.23,0.072c0.084,0.023,0.173,0.039,0.265,0.053
			c0.093,0.014,0.177,0.02,0.255,0.02c0.174,0,0.331-0.016,0.467-0.049c0.135-0.033,0.254-0.078,0.355-0.135
			c0.102-0.057,0.186-0.121,0.256-0.197c0.068-0.074,0.123-0.152,0.166-0.238c0.045-0.084,0.074-0.172,0.094-0.262
			c0.02-0.09,0.025-0.178,0.025-0.262c0-0.121-0.016-0.232-0.049-0.336C9.246,12.402,9.191,12.301,9.119,12.205z"/>
		<path style="fill:#252526;" d="M11.797,12.205c-0.074-0.096-0.17-0.188-0.287-0.277c-0.113-0.088-0.254-0.174-0.418-0.26
			c-0.09-0.047-0.168-0.09-0.238-0.133c-0.066-0.041-0.121-0.086-0.166-0.131s-0.08-0.096-0.102-0.148
			c-0.021-0.055-0.035-0.113-0.035-0.18c0-0.068,0.014-0.125,0.039-0.172c0.027-0.049,0.061-0.09,0.104-0.121
			c0.043-0.031,0.092-0.055,0.148-0.068c0.057-0.016,0.113-0.021,0.176-0.021c0.07,0,0.146,0.006,0.225,0.021
			c0.08,0.014,0.154,0.035,0.227,0.062c0.072,0.027,0.143,0.061,0.207,0.094c0.066,0.035,0.121,0.074,0.168,0.117v-0.842
			c-0.037-0.016-0.088-0.031-0.148-0.049c-0.062-0.018-0.129-0.031-0.205-0.043c-0.072-0.012-0.15-0.025-0.236-0.031
			c-0.084-0.008-0.168-0.014-0.258-0.014c-0.191,0-0.369,0.029-0.527,0.082c-0.156,0.055-0.293,0.133-0.404,0.232
			c-0.113,0.1-0.197,0.223-0.26,0.361c-0.061,0.141-0.092,0.295-0.092,0.469c0,0.111,0.016,0.219,0.043,0.32
			c0.027,0.104,0.072,0.199,0.137,0.293c0.062,0.094,0.145,0.182,0.248,0.269c0.103,0.082,0.231,0.166,0.383,0.242
			c0.104,0.057,0.193,0.107,0.271,0.156c0.078,0.049,0.143,0.098,0.197,0.146c0.051,0.051,0.092,0.102,0.119,0.156
			c0.025,0.051,0.039,0.111,0.039,0.178c0,0.047-0.006,0.094-0.019,0.139c-0.016,0.047-0.041,0.09-0.074,0.127
			c-0.039,0.037-0.086,0.066-0.144,0.092c-0.059,0.021-0.133,0.035-0.223,0.035c-0.082,0-0.166-0.014-0.258-0.035
			c-0.09-0.023-0.178-0.053-0.262-0.088c-0.086-0.039-0.168-0.082-0.242-0.133c-0.074-0.047-0.137-0.098-0.189-0.152v0.857
			c0.037,0.031,0.086,0.059,0.156,0.086c0.068,0.027,0.146,0.053,0.232,0.072c0.084,0.023,0.172,0.039,0.266,0.053
			c0.09,0.014,0.178,0.02,0.252,0.02c0.178,0,0.332-0.016,0.467-0.049c0.137-0.033,0.256-0.078,0.355-0.135
			c0.102-0.057,0.188-0.121,0.256-0.197c0.07-0.074,0.127-0.152,0.168-0.238c0.043-0.084,0.074-0.172,0.092-0.262
			c0.02-0.09,0.029-0.178,0.029-0.262c0-0.121-0.016-0.232-0.053-0.336C11.926,12.402,11.869,12.301,11.797,12.205z"/>
		<polygon style="fill:#252526;" points="5.311,13.287 5.304,13.287 5.304,12.32 6.451,12.32 6.451,11.666 5.304,11.666 
			5.304,10.686 6.537,10.686 6.537,10 4.523,10 4.523,13.988 6.616,13.988 6.616,13.299 5.311,13.299 		"/>
	</g>
	<g>
		<path style="fill:#252526;" d="M11,5V2H6v6h1V7h1v1h1.598l2.107-2H13v2h1V5H11z M8,6H7V5h1V6z M8,4H7V3h1V4z"/>
		<polygon style="fill:#252526;" points="12.028,8 12.029,7 10.998,8 		"/>
	</g>
</g>
</svg>
