<?xml version="1.0" encoding="iso-8859-1"?>
<!-- Generator: Adobe Illustrator 20.1.0, SVG Export Plug-In . SVG Version: 6.00 Build 0)  -->
<svg version="1.1" xmlns="http://www.w3.org/2000/svg" xmlns:xlink="http://www.w3.org/1999/xlink" x="0px" y="0px"
	 viewBox="0 0 16 16" style="enable-background:new 0 0 16 16;" xml:space="preserve">
<g id="outline">
	<path style="fill:#000000;" d="M8.5,2C6.019,2,4,4.019,4,6.5V14h9V6.5C13,4.019,10.981,2,8.5,2z M9.5,7h-2V6.5c0-0.551,0.448-1,1-1
		s1,0.449,1,1V7z"/>
</g>
<g id="icon_x5F_bg">
	<path style="fill:#FFFFFF;" d="M5,13h7V8H5V13z M8,9h1v3H8V9z M12,6.5V7h-2V6.5C10,5.396,9.604,5,8.5,5S7,5.396,7,6.5V7H5V6.5
		C5,4.567,6.567,3,8.5,3C10.433,3,12,4.567,12,6.5z"/>
</g>
<g id="icon_x5F_fg" style="display:none;">
	<path style="display:inline;fill:#000000;" d="M9,12H8V9h1V12z"/>
</g>
<g id="not_x5F_bg">
</g>
<g id="not_x5F_fg">
</g>
</svg>
