<svg viewBox="0 0 16 16" xmlns="http://www.w3.org/2000/svg">
  <path d="M2 0v1.586L1.414 1H0v3.414l2.398 2.389a1.985 1.985 0 00-.13.197H1v7h1.268c.175.304.428.557.732.732V16h7v-1h4c1.299 0 2-1.03 2-2V4.557L12.06 1H6V0H2z" fill="#000000"/>
  <path d="M3 1v3L1 2v2l3 3 3-3V2L5 4V1H3zm5 1v1h3v3h3v7h-2v1h1.965c1 0 1.035-1 1.035-1V5l-3.36-3H8zM6.408 6L6 6.406V7h-.596L4.402 8H9v5H4V8.4l-.879-.877A.996.996 0 003 8H2v1h1v1H2v1h1v1H2v1h1c0 .554.446 1 1 1v1h1v-1h1v1h1v-1h1v1h1v-1c.554 0 1-.446 1-1h1v-1h-1v-1h1v-1h-1V9h1V8h-1c0-.554-.446-1-1-1V6H8v1H7V6h-.592z" fill="#FFFFFF"/>
</svg>