<svg viewBox="0 0 16 16" xmlns="http://www.w3.org/2000/svg">
  <path d="M3 0v1.586L2.414 1H1v12h1c0 1.108.892 2 2 2v1h9v-1c1.108 0 2-.892 2-2h1V4h-1c0-1.108-.892-2-2-2V1H7V0z" fill="#F6F6F6"/>
  <path d="M4 1v3L2 2v2l3 3 3-3V2L6 4V1H4zm5 1v2h4v9H4V7.404l-1-.998V7H2v1h1v1H2v1h1v1H2v1h1v.9c0 .61.49 1.1 1.1 1.1H5v1h1v-1h1v1h1v-1h1v1h1v-1h1v1h1v-1h.9c.61 0 1.1-.49 1.1-1.1V12h1v-1h-1v-1h1V9h-1V8h1V7h-1V6h1V5h-1v-.9c0-.61-.49-1.1-1.1-1.1H12V2h-1v1h-1V2H9z" fill="#656565"/>
  <rect width="2" height="2" x="10" y="10" rx="1" fill="#656565"/>
</svg>