<svg viewBox="0 0 16 16" xmlns="http://www.w3.org/2000/svg">
  <path d="M6 0v1c-1.108 0-2 .892-2 2H3v2c-.966 0-2 1-2 2v7c0 1 1 2 2 2h6c1 0 2-1 2-2v-1h2v-1c1.108 0 2-.892 2-2h1V3h-1c0-1.108-.892-2-2-2V0H6z" fill="#000000"/>
  <path d="M7 1v1H6c-.554 0-1 .446-1 1v1H4v1h2V3h7v7h-2v2h1v-1h1c.554 0 1-.446 1-1V9h1V8h-1V7h1V6h-1V5h1V4h-1V3c0-.554-.446-1-1-1h-1V1h-1v1h-1V1H9v1H8V1H7zM2.965 6S2 6 2 7v7c0 1 .965 1 .965 1h6c1 0 1.035-1 1.035-1V9L7 6H2.965zM3 7h4v2h2v5H3V7zm1 1v1h2V8H4zm0 2v1h4v-1H4zm0 2v1h4v-1H4z" fill="#FFFFFF"/>
</svg>