<?xml version="1.0" encoding="iso-8859-1"?>
<!-- Generator: Adobe Illustrator 20.1.0, SVG Export Plug-In . SVG Version: 6.00 Build 0)  -->
<svg version="1.1" xmlns="http://www.w3.org/2000/svg" xmlns:xlink="http://www.w3.org/1999/xlink" x="0px" y="0px"
	 viewBox="0 0 16 16" style="enable-background:new 0 0 16 16;" xml:space="preserve">
<g id="outline">
	<rect style="opacity:0;fill:#252526;" width="16" height="16"/>
	<rect y="1" style="fill:#252526;" width="16" height="14"/>
</g>
<g id="icon_x5F_bg">
	<g>
		<path style="fill:#C5C5C5;" d="M5,6H4V5H2v2h1v1H2v5h12V5H5V6z M5,12H4v-1h1V12z M5,10H4V9h1V10z M5,8H4V7h1V8z M12,7h1v1h-1V7z
			 M10,7h1v1h-1V7z M8,7h1v1H8V7z M6,7h1v1H6V7z"/>
		<rect x="12" y="7" style="fill:#C5C5C5;" width="1" height="1"/>
		<rect x="4" y="7" style="fill:#C5C5C5;" width="1" height="1"/>
		<rect x="4" y="11" style="fill:#C5C5C5;" width="1" height="1"/>
		<rect x="4" y="9" style="fill:#C5C5C5;" width="1" height="1"/>
		<rect x="10" y="7" style="fill:#C5C5C5;" width="1" height="1"/>
		<path style="fill:#C5C5C5;" d="M1,2v12h14V2H1z M14,13H2V8h1V7H2V5h2v1h1V5h9V13z"/>
		<rect x="8" y="7" style="fill:#C5C5C5;" width="1" height="1"/>
		<rect x="6" y="7" style="fill:#C5C5C5;" width="1" height="1"/>
	</g>
</g>
<g id="icon_x5F_fg">
	<path style="fill:#252526;" d="M5,5v1H4V5H2v2h1v1H2v5h12V5H5z M5,12H4v-1h1V12z M5,10H4V9h1V10z M5,8H4V7h1V8z M7,8H6V7h1V8z M9,8
		H8V7h1V8z M11,8h-1V7h1V8z M13,8h-1V7h1V8z"/>
</g>
</svg>
