<?xml version="1.0" encoding="iso-8859-1"?>
<!-- Generator: Adobe Illustrator 20.1.0, SVG Export Plug-In . SVG Version: 6.00 Build 0)  -->
<svg version="1.1" xmlns="http://www.w3.org/2000/svg" xmlns:xlink="http://www.w3.org/1999/xlink" x="0px" y="0px"
	 viewBox="0 0 16 16" style="enable-background:new 0 0 16 16;" xml:space="preserve">
<g id="outline">
	<rect style="opacity:0;fill:#252526;" width="16" height="16"/>
	<path style="fill:#252526;" d="M14,4.552L10.023,1H3.964C3.012,1,2,1.701,2,3v2C1.449,5,1,5,1,5v6.969h1V13
		c0,1.299,1.012,2,1.965,2h8c1.442,0,2.007-1.175,2.035-2V8.391l-0.046,0.017C13.982,8.259,14,8.103,14,7.938v-1
		c0-0.134-0.023-0.259-0.045-0.384L14,6.571V4.552z"/>
</g>
<g id="icon_x5F_bg">
	<path style="fill:#C5C5C5;" d="M4,4.969V3h5v1.969h0.219h0.785h2.215c0.268,0,0.533,0.052,0.781,0.147V5L9.641,2H3.964
		C3.964,2,3,2,3,3c0,0.236,0,0.98,0,1.969H4z"/>
	<path style="fill:#C5C5C5;" d="M12.016,10.016L12,13H4v-1H3c0,0.386,0,0.707,0,1c0,1,0.965,1,0.965,1s7,0,8,0S13,13,13,13V9.832
		C12.765,9.92,12.301,10.016,12.016,10.016z"/>
	<polygon style="fill:#C5C5C5;" points="6.004,6 6.004,11 7.004,11 7.004,9 8.004,9 8.004,11 9.004,11 9.004,6 8.004,6 8.004,8 
		7.004,8 7.004,6 	"/>
	<path style="fill:#C5C5C5;" d="M4,6H3H2v4.969h1v-2c0,0,0,0,1,0c0.719,0,1-0.443,1-1.031c0-0.308,0-0.656,0-1C5,5.938,4,6,4,6z
		 M4,8H3V6.969h1V8z"/>
	<path style="fill:#C5C5C5;" d="M12,6h-1h-1v4.969h1v-2c0,0,0,0,1,0c0.719,0,1-0.443,1-1.031c0-0.308,0-0.656,0-1
		C13,5.938,12,6,12,6z M12,8h-1V6.969h1V8z"/>
</g>
<g id="icon_x5F_fg">
	<g>
		<path style="fill:#252526;" d="M4.082,4.969c0.319,0,0.635,0.077,0.922,0.213V4.969H9V3H4v1.969H4.082z"/>
	</g>
	<rect x="4" y="12" style="fill:#252526;" width="8" height="1"/>
</g>
</svg>
