<?xml version="1.0" encoding="iso-8859-1"?>
<!-- Generator: Adobe Illustrator 20.1.0, SVG Export Plug-In . SVG Version: 6.00 Build 0)  -->
<svg version="1.1" xmlns="http://www.w3.org/2000/svg" xmlns:xlink="http://www.w3.org/1999/xlink" x="0px" y="0px"
	 viewBox="0 0 16 16" style="enable-background:new 0 0 16 16;" xml:space="preserve">
<g id="outline">
	<rect style="opacity:0;fill:#F6F6F6;" width="16" height="16"/>
	<path style="fill:#F6F6F6;" d="M10.023,1H6.414l-1-1H0.586l2,2H0v4h2.586l-2,2H2v5c0,1.299,1.012,2,1.965,2h8
		c1.442,0,2.007-1.175,2.035-2V4.552L10.023,1z"/>
</g>
<g id="icon_x5F_bg">
	<path style="fill:#656565;" d="M9.641,2H7.414l1,1H9v0.586v0.828V6h3v7H4V8H3c0,1.892,0,3.854,0,5c0,1,0.965,1,0.965,1s7,0,8,0
		S13,13,13,13V5L9.641,2z"/>
</g>
<g id="color_x5F_action">
	<polygon style="fill:#00539C;" points="5,1 3,1 5,3 1,3 1,5 5,5 3,7 5,7 8,4 	"/>
</g>
<g id="icon_x5F_fg">
	<polygon style="fill:#F3F3F3;" points="9,3 8.414,3 9,3.586 	"/>
	<polygon style="fill:#F3F3F3;" points="9,6 9,4.414 5.414,8 4.414,8 4,8 4,13 12,13 12,6 	"/>
</g>
</svg>
