<?xml version="1.0" encoding="iso-8859-1"?>
<!-- Generator: Adobe Illustrator 20.1.0, SVG Export Plug-In . SVG Version: 6.00 Build 0)  -->
<svg version="1.1" xmlns="http://www.w3.org/2000/svg" xmlns:xlink="http://www.w3.org/1999/xlink" x="0px" y="0px"
	 viewBox="0 0 16 16" style="enable-background:new 0 0 16 16;" xml:space="preserve">
<g id="outline">
	<rect style="opacity:0;fill:#252526;" width="16" height="16"/>
	<polygon style="fill-rule:evenodd;clip-rule:evenodd;fill:#252526;" points="3,14.31 3,1.689 14,0.024 14,15.976 	"/>
</g>
<g id="color_x5F_decoration">
	<g>
		<path style="fill-rule:evenodd;clip-rule:evenodd;fill:#d95356;" d="M4,2.549v10.9l9,1.363V1.187L4,2.549z M9.98,11.479
			L9.539,9.765L7.421,9.692L7.02,11.297l-1.354-0.082l2.041-7.239l1.592-0.098l2.257,7.698L9.98,11.479z"/>
		<path style="fill-rule:evenodd;clip-rule:evenodd;fill:#d95356;" d="M8.55,5.637c-0.012-0.059-0.022-0.12-0.032-0.183
			C8.508,5.392,8.5,5.299,8.493,5.232C8.486,5.166,8.481,5,8.476,5H8.438c-0.005,0-0.01,0.157-0.018,0.22
			C8.414,5.284,8.405,5.359,8.396,5.421C8.386,5.482,8.374,5.55,8.361,5.61c-0.012,0.06-0.025,0.122-0.04,0.18L7.6,8.633l0.1-0.206
			l1.622,0.229L8.588,5.81C8.575,5.754,8.562,5.696,8.55,5.637z"/>
	</g>
</g>
<g id="not_x5F_fg">
	<g>
		<path style="fill:#252526;" d="M7.6,8.635l0.722-2.841c0.015-0.058,0.027-0.117,0.04-0.177c0.013-0.06,0.025-0.121,0.035-0.182
			c0.009-0.062,0.018-0.124,0.025-0.187c0.008-0.063,0.013-0.127,0.018-0.192l0.037-0.001c0.005,0.07,0.01,0.139,0.018,0.205
			C8.5,5.327,8.508,5.392,8.518,5.455c0.01,0.062,0.02,0.124,0.032,0.183C8.562,5.696,8.575,5.754,8.588,5.81l0.733,2.848L7.7,8.428
			 M9.299,3.877L7.707,3.976l-2.041,7.239l1.354,0.082l0.401-1.605l2.118,0.072l0.441,1.714l1.575,0.097L9.299,3.877"/>
	</g>
</g>
</svg>
