<?xml version="1.0" encoding="iso-8859-1"?>
<!-- Generator: Adobe Illustrator 20.1.0, SVG Export Plug-In . SVG Version: 6.00 Build 0)  -->
<svg version="1.1" xmlns="http://www.w3.org/2000/svg" xmlns:xlink="http://www.w3.org/1999/xlink" x="0px" y="0px"
	 viewBox="0 0 16 16" style="enable-background:new 0 0 16 16;" xml:space="preserve">
<g id="outline">
	<rect style="opacity:0;fill-rule:evenodd;clip-rule:evenodd;fill:#252526;" width="16" height="16"/>
	<polygon style="fill-rule:evenodd;clip-rule:evenodd;fill:#252526;" points="2,14.35 2,1.715 13,0.067 13,16 	"/>
</g>
<g id="color_x5F_decoration">
	<polygon style="fill:#769dd9;" points="3,2.582 3,13.482 12,14.846 12,1.22 	"/>
</g>
<g id="not_x5F_fg">
	<path style="fill:#252526;" d="M9.338,5.259L8.715,8.89C8.707,8.937,8.699,8.985,8.691,9.034c-0.008,0.049-0.014,0.1-0.02,0.149
		C8.668,9.232,8.662,9.039,8.66,9.091C8.656,9.141,8.652,9,8.65,9H8.639c-0.006,0-0.01,0.119-0.016,0.062
		C8.617,9.006,8.611,9.076,8.605,9.027C8.6,8.98,8.594,8.997,8.586,8.957C8.58,8.917,8.574,8.911,8.568,8.88L7.855,5.335
		l-1.005,0.07L6.125,8.812C6.114,8.864,6.104,8.918,6.095,8.968c-0.009,0.051-0.017,0.102-0.024,0.15
		C6.064,9.169,6.059,9.014,6.055,9.062C6.05,9.11,6.047,9,6.046,9H6.029C6.026,9,6.023,9.082,6.02,9.027
		C6.017,8.971,6.013,9.021,6.008,8.974C6.004,8.925,5.999,8.931,5.994,8.889C5.989,8.848,5.983,8.836,5.978,8.803L5.435,5.486
		L4.521,5.55l0.978,4.931l1.017,0.062l0.693-3.29c0.009-0.04,0.017-0.084,0.023-0.127c0.007-0.044,0.015-0.09,0.02-0.139
		c0.006-0.049,0.012-0.1,0.018-0.153c0.005-0.054,0.01-0.108,0.014-0.165l0.012-0.002c0.003,0.057,0.006,0.111,0.01,0.162
		c0.004,0.053,0.009,0.103,0.014,0.151c0.006,0.049,0.013,0.097,0.02,0.142c0.008,0.045,0.016,0.088,0.023,0.13l0.704,3.389
		l1.104,0.067l1.23-5.514L9.338,5.259z"/>
</g>
</svg>
