<?xml version="1.0" encoding="iso-8859-1"?>
<!-- Generator: Adobe Illustrator 20.1.0, SVG Export Plug-In . SVG Version: 6.00 Build 0)  -->
<svg version="1.1" xmlns="http://www.w3.org/2000/svg" xmlns:xlink="http://www.w3.org/1999/xlink" x="0px" y="0px"
	 viewBox="0 0 16 16" style="enable-background:new 0 0 16 16;" xml:space="preserve">
<g id="outline">
	<rect style="opacity:0;fill-rule:evenodd;clip-rule:evenodd;fill:#252526;" width="16" height="16"/>
	<polygon style="fill-rule:evenodd;clip-rule:evenodd;fill:#252526;" points="3,14.316 3,1.682 14.079,0.034 14.079,15.967 	"/>
</g>
<g id="color_x5F_decoration">
	<g>
		<path style="fill:#dd6145;" d="M9.222,5.614C9.11,5.51,8.971,5.435,8.805,5.387C8.641,5.339,8.447,5.319,8.229,5.328L7.592,5.351
			v2.553l0.638-0.001c0.218,0,0.411-0.028,0.575-0.083C8.971,7.765,9.11,7.682,9.222,7.571C9.333,7.46,9.417,7.322,9.474,7.156
			C9.53,6.99,9.56,6.796,9.56,6.575c0-0.215-0.029-0.404-0.086-0.564C9.417,5.85,9.333,5.718,9.222,5.614z"/>
		<path style="fill:#dd6145;" d="M4,2.549v10.9l9,1.363V1.187L4,2.549z M11.333,7.072c-0.033,0.192-0.084,0.374-0.152,0.546
			c-0.068,0.172-0.152,0.334-0.254,0.487c-0.1,0.15-0.219,0.292-0.354,0.424c-0.139,0.137-0.291,0.254-0.453,0.357
			c-0.164,0.1-0.336,0.182-0.521,0.246C9.413,9.199,9.218,9.246,9.014,9.277C8.809,9.307,8.592,9.32,8.367,9.318L7.592,9.305v2.822
			l-1.573-0.088V4.022l2.495-0.139C8.979,3.856,9.39,3.889,9.743,3.982c0.357,0.093,0.66,0.247,0.904,0.461
			c0.244,0.216,0.43,0.492,0.553,0.83c0.123,0.338,0.186,0.737,0.186,1.194C11.386,6.679,11.368,6.88,11.333,7.072z"/>
	</g>
</g>
<g id="not_x5F_fg">
	<path style="fill:#252526;" d="M7.591,7.904V5.351l0.638-0.023C8.448,5.319,8.64,5.339,8.805,5.387
		C8.971,5.435,9.11,5.51,9.222,5.614C9.333,5.718,9.417,5.85,9.474,6.01C9.53,6.171,9.56,6.359,9.56,6.575
		c0,0.221-0.029,0.415-0.086,0.581C9.417,7.322,9.333,7.46,9.222,7.571C9.11,7.682,8.971,7.765,8.805,7.82
		C8.64,7.875,8.448,7.903,8.229,7.903L7.591,7.904 M8.514,3.883L6.019,4.022v8.017l1.573,0.088V9.305l0.775,0.014
		C8.592,9.32,8.808,9.307,9.014,9.277c0.204-0.031,0.399-0.078,0.585-0.145c0.186-0.064,0.357-0.146,0.521-0.247
		c0.162-0.103,0.314-0.221,0.453-0.357c0.135-0.131,0.254-0.273,0.354-0.424c0.102-0.152,0.186-0.314,0.254-0.486
		c0.068-0.172,0.119-0.354,0.152-0.546c0.035-0.192,0.053-0.394,0.053-0.605c0-0.458-0.062-0.856-0.186-1.194
		c-0.123-0.337-0.309-0.614-0.553-0.83c-0.244-0.215-0.547-0.368-0.904-0.461C9.39,3.889,8.979,3.856,8.514,3.883"/>
</g>
</svg>
