<?xml version="1.0" encoding="iso-8859-1"?>
<!-- Generator: Adobe Illustrator 20.1.0, SVG Export Plug-In . SVG Version: 6.00 Build 0)  -->
<svg version="1.1" xmlns="http://www.w3.org/2000/svg" xmlns:xlink="http://www.w3.org/1999/xlink" x="0px" y="0px"
	 viewBox="0 0 16 16" style="enable-background:new 0 0 16 16;" xml:space="preserve">
<g id="outline">
	<rect style="opacity:0;fill:#252526;" width="16" height="16"/>
	<polygon style="fill-rule:evenodd;clip-rule:evenodd;fill:#252526;" points="3,14.316 3,1.682 14.079,0.034 14.079,15.967 	"/>
</g>
<g id="color_x5F_decoration">
	<path style="fill:#8199dd;" d="M4,2.549v10.9l9,1.363V1.187L4,2.549z M9.317,11.998l-1.633-0.059L5.533,4.002L7.064,4.02
		l1.328,5.534c0.073,0.301,0.117,0.565,0.129,0.795l0.027,0.001c0.021-0.254,0.066-0.523,0.138-0.81l1.331-5.486l1.528,0.018
		L9.317,11.998z"/>
</g>
<g id="not_x5F_fg">
	<path style="fill:#252526;" d="M11.546,4.072l-2.229,7.926l-1.633-0.059L5.533,4.002L7.064,4.02l1.328,5.534
		c0.073,0.301,0.117,0.565,0.129,0.795l0.027,0.001c0.021-0.254,0.066-0.523,0.138-0.81l1.331-5.486L11.546,4.072z"/>
</g>
</svg>
