<?xml version="1.0" encoding="iso-8859-1"?>
<!-- Generator: Adobe Illustrator 20.1.0, SVG Export Plug-In . SVG Version: 6.00 Build 0)  -->
<svg version="1.1" xmlns="http://www.w3.org/2000/svg" xmlns:xlink="http://www.w3.org/1999/xlink" x="0px" y="0px"
	 viewBox="0 0 16 16" style="enable-background:new 0 0 16 16;" xml:space="preserve">
<g id="outline">
	<rect style="opacity:0;fill:#F6F6F6;" width="16" height="16"/>
	<path style="fill:#F6F6F6;" d="M16,3h-4.93c-0.297-0.17-0.611-0.318-0.947-0.431C9.504,2.357,8.837,2.25,8.143,2.25
		c-0.552,0-1.078,0.067-1.561,0.199C6.102,2.579,5.658,2.766,5.256,3H0v10h7.369c0.204,0.019,0.402,0.051,0.614,0.051
		c0.335,0,0.641-0.014,0.91-0.041c0.026-0.002,0.046-0.007,0.072-0.01H16V3z"/>
</g>
<g id="icon_x5F_bg">
</g>
<g id="icon_x5F_fg">
	<path style="fill:#656565;" d="M12.318,4c0.25,0,0.475,0.616,0.648,0.977C12.971,4.984,12.971,5,12.975,5H14v6h-2v1h3V4H12.318z"/>
	<path style="fill:#656565;" d="M3.648,11H2V5h1c0,0,0,0.049,0,0.048C3,4.689,3.714,4,3.986,4H1v8h3v-0.535
		C3.874,11.334,3.758,11,3.648,11z"/>
	<path style="fill:#656565;" d="M12.155,5.416c-0.231-0.482-0.546-0.892-0.939-1.226c-0.396-0.335-0.856-0.592-1.383-0.77
		C9.306,3.24,8.743,3.15,8.143,3.15c-0.472,0-0.912,0.055-1.325,0.167C6.405,3.429,6.027,3.587,5.684,3.79
		c-0.343,0.202-0.65,0.447-0.923,0.733C4.489,4.809,4.26,5.125,4.076,5.473C3.89,5.819,3.746,6.193,3.648,6.591
		C3.548,6.99,3.5,7.406,3.5,7.838c0,0.652,0.11,1.248,0.332,1.777c0.22,0.531,0.531,0.982,0.928,1.361
		c0.397,0.377,0.872,0.666,1.417,0.869c0.547,0.203,1.151,0.305,1.807,0.305c0.302,0,0.577-0.012,0.823-0.035
		c0.246-0.023,0.468-0.057,0.665-0.092c0.194-0.037,0.365-0.078,0.512-0.125c0.148-0.049,0.274-0.094,0.376-0.139v-0.854
		c-0.146,0.062-0.301,0.125-0.463,0.184c-0.16,0.055-0.336,0.104-0.52,0.141c-0.188,0.039-0.387,0.07-0.605,0.09
		c-0.213,0.025-0.448,0.033-0.7,0.033c-0.562,0-1.064-0.088-1.508-0.264c-0.443-0.176-0.817-0.42-1.126-0.73
		c-0.309-0.314-0.544-0.686-0.708-1.123C4.568,8.801,4.487,8.322,4.487,7.803c0-0.545,0.09-1.051,0.272-1.521
		c0.182-0.471,0.435-0.879,0.758-1.224C5.842,4.712,6.226,4.44,6.673,4.242C7.119,4.045,7.606,3.948,8.13,3.948
		c0.419,0,0.797,0.044,1.123,0.136c0.328,0.091,0.619,0.215,0.87,0.369C10.377,4.611,10.589,4.792,10.766,5
		c0.179,0.208,0.324,0.431,0.438,0.666c0.112,0.237,0.193,0.48,0.246,0.732c0.05,0.254,0.075,0.5,0.075,0.74
		c0,0.344-0.033,0.654-0.102,0.926c-0.068,0.275-0.158,0.504-0.269,0.695c-0.109,0.189-0.24,0.334-0.386,0.432
		c-0.146,0.1-0.295,0.15-0.453,0.15c-0.079,0-0.149-0.018-0.215-0.045c-0.066-0.029-0.119-0.08-0.165-0.158
		C9.89,9.064,9.854,8.963,9.828,8.834C9.803,8.709,9.789,8.543,9.789,8.342c0-0.062,0.008-0.17,0.018-0.324
		c0.009-0.152,0.026-0.33,0.041-0.531C9.863,7.285,9.883,7.07,9.903,6.844C9.921,6.617,9.94,6.399,9.96,6.196
		C9.978,5.991,9.993,5.81,10.009,5.65c0.015-0.159,0.023-0.274,0.026-0.345H9.116l-0.054,0.6H9.042
		C9.016,5.803,8.971,5.71,8.905,5.624C8.842,5.541,8.765,5.469,8.672,5.408C8.581,5.348,8.479,5.303,8.365,5.268
		C8.25,5.235,8.127,5.22,7.996,5.22c-0.336,0-0.645,0.071-0.923,0.216c-0.281,0.145-0.519,0.344-0.721,0.6
		C6.151,6.289,5.996,6.59,5.886,6.939c-0.114,0.35-0.169,0.727-0.169,1.135c0,0.344,0.045,0.643,0.134,0.9
		c0.089,0.26,0.211,0.473,0.36,0.646c0.153,0.172,0.329,0.301,0.534,0.383c0.2,0.084,0.416,0.129,0.641,0.129
		c0.176,0,0.342-0.027,0.499-0.082C8.04,10,8.187,9.922,8.316,9.818c0.134-0.104,0.248-0.23,0.348-0.381
		C8.766,9.289,8.846,9.115,8.901,8.92h0.026c0,0.375,0.101,0.674,0.308,0.893c0.206,0.219,0.501,0.328,0.888,0.328
		c0.292,0,0.58-0.062,0.862-0.197c0.284-0.131,0.537-0.328,0.764-0.586c0.221-0.262,0.404-0.582,0.543-0.965
		C12.43,8.006,12.5,7.561,12.5,7.051C12.5,6.445,12.383,5.9,12.155,5.416z M8.847,7.965C8.792,8.242,8.712,8.482,8.602,8.684
		c-0.11,0.203-0.246,0.363-0.408,0.482C8.031,9.281,7.841,9.342,7.622,9.342c-0.12,0-0.236-0.027-0.344-0.08
		c-0.109-0.051-0.206-0.129-0.289-0.23C6.908,8.928,6.841,8.797,6.792,8.641C6.745,8.484,6.72,8.305,6.72,8.094
		c0-0.236,0.027-0.48,0.08-0.729c0.056-0.248,0.137-0.473,0.25-0.678c0.11-0.199,0.25-0.363,0.417-0.491
		c0.165-0.128,0.36-0.192,0.581-0.192c0.123,0,0.235,0.021,0.34,0.062c0.107,0.043,0.198,0.107,0.279,0.197
		c0.08,0.086,0.145,0.197,0.189,0.33c0.044,0.133,0.07,0.293,0.07,0.48C8.927,7.391,8.897,7.689,8.847,7.965z"/>
</g>
</svg>
