<?xml version="1.0" encoding="iso-8859-1"?>
<!-- Generator: Adobe Illustrator 21.1.0, SVG Export Plug-In . SVG Version: 6.00 Build 0)  -->
<svg version="1.1" xmlns="http://www.w3.org/2000/svg" xmlns:xlink="http://www.w3.org/1999/xlink" x="0px" y="0px"
	 viewBox="0 0 16 16" style="enable-background:new 0 0 16 16;" xml:space="preserve">
<g id="icon_x5F_bg">
	<g>
		<path style="fill:#656565;" d="M11.639,1H5.964C5.964,1,5,1,5,2c0,0.508,0,3.337,0,6h1V2h5v3h3v3v1.001v3v0.994
			c0.961-0.025,1-0.994,1-0.994V4L11.639,1z"/>
	</g>
</g>
<g id="icon_x5F_fg">
	<g>
		<path style="fill:#F3F3F3;" d="M6,2v6h8V5h-3V2"/>
	</g>
	<path style="fill:#D34927;" d="M1,9v6h12V9H1z M3,12.995V14H2v-4h1.683c0.401,0,0.721,0.34,0.959,0.586
		C4.881,10.831,5,11.15,5,11.542s-0.118,0.701-0.354,0.929c-0.236,0.226-0.562,0.525-0.98,0.525H3z M3,12.124h0.535
		c0.148,0,0.263-0.051,0.344-0.151C3.96,11.871,4,11.725,4,11.533c0-0.2-0.041-0.359-0.124-0.477
		c-0.083-0.118-0.194-0.178-0.333-0.18H3V12.124z M6,14v-4h1.221c0.539,0,0.969,0.148,1.289,0.445c0.32,0.297,0.484,0.703,0.49,1.22
		v0.648c0,0.526-0.16,0.938-0.48,1.238S7.758,14,7.196,14H6z M7,10.672v2.656h0.279c0.31,0,0.462-0.069,0.589-0.211
		c0.127-0.142,0.194-0.386,0.2-0.734v-0.696c0-0.374-0.06-0.634-0.181-0.781c-0.12-0.147-0.258-0.226-0.548-0.234H7z M12,12.703h-1
		V14h-1v-4h2v1.009h-1V12h1V12.703z"/>
</g>
</svg>
