<?xml version="1.0" encoding="iso-8859-1"?>
<!-- Generator: Adobe Illustrator 20.1.0, SVG Export Plug-In . SVG Version: 6.00 Build 0)  -->
<svg version="1.1" xmlns="http://www.w3.org/2000/svg" xmlns:xlink="http://www.w3.org/1999/xlink" x="0px" y="0px"
	 viewBox="0 0 16 16" style="enable-background:new 0 0 16 16;" xml:space="preserve">
<g id="outline">
	<rect style="opacity:0;fill:#000000;" width="16" height="16"/>
	<path style="fill:#000000;" d="M15,6.5C15,3.462,12.537,1,9.5,1C7.981,1,6.606,1.616,5.611,2.611l0.002,0.002
		C4.617,3.609,4,4.984,4,6.5c0,0.37,0.043,0.742,0.13,1.127l-3.25,3.25C0.312,11.445,0,12.199,0,13c0,1.654,1.346,3,3,3
		c0.803,0,1.558-0.312,2.122-0.881l3.251-3.25C8.758,11.957,9.131,12,9.5,12c1.516,0,2.891-0.617,3.887-1.613l0.002,0.002
		C14.385,9.394,15,8.019,15,6.5z"/>
</g>
<g id="icon_x5F_bg">
	<path style="fill:#FFFFFF;" d="M10,8L8,6l3.508-3.507C10.9,2.188,10.226,2,9.5,2C7.015,2,5,4.015,5,6.5
		C5,7,5.101,7.472,5.251,7.921c-1.099,1.099-2.177,2.176-3.664,3.663C1.225,11.947,1,12.447,1,13c0,1.104,0.896,2,2,2
		c0.553,0,1.054-0.225,1.415-0.588c1.487-1.486,2.565-2.564,3.664-3.663C8.528,10.899,9,11,9.5,11c2.485,0,4.5-2.015,4.5-4.5
		c0-0.726-0.188-1.401-0.492-2.007L10,8z"/>
</g>
</svg>
