<?xml version="1.0" encoding="iso-8859-1"?>
<!-- Generator: Adobe Illustrator 20.1.0, SVG Export Plug-In . SVG Version: 6.00 Build 0)  -->
<svg version="1.1" xmlns="http://www.w3.org/2000/svg" xmlns:xlink="http://www.w3.org/1999/xlink" x="0px" y="0px"
	 viewBox="0 0 16 16" style="enable-background:new 0 0 16 16;" xml:space="preserve">
<g id="outline">
	<rect style="opacity:0;fill:#F6F6F6;" width="16" height="16"/>
	<path style="fill:#F6F6F6;" d="M16,5V3c0-1.654-1.346-3-3-3H6C3.794,0,2,1.794,2,4v4H0v2v1.5V16h14V8h-1V5H16z"/>
</g>
<g id="iconBg">
	<path style="fill:#656565;" d="M13,1H6C4.343,1,3,2.343,3,4v4h2V4c0-0.553,0.447-1,1-1h5v5h1V4h3V3C15,1.895,14.104,1,13,1z"/>
	<path style="fill:#656565;" d="M1,9v6h12V9H1z"/>
	<g>
		<path style="fill:#F3F3F3;" d="M2.815,12.579v1.4H2V10h1.375c0.399,0,0.718,0.122,0.955,0.366
			c0.238,0.244,0.357,0.561,0.357,0.951c0,0.391-0.118,0.698-0.352,0.924c-0.235,0.226-0.561,0.338-0.977,0.338H2.815z
			 M2.815,11.929h0.56c0.156,0,0.276-0.051,0.361-0.152c0.085-0.101,0.128-0.248,0.128-0.442c0-0.2-0.044-0.36-0.131-0.479
			c-0.087-0.118-0.203-0.178-0.349-0.18H2.815V11.929z"/>
		<path style="fill:#F3F3F3;" d="M8.303,10v2.732c-0.004,0.41-0.118,0.724-0.341,0.942C7.739,13.891,7.418,14,7.001,14
			c-0.426,0-0.749-0.11-0.975-0.331c-0.224-0.22-0.336-0.539-0.336-0.956V10h0.806v2.716c0,0.224,0.036,0.384,0.109,0.48
			c0.072,0.095,0.204,0.144,0.395,0.144s0.321-0.048,0.392-0.143c0.07-0.094,0.107-0.25,0.109-0.468V10H8.303z"/>
		<path style="fill:#F3F3F3;" d="M12,13.506c-0.151,0.164-0.337,0.287-0.557,0.37C11.224,13.959,10.983,14,10.721,14
			c-0.447,0-0.794-0.138-1.041-0.416c-0.248-0.277-0.375-0.68-0.383-1.21v-0.7c0-0.537,0.117-0.95,0.352-1.239
			C9.883,10.145,10.225,10,10.674,10c0.422,0,0.74,0.104,0.954,0.313c0.214,0.209,0.339,0.536,0.372,0.982h-0.763
			c-0.021-0.248-0.074-0.417-0.155-0.507c-0.082-0.089-0.209-0.135-0.384-0.135c-0.211,0-0.366,0.078-0.462,0.233
			c-0.096,0.155-0.146,0.402-0.149,0.74v0.707c0,0.354,0.052,0.612,0.158,0.774c0.106,0.161,0.28,0.242,0.522,0.242
			c0.155,0,0.28-0.032,0.376-0.094l0.07-0.048v-0.714h-0.55v-0.594H12V13.506z"/>
	</g>
</g>
<g id="iconFg">
	<path style="fill:#F3F3F3;" d="M11,8V3H6C5.447,3,5,3.447,5,4v4H11z"/>
	<g>
		<path style="fill:#F3F3F3;" d="M2.815,12.593V14H2v-4h1.375c0.399,0,0.718,0.123,0.955,0.368c0.238,0.245,0.357,0.564,0.357,0.956
			c0,0.393-0.118,0.702-0.352,0.929c-0.235,0.227-0.561,0.34-0.977,0.34H2.815z M2.815,11.92h0.56c0.156,0,0.276-0.051,0.361-0.151
			c0.085-0.101,0.128-0.247,0.128-0.44c0-0.199-0.044-0.358-0.131-0.477c-0.087-0.118-0.203-0.177-0.349-0.179H2.815V11.92z"/>
		<path style="fill:#F3F3F3;" d="M8.303,10v2.732c-0.004,0.41-0.118,0.724-0.341,0.942C7.739,13.891,7.418,14,7.001,14
			c-0.426,0-0.749-0.11-0.975-0.331c-0.224-0.22-0.336-0.539-0.336-0.956V10h0.806v2.716c0,0.224,0.036,0.384,0.109,0.48
			c0.072,0.095,0.204,0.144,0.395,0.144s0.321-0.048,0.392-0.143c0.07-0.094,0.107-0.25,0.109-0.468V10H8.303z"/>
		<path style="fill:#F3F3F3;" d="M12,13.501c-0.151,0.164-0.337,0.287-0.557,0.37s-0.461,0.124-0.722,0.124
			c-0.447,0-0.794-0.138-1.041-0.415c-0.248-0.276-0.375-0.679-0.383-1.208v-0.699c0-0.536,0.117-0.949,0.352-1.237
			C9.883,10.145,10.225,10,10.674,10c0.422,0,0.74,0.104,0.954,0.313c0.214,0.209,0.339,0.535,0.372,0.98h-0.763
			c-0.021-0.248-0.074-0.416-0.155-0.506c-0.082-0.089-0.209-0.135-0.384-0.135c-0.211,0-0.366,0.078-0.462,0.233
			c-0.096,0.155-0.146,0.401-0.149,0.739v0.706c0,0.354,0.052,0.612,0.158,0.773s0.28,0.242,0.522,0.242
			c0.155,0,0.28-0.032,0.376-0.094l0.07-0.047v-0.713h-0.55v-0.593H12V13.501z"/>
	</g>
</g>
</svg>
