<?xml version="1.0" encoding="iso-8859-1"?>
<!-- Generator: Adobe Illustrator 20.1.0, SVG Export Plug-In . SVG Version: 6.00 Build 0)  -->
<svg version="1.1" xmlns="http://www.w3.org/2000/svg" xmlns:xlink="http://www.w3.org/1999/xlink" x="0px" y="0px"
	 viewBox="0 0 16 16" style="enable-background:new 0 0 16 16;" xml:space="preserve">
<g id="outline">
	<rect style="opacity:0;fill:#252526;" width="16" height="16"/>
	<path style="fill:#252526;" d="M14.684,5.641c0-0.87-0.429-1.604-1.207-2.069C12.833,3.187,11.992,3,10.908,3H7v0.464
		C6.457,3.185,5.717,3,4.701,3H1v9h3.704v-1.75L5.848,12H7h3.25h0.82c1.117,0,2.035-0.254,2.727-0.752
		C14.584,10.685,15,9.876,15,8.91c0-0.71-0.281-1.345-0.812-1.835C14.513,6.657,14.684,6.168,14.684,5.641z"/>
</g>
<g id="icon_x5F_bg">
	<path style="fill:#C5C5C5;" d="M13.49,7.794c-0.339-0.307-0.794-0.491-1.361-0.553v-0.02c0.453-0.11,0.824-0.308,1.116-0.591
		c0.292-0.283,0.439-0.613,0.439-0.99c0-0.521-0.24-0.925-0.719-1.211C12.484,4.144,11.799,4,10.908,4H8v6.5L6.916,8.93
		C6.842,8.822,6.76,8.713,6.67,8.601C6.58,8.489,6.486,8.383,6.389,8.286c-0.1-0.098-0.201-0.184-0.307-0.257
		C5.977,7.956,5.867,7.904,5.756,7.871v-0.02c0.256-0.069,0.488-0.162,0.697-0.283c0.21-0.119,0.389-0.264,0.535-0.431
		c0.148-0.164,0.263-0.351,0.344-0.559c0.081-0.206,0.121-0.432,0.121-0.675C7.453,4.635,6.535,4,4.701,4H2v7h1.704V8.32h0.458
		c0.105,0,0.203,0.02,0.293,0.062c0.09,0.04,0.176,0.098,0.258,0.176c0.083,0.075,0.165,0.167,0.246,0.275
		C5.04,8.94,5.124,9.063,5.212,9.199L6.389,11H8h0.345h2.726c0.906,0,1.621-0.188,2.144-0.564C13.738,10.061,14,9.552,14,8.91
		C14,8.472,13.83,8.1,13.49,7.794z M5.322,6.837C5.102,7.031,4.808,7.13,4.442,7.13H3.704V5.182h0.77
		c0.791,0,1.187,0.305,1.187,0.917C5.66,6.392,5.547,6.639,5.322,6.837z M9.8,5.162h0.675c0.876,0,1.314,0.256,1.314,0.771
		c0,0.275-0.108,0.493-0.32,0.651c-0.215,0.157-0.507,0.236-0.878,0.236H9.8V5.162z M11.752,9.584
		c-0.236,0.17-0.561,0.254-0.978,0.254H9.8V7.993h0.985c0.416,0,0.74,0.08,0.973,0.238c0.232,0.161,0.349,0.38,0.349,0.659
		C12.106,9.184,11.988,9.415,11.752,9.584z"/>
</g>
</svg>
