<?xml version="1.0" encoding="iso-8859-1"?>
<!-- Generator: Adobe Illustrator 20.1.0, SVG Export Plug-In . SVG Version: 6.00 Build 0)  -->
<svg version="1.1" id="Layer_1" xmlns="http://www.w3.org/2000/svg" xmlns:xlink="http://www.w3.org/1999/xlink" x="0px" y="0px"
	 viewBox="0 0 16 16" style="enable-background:new 0 0 16 16;" xml:space="preserve">
<path style="fill:#F6F6F6;" d="M16,8c0,0.312-0.021,0.618-0.057,0.92l-0.07,0.62l-2.235,0.795l1.017,2.139l-0.386,0.488
	c-0.381,0.482-0.82,0.922-1.305,1.306l-0.488,0.388l-2.14-1.019L9.542,15.87l-0.618,0.072C8.621,15.979,8.313,16,8,16
	c-0.311,0-0.617-0.021-0.919-0.057l-0.62-0.07l-0.795-2.235l-2.141,1.018l-0.488-0.388c-0.483-0.383-0.922-0.821-1.305-1.305
	l-0.387-0.488l1.017-2.14L0.127,9.54L0.056,8.92C0.022,8.618,0,8.312,0,8s0.022-0.618,0.056-0.92l0.071-0.62l2.235-0.795
	l-1.017-2.14l0.387-0.488c0.384-0.484,0.823-0.923,1.305-1.305l0.488-0.386l2.141,1.018L6.46,0.128l0.62-0.071
	C7.383,0.022,7.689,0,8,0c0.312,0,0.619,0.022,0.923,0.057l0.618,0.071l0.794,2.234l2.141-1.017l0.488,0.386
	c0.482,0.382,0.922,0.822,1.305,1.306l0.386,0.488l-1.017,2.139l2.235,0.795l0.07,0.62C15.979,7.382,16,7.688,16,8z"/>
<path style="fill:#BD1E2D;" d="M14.95,8.807C14.981,8.542,15,8.273,15,8s-0.019-0.542-0.05-0.807l-2.236-0.795
	c-0.07-0.207-0.15-0.407-0.246-0.601l1.017-2.139c-0.335-0.423-0.718-0.807-1.142-1.142l-2.14,1.017
	c-0.193-0.096-0.393-0.176-0.6-0.246L8.808,1.05C8.542,1.02,8.273,1,8,1C7.728,1,7.459,1.02,7.194,1.05L6.399,3.286
	c-0.208,0.071-0.408,0.15-0.602,0.247l-2.14-1.017C3.234,2.851,2.852,3.234,2.516,3.658l1.017,2.139
	c-0.096,0.194-0.177,0.393-0.247,0.6L1.05,7.193C1.02,7.458,1,7.727,1,8s0.02,0.542,0.05,0.807l2.236,0.795
	c0.07,0.207,0.15,0.407,0.246,0.601l-1.017,2.139c0.336,0.424,0.719,0.807,1.143,1.143l2.14-1.017
	c0.193,0.097,0.395,0.176,0.602,0.247l0.795,2.235C7.459,14.98,7.728,15,8,15c0.273,0,0.542-0.02,0.808-0.051l0.795-2.235
	c0.207-0.071,0.407-0.15,0.601-0.247l2.14,1.018c0.424-0.336,0.807-0.719,1.142-1.143l-1.017-2.139
	c0.096-0.193,0.176-0.393,0.246-0.601L14.95,8.807z M8,12c-2.209,0-4-1.791-4-4s1.791-4,4-4s4,1.791,4,4S10.209,12,8,12z"/>
<path style="fill:#BD1E2D;" d="M8,9.5H7.238V8.656h0.807c0.074,0,0.394,0.032,0.496,0.656c0.032,0.192,0.102,0.816,0.151,1.016
	C8.74,10.552,8.935,11,9.143,11h1.243c0.35-0.696,0.572-1.547,0.614-2.472h-0.262c-0.032,0-0.045,0.032-0.045,0.08v0.224
	c0,0.528-0.195,0.643-0.366,0.672C10.164,9.532,9.983,9.4,9.961,9.248C9.865,8.424,9.753,8.304,9.5,8
	c0.314-0.304,0.592-0.808,0.592-1.408c0-0.648-0.291-1.056-0.49-1.256C9.323,5.056,9.015,5,8.932,5H5.74
	C5.477,5.412,5.148,5.963,5,6.5h0.835v3.006L5.008,9.505c0.106,0.557,0.27,1.046,0.496,1.495H8V9.5z M8.221,7.368H7.244V6.472h1.054
	c0.054,0,0.384,0.096,0.384,0.472C8.682,7.256,8.429,7.368,8.221,7.368z"/>
</svg>
