<?xml version="1.0" encoding="iso-8859-1"?>
<!-- Generator: Adobe Illustrator 20.1.0, SVG Export Plug-In . SVG Version: 6.00 Build 0)  -->
<svg version="1.1" xmlns="http://www.w3.org/2000/svg" xmlns:xlink="http://www.w3.org/1999/xlink" x="0px" y="0px"
	 viewBox="0 0 16 16" style="enable-background:new 0 0 16 16;" xml:space="preserve">
<g id="outline">
	<rect style="opacity:0;fill:#252526;" width="16" height="16"/>
	<path style="fill:#252526;" d="M12.061,0H6C5.03,0,4,0.702,4,2v6H0V16h14v-1.999c1.299,0,2-1.031,2-2V3.556L12.061,0z"/>
</g>
<g id="icon_x5F_bg">
	<g>
		<rect x="7" y="3" style="fill:#C5C5C5;" width="1" height="1"/>
		<rect x="7" y="5" style="fill:#C5C5C5;" width="1" height="1"/>
		<path style="fill:#C5C5C5;" d="M11.639,1H5.964C5.964,1,5,1,5,2c0,0.508,0,3.337,0,6h1V2h5v3h3v3v1.001v3v0.994
			c0.961-0.025,1-0.994,1-0.994V4L11.639,1z"/>
		<polygon style="fill:#C5C5C5;" points="10.998,8 12.029,7 12.028,8 13,8 13,6 11.705,6 9.598,8 		"/>
		<rect x="7" y="7" style="fill:#C5C5C5;" width="1" height="1"/>
	</g>
</g>
<g id="color_x5F_importance">
	<path style="fill:#CC6699;" d="M5.786,11.004c-0.006-0.033-0.011-0.066-0.014-0.096c-0.003-0.028-0.007-0.057-0.009-0.081
		c-0.001-0.024-0.003-0.042-0.005-0.056H5.74c-0.002,0.026-0.007,0.072-0.015,0.131c-0.007,0.062-0.019,0.122-0.035,0.184
		l-0.334,1.268h0.78l-0.331-1.257C5.798,11.068,5.792,11.036,5.786,11.004z"/>
	<path style="fill:#CC6699;" d="M1,9v6h12V9H1z M4.034,13.127c-0.017,0.09-0.044,0.176-0.083,0.259
		c-0.039,0.084-0.088,0.163-0.15,0.237c-0.062,0.074-0.139,0.14-0.229,0.194c-0.091,0.056-0.197,0.101-0.318,0.135
		C3.132,13.983,2.993,14,2.836,14c-0.07,0-0.146-0.007-0.228-0.019c-0.083-0.012-0.162-0.029-0.238-0.052
		c-0.076-0.021-0.145-0.045-0.207-0.072c-0.062-0.029-0.108-0.056-0.141-0.086v-0.849c0.047,0.053,0.104,0.105,0.17,0.153
		c0.067,0.049,0.139,0.092,0.216,0.128c0.077,0.038,0.155,0.067,0.236,0.091c0.081,0.02,0.157,0.031,0.229,0.031
		c0.081,0,0.148-0.012,0.201-0.035c0.053-0.023,0.096-0.052,0.127-0.091c0.032-0.036,0.054-0.076,0.067-0.123
		c0.013-0.045,0.018-0.093,0.018-0.139c0-0.067-0.012-0.124-0.036-0.179c-0.024-0.053-0.059-0.103-0.106-0.152
		c-0.048-0.049-0.105-0.097-0.175-0.144c-0.07-0.048-0.151-0.099-0.245-0.153c-0.135-0.078-0.249-0.161-0.341-0.243
		c-0.092-0.085-0.167-0.173-0.223-0.266c-0.057-0.093-0.098-0.188-0.123-0.29c-0.024-0.1-0.037-0.205-0.037-0.317
		c0-0.171,0.027-0.326,0.082-0.464c0.054-0.14,0.132-0.259,0.232-0.358c0.1-0.099,0.221-0.175,0.363-0.229
		c0.142-0.055,0.299-0.08,0.472-0.08c0.078,0,0.156,0.004,0.231,0.012c0.075,0.008,0.146,0.017,0.212,0.029
		c0.066,0.014,0.126,0.027,0.181,0.045c0.054,0.017,0.099,0.032,0.134,0.049v0.831c-0.042-0.041-0.093-0.078-0.15-0.113
		c-0.058-0.036-0.12-0.066-0.186-0.094c-0.065-0.027-0.133-0.048-0.203-0.061c-0.07-0.016-0.137-0.022-0.203-0.022
		c-0.054,0-0.105,0.007-0.156,0.022c-0.05,0.014-0.094,0.038-0.133,0.068c-0.039,0.031-0.069,0.071-0.093,0.118
		c-0.023,0.048-0.035,0.105-0.035,0.172c0,0.063,0.01,0.124,0.031,0.178c0.02,0.052,0.051,0.101,0.09,0.147
		c0.04,0.044,0.091,0.09,0.151,0.129c0.062,0.042,0.131,0.086,0.211,0.133c0.147,0.085,0.272,0.171,0.376,0.258
		c0.104,0.086,0.19,0.178,0.256,0.273c0.066,0.096,0.115,0.196,0.146,0.3c0.032,0.105,0.047,0.217,0.047,0.335
		C4.06,12.952,4.051,13.037,4.034,13.127z M6.529,13.933l-0.222-0.864H5.195l-0.22,0.864H4.211l1.139-3.877h0.835l1.112,3.877H6.529
		z M9.576,13.127c-0.016,0.09-0.043,0.176-0.082,0.259c-0.039,0.084-0.088,0.163-0.15,0.237c-0.062,0.074-0.139,0.14-0.23,0.194
		c-0.088,0.056-0.196,0.101-0.317,0.135C8.676,13.983,8.537,14,8.379,14c-0.071,0-0.147-0.007-0.228-0.019
		c-0.082-0.012-0.162-0.029-0.238-0.052c-0.077-0.021-0.146-0.045-0.208-0.072c-0.062-0.029-0.109-0.056-0.14-0.086v-0.849
		c0.046,0.053,0.103,0.105,0.169,0.153c0.067,0.049,0.139,0.092,0.216,0.128c0.076,0.038,0.155,0.067,0.236,0.091
		c0.082,0.02,0.158,0.031,0.229,0.031c0.081,0,0.149-0.012,0.202-0.035c0.052-0.023,0.095-0.052,0.127-0.091
		c0.033-0.036,0.054-0.076,0.067-0.123c0.011-0.045,0.018-0.093,0.018-0.139c0-0.067-0.013-0.124-0.037-0.179
		c-0.024-0.053-0.059-0.103-0.106-0.152c-0.047-0.049-0.106-0.097-0.176-0.144c-0.07-0.048-0.151-0.099-0.244-0.153
		c-0.135-0.078-0.248-0.161-0.341-0.243C7.834,11.981,7.76,11.893,7.703,11.8c-0.056-0.093-0.097-0.188-0.122-0.29
		c-0.024-0.1-0.037-0.205-0.037-0.317c0-0.171,0.027-0.326,0.082-0.464c0.054-0.14,0.132-0.259,0.232-0.358
		c0.101-0.099,0.221-0.175,0.364-0.229c0.142-0.055,0.298-0.08,0.471-0.08c0.079,0,0.156,0.004,0.231,0.012s0.147,0.017,0.213,0.029
		c0.066,0.014,0.127,0.027,0.182,0.045c0.053,0.017,0.098,0.032,0.135,0.049v0.831c-0.043-0.041-0.094-0.078-0.152-0.113
		c-0.059-0.036-0.119-0.066-0.184-0.094c-0.066-0.027-0.135-0.048-0.204-0.061c-0.069-0.016-0.138-0.022-0.203-0.022
		c-0.052,0-0.105,0.007-0.155,0.022c-0.051,0.014-0.095,0.038-0.134,0.068c-0.04,0.031-0.07,0.071-0.092,0.118
		c-0.023,0.048-0.035,0.105-0.035,0.172c0,0.063,0.009,0.124,0.03,0.178c0.021,0.052,0.05,0.101,0.091,0.147
		c0.041,0.044,0.09,0.09,0.15,0.129c0.062,0.042,0.133,0.086,0.213,0.133c0.146,0.085,0.271,0.171,0.374,0.258
		c0.105,0.086,0.189,0.178,0.258,0.273c0.066,0.096,0.113,0.196,0.145,0.3c0.031,0.105,0.047,0.217,0.047,0.335
		C9.602,12.952,9.594,13.037,9.576,13.127z M11.975,13.127c-0.016,0.09-0.043,0.176-0.082,0.259
		c-0.039,0.084-0.09,0.163-0.149,0.237c-0.064,0.074-0.141,0.14-0.232,0.194c-0.09,0.056-0.197,0.101-0.316,0.135
		C11.074,13.983,10.936,14,10.777,14c-0.07,0-0.146-0.007-0.228-0.019c-0.08-0.012-0.162-0.029-0.236-0.052
		c-0.076-0.021-0.146-0.045-0.209-0.072c-0.061-0.029-0.107-0.056-0.141-0.086v-0.849c0.049,0.053,0.104,0.105,0.172,0.153
		c0.066,0.049,0.139,0.092,0.215,0.128c0.076,0.038,0.156,0.067,0.236,0.091c0.082,0.02,0.158,0.031,0.229,0.031
		c0.08,0,0.148-0.012,0.203-0.035c0.051-0.023,0.094-0.052,0.127-0.091c0.031-0.036,0.053-0.076,0.066-0.123
		c0.012-0.045,0.018-0.093,0.018-0.139c0-0.067-0.012-0.124-0.035-0.179c-0.025-0.053-0.061-0.103-0.108-0.152
		c-0.047-0.049-0.107-0.097-0.176-0.144c-0.068-0.048-0.15-0.099-0.244-0.153c-0.135-0.078-0.248-0.161-0.342-0.243
		c-0.094-0.085-0.166-0.173-0.225-0.266c-0.055-0.093-0.096-0.188-0.119-0.29c-0.027-0.1-0.037-0.205-0.037-0.317
		c0-0.171,0.025-0.326,0.082-0.464c0.053-0.14,0.131-0.259,0.231-0.358c0.101-0.099,0.223-0.175,0.365-0.229
		c0.141-0.055,0.297-0.08,0.469-0.08c0.08,0,0.156,0.004,0.234,0.012c0.074,0.008,0.145,0.017,0.211,0.029
		c0.066,0.014,0.127,0.027,0.182,0.045c0.053,0.017,0.098,0.032,0.135,0.049v0.831c-0.043-0.041-0.092-0.078-0.15-0.113
		c-0.061-0.036-0.121-0.066-0.186-0.094c-0.066-0.027-0.135-0.048-0.205-0.061c-0.068-0.016-0.137-0.022-0.201-0.022
		c-0.053,0-0.107,0.007-0.156,0.022c-0.049,0.014-0.094,0.038-0.133,0.068c-0.039,0.031-0.068,0.071-0.092,0.118
		c-0.023,0.048-0.037,0.105-0.037,0.172c0,0.063,0.012,0.124,0.031,0.178c0.021,0.052,0.051,0.101,0.092,0.147
		c0.039,0.044,0.09,0.09,0.148,0.129c0.064,0.042,0.133,0.086,0.213,0.133c0.148,0.085,0.273,0.171,0.375,0.258
		c0.105,0.086,0.191,0.178,0.258,0.273c0.066,0.096,0.113,0.196,0.144,0.3C11.984,12.639,12,12.75,12,12.868
		C12,12.952,11.992,13.037,11.975,13.127z"/>
</g>
<g id="icon_x5F_fg">
	<g>
		<g>
			<path style="fill:#252526;" d="M11,5V2H6v6h1V7h1v1h1.598l2.107-2H13v2h1V5H11z M8,6H7V5h1V6z M8,4H7V3h1V4z"/>
			<polygon style="fill:#252526;" points="12.028,8 12.029,7 10.998,8 			"/>
		</g>
		<g>
			<path style="fill:#252526;" d="M3.867,12.233c-0.066-0.096-0.152-0.188-0.256-0.273c-0.104-0.087-0.229-0.173-0.376-0.258
				c-0.08-0.047-0.15-0.091-0.211-0.133c-0.061-0.039-0.111-0.085-0.151-0.129c-0.04-0.046-0.07-0.095-0.09-0.147
				c-0.021-0.054-0.031-0.114-0.031-0.178c0-0.067,0.012-0.124,0.035-0.172c0.024-0.047,0.054-0.087,0.093-0.118
				c0.039-0.03,0.083-0.055,0.133-0.068c0.051-0.016,0.103-0.022,0.156-0.022c0.065,0,0.133,0.007,0.203,0.022
				c0.07,0.014,0.138,0.034,0.203,0.061c0.065,0.027,0.127,0.058,0.186,0.094c0.058,0.035,0.108,0.072,0.15,0.113v-0.831
				c-0.035-0.017-0.08-0.032-0.134-0.049c-0.055-0.018-0.115-0.031-0.181-0.045c-0.066-0.013-0.137-0.021-0.212-0.029
				c-0.075-0.008-0.153-0.012-0.231-0.012c-0.173,0-0.331,0.025-0.472,0.08c-0.142,0.055-0.264,0.131-0.363,0.229
				c-0.1,0.1-0.178,0.219-0.232,0.358c-0.054,0.138-0.082,0.293-0.082,0.464c0,0.112,0.013,0.218,0.037,0.317
				c0.024,0.102,0.065,0.197,0.123,0.29c0.056,0.093,0.13,0.181,0.223,0.266c0.093,0.082,0.207,0.165,0.341,0.243
				c0.093,0.055,0.174,0.105,0.245,0.153c0.07,0.048,0.127,0.096,0.175,0.144c0.047,0.049,0.083,0.1,0.106,0.152
				c0.024,0.055,0.036,0.111,0.036,0.179c0,0.046-0.005,0.094-0.018,0.139c-0.013,0.047-0.035,0.087-0.067,0.123
				c-0.031,0.039-0.074,0.067-0.127,0.091c-0.053,0.024-0.12,0.035-0.201,0.035c-0.072,0-0.148-0.012-0.229-0.031
				c-0.081-0.023-0.159-0.053-0.236-0.091c-0.078-0.036-0.149-0.079-0.216-0.128c-0.067-0.048-0.124-0.101-0.17-0.153v0.849
				c0.032,0.03,0.079,0.057,0.141,0.086c0.062,0.027,0.131,0.052,0.207,0.072c0.077,0.022,0.155,0.04,0.238,0.052
				C2.69,13.993,2.766,14,2.836,14c0.157,0,0.296-0.017,0.418-0.048c0.121-0.034,0.227-0.079,0.318-0.135
				c0.091-0.055,0.167-0.12,0.229-0.194c0.062-0.074,0.111-0.153,0.15-0.237c0.039-0.083,0.066-0.169,0.083-0.259
				c0.017-0.09,0.025-0.175,0.025-0.259c0-0.118-0.016-0.23-0.047-0.335C3.981,12.43,3.933,12.329,3.867,12.233z"/>
			<path style="fill:#252526;" d="M5.35,10.056l-1.139,3.877h0.763l0.22-0.864h1.112l0.222,0.864h0.768l-1.112-3.877H5.35z
				 M5.356,12.354l0.334-1.268c0.016-0.062,0.027-0.122,0.035-0.184c0.007-0.059,0.013-0.104,0.015-0.131h0.018
				c0.001,0.014,0.003,0.031,0.005,0.056c0.002,0.024,0.006,0.053,0.009,0.081c0.003,0.029,0.008,0.062,0.014,0.096
				c0.006,0.032,0.012,0.065,0.02,0.093l0.331,1.257H5.356z"/>
			<path style="fill:#252526;" d="M9.41,12.233c-0.068-0.096-0.152-0.188-0.258-0.273c-0.104-0.087-0.228-0.173-0.374-0.258
				c-0.08-0.047-0.151-0.091-0.213-0.133c-0.061-0.039-0.11-0.085-0.15-0.129c-0.041-0.046-0.07-0.095-0.091-0.147
				c-0.021-0.054-0.03-0.114-0.03-0.178c0-0.067,0.012-0.124,0.035-0.172c0.022-0.047,0.053-0.087,0.092-0.118
				c0.039-0.03,0.083-0.055,0.134-0.068c0.049-0.016,0.103-0.022,0.155-0.022c0.065,0,0.134,0.007,0.203,0.022
				c0.069,0.014,0.138,0.034,0.204,0.061c0.064,0.027,0.125,0.058,0.184,0.094c0.059,0.035,0.109,0.072,0.152,0.113v-0.831
				c-0.037-0.017-0.082-0.032-0.135-0.049c-0.055-0.018-0.115-0.031-0.182-0.045c-0.066-0.013-0.139-0.021-0.213-0.029
				s-0.152-0.012-0.231-0.012c-0.173,0-0.329,0.025-0.471,0.08c-0.143,0.055-0.264,0.131-0.364,0.229
				c-0.1,0.1-0.178,0.219-0.232,0.358c-0.055,0.138-0.082,0.293-0.082,0.464c0,0.112,0.013,0.218,0.037,0.317
				c0.025,0.102,0.066,0.197,0.122,0.29c0.057,0.093,0.131,0.181,0.224,0.266c0.093,0.082,0.206,0.165,0.341,0.243
				c0.093,0.055,0.174,0.105,0.244,0.153c0.069,0.048,0.128,0.096,0.176,0.144c0.047,0.049,0.083,0.1,0.106,0.152
				c0.023,0.055,0.037,0.111,0.037,0.179c0,0.046-0.007,0.094-0.018,0.139c-0.013,0.047-0.034,0.087-0.067,0.123
				c-0.033,0.039-0.075,0.067-0.127,0.091c-0.053,0.024-0.121,0.035-0.202,0.035c-0.071,0-0.147-0.012-0.229-0.031
				c-0.081-0.023-0.16-0.053-0.236-0.091c-0.078-0.036-0.149-0.079-0.216-0.128c-0.067-0.048-0.123-0.101-0.169-0.153v0.849
				c0.031,0.03,0.079,0.057,0.14,0.086c0.062,0.027,0.13,0.052,0.208,0.072c0.076,0.022,0.156,0.04,0.238,0.052
				C8.232,13.993,8.308,14,8.379,14c0.158,0,0.296-0.017,0.417-0.048c0.121-0.034,0.229-0.079,0.317-0.135
				c0.092-0.055,0.168-0.12,0.23-0.194c0.062-0.074,0.111-0.153,0.15-0.237c0.039-0.083,0.066-0.169,0.082-0.259
				c0.018-0.09,0.025-0.175,0.025-0.259c0-0.118-0.016-0.23-0.047-0.335C9.523,12.43,9.477,12.329,9.41,12.233z"/>
			<path style="fill:#252526;" d="M11.809,12.233c-0.066-0.096-0.152-0.188-0.258-0.273c-0.102-0.087-0.227-0.173-0.375-0.258
				c-0.08-0.047-0.149-0.091-0.213-0.133c-0.059-0.039-0.109-0.085-0.148-0.129c-0.041-0.046-0.07-0.095-0.092-0.147
				c-0.02-0.054-0.031-0.114-0.031-0.178c0-0.067,0.014-0.124,0.037-0.172c0.023-0.047,0.053-0.087,0.092-0.118
				c0.039-0.03,0.084-0.055,0.133-0.068c0.049-0.016,0.103-0.022,0.156-0.022c0.064,0,0.133,0.007,0.201,0.022
				c0.07,0.014,0.139,0.034,0.205,0.061c0.064,0.027,0.125,0.058,0.186,0.094c0.059,0.035,0.107,0.072,0.15,0.113v-0.831
				c-0.037-0.017-0.082-0.032-0.135-0.049c-0.055-0.018-0.115-0.031-0.182-0.045c-0.066-0.013-0.137-0.021-0.211-0.029
				c-0.078-0.008-0.154-0.012-0.234-0.012c-0.172,0-0.328,0.025-0.469,0.08c-0.143,0.055-0.264,0.131-0.365,0.229
				c-0.1,0.1-0.178,0.219-0.231,0.358c-0.057,0.138-0.082,0.293-0.082,0.464c0,0.112,0.01,0.218,0.037,0.317
				c0.023,0.102,0.064,0.197,0.119,0.29c0.059,0.093,0.131,0.181,0.225,0.266c0.094,0.082,0.207,0.165,0.342,0.243
				c0.094,0.055,0.176,0.105,0.244,0.153c0.068,0.048,0.129,0.096,0.176,0.144c0.047,0.049,0.082,0.1,0.108,0.152
				c0.023,0.055,0.035,0.111,0.035,0.179c0,0.046-0.006,0.094-0.018,0.139c-0.014,0.047-0.035,0.087-0.066,0.123
				c-0.033,0.039-0.076,0.067-0.127,0.091c-0.055,0.024-0.123,0.035-0.203,0.035c-0.07,0-0.146-0.012-0.229-0.031
				c-0.08-0.023-0.16-0.053-0.236-0.091c-0.076-0.036-0.148-0.079-0.215-0.128c-0.068-0.048-0.123-0.101-0.172-0.153v0.849
				c0.033,0.03,0.08,0.057,0.141,0.086c0.062,0.027,0.133,0.052,0.209,0.072c0.074,0.022,0.156,0.04,0.236,0.052
				C10.631,13.993,10.707,14,10.777,14c0.158,0,0.297-0.017,0.418-0.048c0.119-0.034,0.227-0.079,0.316-0.135
				c0.092-0.055,0.168-0.12,0.232-0.194c0.059-0.074,0.109-0.153,0.149-0.237c0.039-0.083,0.066-0.169,0.082-0.259
				C11.992,13.037,12,12.952,12,12.868c0-0.118-0.016-0.23-0.047-0.335C11.922,12.43,11.875,12.329,11.809,12.233z"/>
		</g>
	</g>
</g>
</svg>
