<?xml version="1.0" encoding="iso-8859-1"?>
<!-- Generator: Adobe Illustrator 20.1.0, SVG Export Plug-In . SVG Version: 6.00 Build 0)  -->
<svg version="1.1" xmlns="http://www.w3.org/2000/svg" xmlns:xlink="http://www.w3.org/1999/xlink" x="0px" y="0px"
	 viewBox="0 0 16 16" style="enable-background:new 0 0 16 16;" xml:space="preserve">
<g id="canvas">
	<path style="opacity:0;fill:#F6F6F6;" d="M16,16H0V0h16V16z"/>
</g>
<g id="outline">
	<path style="fill:#F6F6F6;" d="M16,8c0,0.312-0.021,0.618-0.057,0.92l-0.07,0.62l-2.235,0.795l1.017,2.139l-0.386,0.488
		c-0.381,0.482-0.82,0.922-1.305,1.306l-0.488,0.388l-2.14-1.019L9.542,15.87l-0.618,0.072C8.621,15.979,8.313,16,8,16
		c-0.311,0-0.617-0.021-0.919-0.057l-0.62-0.07l-0.795-2.235l-2.141,1.018l-0.488-0.388c-0.483-0.383-0.922-0.821-1.305-1.305
		l-0.387-0.488l1.017-2.14L0.127,9.54L0.056,8.92C0.022,8.618,0,8.312,0,8s0.022-0.618,0.056-0.92l0.071-0.62l2.235-0.795
		l-1.017-2.14l0.387-0.488c0.384-0.484,0.823-0.923,1.305-1.305l0.488-0.386l2.141,1.018l0.794-2.236l0.62-0.071
		C7.383,0.022,7.689,0,8,0c0.312,0,0.619,0.022,0.923,0.057l0.618,0.071l0.794,2.234l2.141-1.017l0.488,0.386
		c0.482,0.382,0.922,0.822,1.305,1.306l0.386,0.488l-1.017,2.139l2.235,0.795l0.07,0.62C15.979,7.382,16,7.688,16,8z"/>
</g>
<g id="iconBg">
	<path style="fill:#656565;" d="M12.714,9.603c-0.07,0.207-0.15,0.407-0.246,0.601l1.017,2.139
		c-0.335,0.424-0.718,0.807-1.142,1.143l-2.14-1.018c-0.193,0.097-0.394,0.176-0.601,0.247l-0.795,2.235C8.542,14.981,8.273,15,8,15
		c-0.272,0-0.541-0.019-0.806-0.05l-0.795-2.235c-0.207-0.071-0.408-0.15-0.602-0.247l-2.14,1.017
		c-0.424-0.336-0.807-0.719-1.143-1.143l1.017-2.139C3.437,10.01,3.356,9.81,3.286,9.603L1.05,8.807C1.02,8.542,1,8.273,1,8
		c0-0.273,0.02-0.542,0.05-0.807l2.236-0.795c0.07-0.207,0.15-0.407,0.246-0.601L2.516,3.658c0.336-0.423,0.719-0.807,1.143-1.142
		l2.14,1.017c0.193-0.096,0.394-0.176,0.602-0.247L7.194,1.05C7.459,1.02,7.728,1,8,1c0.273,0,0.542,0.02,0.808,0.05l0.795,2.236
		c0.207,0.07,0.407,0.15,0.601,0.246l2.14-1.017c0.424,0.335,0.807,0.719,1.142,1.142l-1.017,2.139
		c0.096,0.194,0.176,0.394,0.246,0.601l2.236,0.795C14.981,7.458,15,7.727,15,8c0,0.273-0.019,0.542-0.05,0.807L12.714,9.603z M8,5
		C6.343,5,5,6.343,5,8s1.343,3,3,3s3-1.343,3-3S9.657,5,8,5z M8,6.5C7.171,6.5,6.5,7.172,6.5,8c0,0.828,0.671,1.5,1.5,1.5
		S9.5,8.828,9.5,8C9.5,7.172,8.829,6.5,8,6.5z"/>
</g>
<g id="iconFg">
	<path style="fill:#F3F3F3;" d="M8,5C6.343,5,5,6.343,5,8c0,1.656,1.343,3,3,3s3-1.344,3-3C11,6.343,9.657,5,8,5z M8,9.5
		C7.172,9.5,6.5,8.828,6.5,8c0-0.828,0.672-1.5,1.5-1.5c0.828,0,1.5,0.672,1.5,1.5C9.5,8.828,8.828,9.5,8,9.5z"/>
</g>
</svg>
