<?xml version="1.0" encoding="iso-8859-1"?>
<!-- Generator: Adobe Illustrator 20.1.0, SVG Export Plug-In . SVG Version: 6.00 Build 0)  -->
<svg version="1.1" xmlns="http://www.w3.org/2000/svg" xmlns:xlink="http://www.w3.org/1999/xlink" x="0px" y="0px"
	 viewBox="0 0 16 16" style="enable-background:new 0 0 16 16;" xml:space="preserve">
<g id="canvas">
	<path style="opacity:0;fill:#000000;" d="M16,16H0V0h16V16z"/>
</g>
<g id="outline">
	<path style="fill:#000000;" d="M15.55,13.374C15.301,13.659,14.836,14,14.046,14H8.98l-0.039,0.05
		c-0.257,0.332-0.557,0.632-0.89,0.891l-0.614,0.477L6.54,14.719l-0.139,1.123l-0.77,0.1C5.359,15.979,5.183,16,5,16
		s-0.359-0.021-0.536-0.046l-0.769-0.099l-0.191-0.783L3.46,14.719l-0.897,0.698L1.948,14.94c-0.333-0.259-0.632-0.559-0.89-0.891
		l-0.475-0.614l0.698-0.896L0.158,12.4l-0.099-0.769C0.021,11.359,0,11.184,0,11s0.021-0.359,0.046-0.535l0.099-0.769l0.782-0.191
		L1.281,9.46L0.583,8.563l0.476-0.614c0.257-0.331,0.557-0.63,0.89-0.889l0.615-0.477l0.897,0.699l0.142-1.126L4,6.105V2.028
		c0-1.364,1.102-1.958,1.844-2.024L12.058,0L16,3.556v8.371C16,12.188,16.014,12.84,15.55,13.374z"/>
</g>
<g id="iconBg">
	<path style="fill:#FFFFFF;" d="M14.046,13c-0.598,0-2.956,0-4.969,0l-0.358-0.46l0.354-0.044l0.782-0.191L9.895,12H14V5h-3V2H6
		v4.104l-0.471-0.06C5.356,6.021,5.18,6,5,6C4.998,6,5,6,5,6c0-2,0-3.612,0-3.972C5,1.084,5.929,1,5.929,1h5.741L15,4v7.976
		C15,11.976,15.138,13,14.046,13z M7.714,11.658c-0.068,0.285-0.182,0.551-0.331,0.795l0.768,0.984
		c-0.207,0.268-0.445,0.506-0.712,0.713l-0.985-0.768c-0.243,0.148-0.51,0.262-0.796,0.331l-0.153,1.235C5.337,14.971,5.173,15,5,15
		s-0.337-0.029-0.504-0.051l-0.153-1.235c-0.286-0.069-0.553-0.183-0.796-0.331L2.562,14.15c-0.267-0.207-0.505-0.445-0.712-0.713
		l0.768-0.984c-0.149-0.244-0.263-0.51-0.331-0.795l-1.235-0.154C1.029,11.337,1,11.173,1,11s0.029-0.337,0.051-0.504l1.235-0.154
		c0.068-0.285,0.182-0.551,0.331-0.795L1.85,8.562C2.057,8.295,2.295,8.057,2.562,7.85l0.985,0.767
		c0.243-0.149,0.51-0.262,0.796-0.331l0.153-1.235C4.663,7.03,4.827,7,5,7s0.337,0.03,0.504,0.051l0.153,1.235
		C5.943,8.355,6.21,8.468,6.453,8.617L7.438,7.85C7.705,8.057,7.943,8.295,8.15,8.562L7.383,9.547
		c0.149,0.244,0.263,0.51,0.331,0.795l1.235,0.154C8.971,10.663,9,10.827,9,11s-0.029,0.337-0.051,0.504L7.714,11.658z M7,11
		c0-1.104-0.896-2-2-2s-2,0.896-2,2c0,1.104,0.896,2,2,2S7,12.104,7,11z M5,12c0.552,0,1-0.447,1-1s-0.448-1-1-1s-1,0.447-1,1
		S4.448,12,5,12z"/>
</g>
<g id="iconFg">
	<path style="fill:#000000;" d="M14,5v2v4v1h-3.006h-1h-0.1l0.06-0.465C9.979,11.359,10,11.184,10,11s-0.021-0.359-0.059-0.632
		L9.842,9.6L8.719,9.46l0.698-0.896L8.941,7.949C8.684,7.618,8.385,7.319,8.052,7.06L7.438,6.583L6.541,7.282L6.4,6.156L6,6.105V2h5
		v3H14z M5,13c1.104,0,2-0.896,2-2c0-1.104-0.896-2-2-2s-2,0.896-2,2C3,12.104,3.896,13,5,13z M5,10c0.552,0,1,0.447,1,1
		s-0.448,1-1,1s-1-0.447-1-1S4.448,10,5,10z"/>
</g>
</svg>
