<svg xmlns="http://www.w3.org/2000/svg" viewBox="0 0 16 16">
  <defs>
    <style>.canvas{fill: none; opacity: 0;}.light-yellow-10{fill: #996f00; opacity: 0.1;}.light-yellow{fill: #996f00; opacity: 1;}.light-defaultgrey{fill: #212121; opacity: 1;}</style>
  </defs>
  <title>IconLightSpecialFolderClosed</title>
  <g id="canvas" class="canvas">
    <path class="canvas" d="M16,16H0V0H16Z" />
  </g>
  <g id="level-1">
    <path class="light-yellow-10" d="M8.5,3.5l-1-1h-6V7.47A4.4,4.4,0,0,1,2,7.26,4.379,4.379,0,0,1,3.5,7,4.507,4.507,0,0,1,8,11.5a4.07,4.07,0,0,1-.03.5,2.755,2.755,0,0,1-.09.5H14.5v-9Z" />
    <path class="light-yellow" d="M14.5,3H8.71l-.86-.85L7.5,2h-6L1,2.5V7.76a4.994,4.994,0,0,1,.5-.29A4.4,4.4,0,0,1,2,7.26V5H7.48l.35-.15L8.68,4H14v8H7.97a2.755,2.755,0,0,1-.09.5,2.851,2.851,0,0,1-.14.5H14.5l.5-.5v-9ZM7.27,4H2V3H7.29l.49.49Z" />
    <path class="light-defaultgrey" d="M5,11.5A1.5,1.5,0,1,1,3.5,10,1.5,1.5,0,0,1,5,11.5Zm2,0A3.5,3.5,0,1,1,3.5,8,3.5,3.5,0,0,1,7,11.5Zm-1,0A2.5,2.5,0,1,0,3.5,14,2.5,2.5,0,0,0,6,11.5Z" />
  </g>
</svg>
