<svg xmlns="http://www.w3.org/2000/svg" viewBox="0 0 16 16">
  <defs>
    <style>.canvas{fill: none; opacity: 0;}.light-yellow-10{fill: #996f00; opacity: 0.1;}.light-yellow-25{fill: #996f00; opacity: 0.25;}.light-yellow{fill: #996f00; opacity: 1;}.light-defaultgrey{fill: #212121; opacity: 1;}</style>
  </defs>
  <title>IconLightSpecialFolderOpened</title>
  <g id="canvas" class="canvas">
    <path class="canvas" d="M16,16H0V0H16Z" />
  </g>
  <g id="level-1">
    <path class="light-yellow-10" d="M6.5,3.5l-1-1H.5V8.16a3.811,3.811,0,0,1,.5-.4,4.224,4.224,0,0,1,.66-.36,3.565,3.565,0,0,1,.62-.23L2.5,6.5h5l1-1h5v-2Z" />
    <path class="light-yellow-25" d="M8.5,5.5l-1,1h-5l-.22.67a3.116,3.116,0,0,1,.53-.11A3.852,3.852,0,0,1,3.5,7,4.507,4.507,0,0,1,8,11.5a4.07,4.07,0,0,1-.03.5,2.755,2.755,0,0,1-.09.5H13.5l2-7Z" />
    <path class="light-yellow" d="M15.41,5H14V3.5L13.5,3H6.71l-.86-.85L5.5,2H.5L0,2.5V8.68a3.524,3.524,0,0,1,.5-.52,3.811,3.811,0,0,1,.5-.4V3H5.29l.86.85L6.5,4H13V5H8.47l-.35.15L7.27,6H2.47L2,6.34,1.66,7.4a3.565,3.565,0,0,1,.62-.23,3.116,3.116,0,0,1,.53-.11L2.83,7H7.47l.36-.15L8.68,6h6.08L14,8.85,13.16,12H7.97a2.755,2.755,0,0,1-.09.5,2.851,2.851,0,0,1-.14.5h5.8l.48-.37,1.87-7Z" />
    <path class="light-yellow-25" d="M13,6v6.5h1V6Z" />
    <path class="light-defaultgrey" d="M5,11.5A1.5,1.5,0,1,1,3.5,10,1.5,1.5,0,0,1,5,11.5Zm2,0A3.5,3.5,0,1,1,3.5,8,3.5,3.5,0,0,1,7,11.5Zm-1,0A2.5,2.5,0,1,0,3.5,14,2.5,2.5,0,0,0,6,11.5Z" />
  </g>
</svg>
