<?xml version="1.0" encoding="iso-8859-1"?>
<!-- Generator: Adobe Illustrator 20.1.0, SVG Export Plug-In . SVG Version: 6.00 Build 0)  -->
<svg version="1.1" xmlns="http://www.w3.org/2000/svg" xmlns:xlink="http://www.w3.org/1999/xlink" x="0px" y="0px"
	 viewBox="0 0 16 16" style="enable-background:new 0 0 16 16;" xml:space="preserve">
<g id="outline">
	<rect style="opacity:0;fill:#000000;" width="16" height="16"/>
	<path style="fill:#000000;" d="M4,15c-0.97,0-2-0.701-2-2V3c0-1.299,1.03-2,2-2h6.061L14,4.556V13c0,0.97-0.701,2-2,2H4z"/>
</g>
<g id="icon_x5F_bg">
	<g>
		<path style="fill:#FFFFFF;" d="M9.64,2H3.964C3.964,2,3,2,3,3c0,0.805,0,7.442,0,10c0,1,0.964,1,0.964,1s7,0,8,0S13,13,13,13V5
			L9.64,2z M12,13H4V3h5v3h3V13z"/>
		<rect x="5" y="5" style="fill:#FFFFFF;" width="3" height="1"/>
		<rect x="5" y="7" style="fill:#FFFFFF;" width="6" height="1"/>
		<rect x="5" y="9" style="fill:#FFFFFF;" width="6" height="1"/>
		<rect x="5" y="11" style="fill:#FFFFFF;" width="6" height="1"/>
	</g>
</g>
<g id="icon_x5F_fg">
	<path style="fill:#000000;" d="M9,6V3H4v10h8V6H9z M5,5h3v1H5V5z M11,12H5v-1h6V12z M11,10H5V9h6V10z M11,8H5V7h6V8z"/>
</g>
</svg>
