<?xml version="1.0" encoding="iso-8859-1"?>
<!-- Generator: Adobe Illustrator 20.1.0, SVG Export Plug-In . SVG Version: 6.00 Build 0)  -->
<svg version="1.1" xmlns="http://www.w3.org/2000/svg" xmlns:xlink="http://www.w3.org/1999/xlink" x="0px" y="0px"
	 viewBox="0 0 16 16" style="enable-background:new 0 0 16 16;" xml:space="preserve">
<g id="_x7B__PAGE_GRID__x7D_">
</g>
<g id="outline">
	<path style="fill:#252526;" d="M14,15H2V0h12V15z"/>
</g>
<g id="icon_x5F_bg">
	<path style="fill:#C5C5C5;" d="M11,5H7V4h4V5z M11,6H5v1h6V6z M11,8H5v1h6V8z M10,10H5v1h5V10z M13,1v13H3V1H13z M12,2H4v11h8V2z"
		/>
</g>
<g id="icon_x5F_fg">
	<path style="fill:#252526;" d="M4,2v11h8V2H4z M10,11H5v-1h5V11z M11,9H5V8h6V9z M11,7H5v-1h6V7z M11,5H7V4h4V5z"/>
</g>
<g id="not_x5F_bg">
</g>
<g id="not_x5F_fg">
</g>
</svg>
