<?xml version="1.0" encoding="iso-8859-1"?>
<!-- Generator: Adobe Illustrator 20.1.0, SVG Export Plug-In . SVG Version: 6.00 Build 0)  -->
<svg version="1.1" xmlns="http://www.w3.org/2000/svg" xmlns:xlink="http://www.w3.org/1999/xlink" x="0px" y="0px"
	 viewBox="0 0 16 16" style="enable-background:new 0 0 16 16;" xml:space="preserve">
<g id="canvas">
	<path style="opacity:0;fill:#252526;" d="M16,16H0V0h16V16z"/>
</g>
<g id="outline">
	<path style="fill:#252526;" d="M12.427,0L4.902,0.002C3.957,0.065,3,0.74,3,1.907v4.679l-2,2v4.828l2,2l2-2L7.586,16h0.65l2-1
		l3.845,0.003c0.228,0,0.676-0.042,1.095-0.32C15.483,14.479,16,13.988,16,13V3.673L12.427,0z"/>
</g>
<g id="iconBg">
	<path style="fill:#C5C5C5;" d="M15,13c0,1.102-0.984,1-0.984,1h-1.005H11v-1h3.013l-0.026-8H11V2.042L5,2.021v6.521v0.044l-1-1
		c0,0,0-4.836,0-5.679C4,1.065,4.969,1,4.969,1h7.036L15,4.079C15,4.079,15,12.108,15,13z M7,5h3V4H7V5z M10,6.882V6H8.236L10,6.882
		z M7,6.586L7.586,6H7V6.586z M11,11h1v-1h-1V11z M11,9h1V8h-1V9z M12,6h-1v1h1V6z"/>
</g>
<g id="iconFg">
	<path style="fill:#252526;" d="M11,5V2H5v6.625l2-2.039V6h0.586l0.217-0.217L8.236,6H10v0.882l1,0.5V8h1v1h-1v1h1v1h-1v2h2.979V5
		H11z M10,5H7V4h3V5z M12,7h-1V6h1V7z M3,12v-2l1,1L3,12z M6,11l2-2v4L6,11z"/>
</g>
<g id="colorImportance">
	<path style="fill:#D294E2;" d="M8,7l-3,3L3,8L2,9v4l1,1l2-2l3,3l2-1V8L8,7z M3,12v-2l1,1L3,12z M6,11l2-2v4L6,11z"/>
</g>
</svg>
