<?xml version="1.0" encoding="iso-8859-1"?>
<!-- Generator: Adobe Illustrator 20.1.0, SVG Export Plug-In . SVG Version: 6.00 Build 0)  -->
<svg version="1.1" xmlns="http://www.w3.org/2000/svg" xmlns:xlink="http://www.w3.org/1999/xlink" x="0px" y="0px"
	 viewBox="0 0 16 16" style="enable-background:new 0 0 16 16;" xml:space="preserve">
<g id="outline">
	<rect style="opacity:0;fill:#F6F6F6;" width="16" height="16"/>
	<path style="fill:#F6F6F6;" d="M14.987,7.314c-0.1-2.979-2.516-5.313-5.495-5.313C7.788,2.001,6.26,2.78,5.249,4H0v3h1v1H0v3h5.238
		c0.814,0.985,1.954,1.694,3.258,1.935L8.583,13h0.11c0.111,0,0.221-0.001,0.329,0.009C9.18,13.023,9.34,13,9.5,13
		c0.181,0,0.357-0.01,0.536-0.026c2.829-0.276,4.962-2.629,4.962-5.473C14.998,7.449,14.993,7.398,14.987,7.314z"/>
</g>
<g id="icon_x5F_bg">
	<path style="fill:#656565;" d="M4,6H1V5h3V6z M4,7H2v1h2V7z M4,9H1v1h3V9z"/>
	<path style="fill:#656565;" d="M14,7.501c0-0.052-0.008-0.102-0.008-0.153l0,0C13.911,4.936,11.935,3.001,9.5,3.001
		c-2.485,0-4.5,2.015-4.5,4.5c0,0.132,0.008,0.26,0.02,0.389c0.01,0.115,0.027,0.229,0.045,0.341c0,0.005,0,0.008,0.002,0.013l0,0
		c0.313,1.89,1.804,3.38,3.696,3.69l0,0c0.005,0.002,0.009,0.002,0.013,0.002c0.112,0.02,0.225,0.035,0.338,0.045
		C9.241,11.992,9.37,12,9.5,12c0.148,0,0.295-0.008,0.439-0.021l0,0C12.218,11.756,14,9.838,14,7.501z M11.408,6.434
		c0.467-0.074,0.961-0.199,1.489-0.389c0.19,0.447,0.299,0.938,0.299,1.456c0,0.08-0.008,0.16-0.012,0.24
		c-0.668,0.291-1.269,0.465-1.831,0.555c0.07-0.393,0.108-0.768,0.104-1.12C11.455,6.918,11.434,6.674,11.408,6.434z M12.553,5.418
		c-0.441,0.152-0.856,0.258-1.255,0.318c-0.138-0.662-0.354-1.233-0.589-1.725C11.466,4.273,12.109,4.77,12.553,5.418z M9.5,11.197
		c-0.109,0-0.217-0.008-0.324-0.018c-0.322-0.717-0.57-1.43-0.725-2.125c0.336,0.033,0.686,0.057,1.045,0.059
		C9.582,9.115,9.67,9.115,9.755,9.115c0.224,0,0.45-0.006,0.678-0.018c-0.196,0.639-0.487,1.336-0.87,2.096
		C9.541,11.193,9.521,11.197,9.5,11.197z M9.504,8.415C9.094,8.409,8.701,8.38,8.322,8.336C8.268,7.944,8.24,7.558,8.244,7.184
		c0.002-0.248,0.02-0.508,0.043-0.738c0.387,0.044,0.789,0.056,1.209,0.056c0.086,0,0.174,0,0.259,0
		c0.314,0,0.632,0.012,0.956-0.012c0.025,0.219,0.044,0.452,0.046,0.683c0.004,0.372-0.044,0.778-0.135,1.208
		C10.246,8.405,9.878,8.417,9.504,8.415z M9.5,3.805c0.106,0,0.21,0.008,0.312,0.016c0.302,0.522,0.607,1.187,0.786,1.997
		C10.231,5.843,9.87,5.847,9.504,5.843c-0.386-0.004-0.76-0.03-1.119-0.071c0.15-0.781,0.398-1.423,0.645-1.934
		C9.184,3.818,9.34,3.805,9.5,3.805z M8.16,4.059c-0.186,0.465-0.355,1-0.471,1.613C7.246,5.593,6.84,5.496,6.467,5.391
		C6.884,4.793,7.473,4.326,8.16,4.059z M5.804,7.501c0-0.526,0.112-1.026,0.31-1.479c0.44,0.129,0.932,0.252,1.479,0.346
		C7.564,6.629,7.545,6.895,7.543,7.176C7.539,7.519,7.564,7.871,7.605,8.228C6.914,8.102,6.317,7.929,5.817,7.761
		C5.811,7.675,5.804,7.589,5.804,7.501z M5.955,8.545C6.469,8.701,7.057,8.854,7.72,8.959c0.132,0.674,0.349,1.359,0.632,2.053
		C7.199,10.635,6.3,9.711,5.955,8.545z M10.391,11.084c0.35-0.736,0.62-1.424,0.795-2.053c0.574-0.074,1.186-0.221,1.856-0.472
		C12.669,9.803,11.658,10.771,10.391,11.084z"/>
</g>
<g id="icon_x5F_fg">
	<path style="fill:#F3F3F3;" d="M11.393,6.442c0.463-0.073,0.953-0.197,1.476-0.385c0.19,0.442,0.297,0.93,0.297,1.443
		c0,0.08-0.008,0.159-0.012,0.238C12.492,8.027,11.896,8.2,11.338,8.29c0.07-0.391,0.107-0.762,0.103-1.111
		C11.439,6.923,11.418,6.681,11.393,6.442z"/>
	<path style="fill:#F3F3F3;" d="M9.5,11.166c-0.108,0-0.215-0.008-0.321-0.018C8.858,10.438,8.612,9.73,8.46,9.043
		C8.793,9.076,9.14,9.098,9.496,9.1c0.086,0.002,0.172,0.002,0.257,0.002c0.222,0,0.446-0.006,0.672-0.018
		c-0.194,0.633-0.483,1.324-0.862,2.078C9.541,11.164,9.521,11.166,9.5,11.166z"/>
	<path style="fill:#F3F3F3;" d="M9.504,8.407C9.098,8.402,8.708,8.372,8.332,8.329C8.278,7.94,8.25,7.558,8.254,7.186
		C8.256,6.94,8.273,6.679,8.297,6.45C8.681,6.493,9.08,6.501,9.496,6.501c0.086,0,0.172,0,0.257,0c0.312,0,0.627,0.016,0.948-0.008
		c0.025,0.217,0.043,0.45,0.045,0.68c0.004,0.368-0.043,0.772-0.133,1.198C10.24,8.396,9.875,8.409,9.504,8.407z"/>
	<path style="fill:#F3F3F3;" d="M5.834,7.501c0-0.521,0.111-1.018,0.308-1.468c0.437,0.129,0.924,0.251,1.466,0.343
		c-0.026,0.26-0.046,0.523-0.049,0.803C7.555,7.519,7.58,7.868,7.621,8.222C6.936,8.097,6.344,7.926,5.848,7.759
		C5.841,7.673,5.834,7.588,5.834,7.501z"/>
	<path style="fill:#F3F3F3;" d="M5.984,8.536c0.509,0.156,1.092,0.306,1.75,0.411c0.131,0.668,0.346,1.348,0.626,2.035
		C7.219,10.609,6.326,9.693,5.984,8.536z"/>
	<path style="fill:#F3F3F3;" d="M10.383,11.055c0.348-0.731,0.615-1.412,0.789-2.037c0.569-0.072,1.176-0.217,1.84-0.467
		C12.643,9.785,11.641,10.744,10.383,11.055z"/>
	<path style="fill:#F3F3F3;" d="M12.553,5.418c-0.441,0.152-0.856,0.258-1.255,0.318c-0.138-0.662-0.354-1.233-0.589-1.725
		C11.466,4.273,12.109,4.77,12.553,5.418z"/>
	<path style="fill:#F3F3F3;" d="M9.5,3.805c0.106,0,0.21,0.008,0.312,0.016c0.302,0.522,0.607,1.187,0.786,1.997
		C10.231,5.843,9.87,5.847,9.504,5.843c-0.386-0.004-0.76-0.03-1.119-0.071c0.15-0.781,0.398-1.423,0.645-1.934
		C9.184,3.818,9.34,3.805,9.5,3.805z"/>
	<path style="fill:#F3F3F3;" d="M8.16,4.059c-0.186,0.465-0.355,1-0.471,1.613C7.246,5.593,6.84,5.496,6.467,5.391
		C6.884,4.793,7.473,4.326,8.16,4.059z"/>
</g>
</svg>
