<?xml version="1.0" encoding="iso-8859-1"?>
<!-- Generator: Adobe Illustrator 20.1.0, SVG Export Plug-In . SVG Version: 6.00 Build 0)  -->
<svg version="1.1" xmlns="http://www.w3.org/2000/svg" xmlns:xlink="http://www.w3.org/1999/xlink" x="0px" y="0px"
	 viewBox="0 0 16 16" style="enable-background:new 0 0 16 16;" xml:space="preserve">
<g id="outline">
	<rect x="0" style="opacity:0;fill:#252526;" width="16" height="16"/>
	<path style="fill:#252526;" d="M16,6h-2.058C14.593,5.364,15,4.48,15,3.5C15,1.57,13.43,0,11.5,0C9.57,0,8,1.57,8,3.5
		C8,4.48,8.407,5.364,9.058,6H8.652C7.758,5.372,6.673,5,5.5,5C2.468,5,0,7.468,0,10.5C0,13.533,2.468,16,5.5,16
		c2.131,0,3.98-1.222,4.892-3H16V6z"/>
</g>
<g id="icon_x5F_bg">
	<path style="fill:#C5C5C5;" d="M9,3.5C9,2.12,10.119,1,11.5,1C12.879,1,14,2.12,14,3.5S12.879,6,11.5,6C10.119,6,9,4.881,9,3.5"/>
	<path style="fill:#C5C5C5;" d="M13,7l-1.5,2L10,7H9.743C10.528,7.951,11,9.17,11,10.5c0,0.521-0.077,1.023-0.212,1.5H15V7H13z"/>
	<path style="fill:#C5C5C5;" d="M10.027,10.543c0-0.053-0.008-0.102-0.008-0.152l0,0C9.938,7.977,7.962,6.043,5.527,6.043
		c-2.485,0-4.5,2.015-4.5,4.5c0,0.132,0.008,0.26,0.02,0.389c0.01,0.115,0.027,0.229,0.045,0.341c0,0.005,0,0.008,0.002,0.013l0,0
		c0.313,1.891,1.803,3.38,3.696,3.691l0,0c0.005,0.001,0.009,0.002,0.013,0.002c0.112,0.019,0.225,0.035,0.338,0.045
		c0.127,0.012,0.256,0.02,0.386,0.02c0.148,0,0.295-0.009,0.439-0.022l0,0C8.245,14.799,10.027,12.88,10.027,10.543z M7.436,9.476
		c0.467-0.073,0.961-0.198,1.489-0.388c0.19,0.445,0.299,0.938,0.299,1.455c0,0.08-0.008,0.16-0.012,0.24
		c-0.668,0.291-1.269,0.465-1.831,0.555c0.07-0.393,0.108-0.768,0.104-1.119C7.482,9.96,7.461,9.716,7.436,9.476z M8.58,8.459
		C8.139,8.611,7.724,8.717,7.325,8.778C7.188,8.117,6.972,7.545,6.736,7.053C7.493,7.315,8.137,7.812,8.58,8.459z M5.527,14.239
		c-0.109,0-0.217-0.008-0.324-0.018c-0.323-0.717-0.571-1.43-0.725-2.124c0.336,0.033,0.686,0.057,1.045,0.059
		c0.086,0.002,0.174,0.002,0.259,0.002c0.224,0,0.45-0.006,0.678-0.018c-0.196,0.638-0.487,1.335-0.87,2.095
		C5.568,14.236,5.549,14.239,5.527,14.239z M5.531,11.457c-0.41-0.006-0.825-0.035-1.204-0.079c-0.054-0.392-0.06-0.778-0.056-1.153
		c0.002-0.247,0.02-0.507,0.043-0.737c0.387,0.044,0.79,0.056,1.209,0.056c0.086,0,0.174,0,0.259,0c0.314,0,0.632,0.012,0.956-0.012
		c0.025,0.219,0.044,0.451,0.046,0.683c0.004,0.372-0.044,0.778-0.135,1.208C6.273,11.447,5.905,11.459,5.531,11.457z M5.527,6.847
		c0.106,0,0.21,0.008,0.312,0.016c0.302,0.522,0.607,1.187,0.786,1.997C6.259,8.885,5.897,8.889,5.531,8.885
		c-0.386-0.004-0.759-0.029-1.119-0.07C4.562,8.032,4.811,7.39,5.057,6.88C5.21,6.86,5.368,6.847,5.527,6.847z M4.188,7.101
		c-0.186,0.465-0.356,1-0.471,1.612c-0.444-0.078-0.851-0.175-1.223-0.28C2.911,7.835,3.5,7.368,4.188,7.101z M1.831,10.543
		c0-0.525,0.112-1.025,0.31-1.481c0.44,0.131,0.932,0.254,1.478,0.346C3.592,9.67,3.573,9.937,3.57,10.219
		c-0.004,0.342,0.021,0.694,0.063,1.051c-0.691-0.126-1.288-0.299-1.788-0.467C1.838,10.717,1.831,10.631,1.831,10.543z
		 M1.982,11.587c0.513,0.157,1.101,0.31,1.765,0.415c0.132,0.673,0.349,1.359,0.631,2.053C3.227,13.678,2.327,12.754,1.982,11.587z
		 M6.418,14.127c0.35-0.737,0.62-1.424,0.795-2.054c0.574-0.073,1.186-0.22,1.855-0.472C8.696,12.846,7.686,13.814,6.418,14.127z"/>
</g>
<g id="icon_x5F_fg">
	<path style="fill:#252526;" d="M7.428,9.484c0.463-0.073,0.977-0.197,1.5-0.385c0.189,0.442,0.266,0.93,0.266,1.443
		c0,0.08-0.008,0.159-0.012,0.238c-0.662,0.288-1.258,0.461-1.816,0.551c0.07-0.391,0.107-0.762,0.104-1.111
		C7.466,9.965,7.453,9.723,7.428,9.484z"/>
	<path style="fill:#252526;" d="M5.527,14.209c-0.108,0-0.215-0.006-0.321-0.016c-0.32-0.711-0.566-1.462-0.719-2.15
		c0.333,0.033,0.684,0.098,1.04,0.1c0.086,0.002,0.699,0.012,0.925,0c-0.194,0.633-0.483,1.309-0.862,2.062
		C5.568,14.206,5.549,14.209,5.527,14.209z"/>
	<path style="fill:#252526;" d="M5.531,11.449c-0.406-0.005-0.796-0.063-1.172-0.106c-0.061-0.441-0.076-0.776-0.072-1.1
		c0.002-0.245,0.017-0.523,0.04-0.751c0.384,0.043,0.784,0.051,1.2,0.051c0.086,0-0.085,0,0,0c0.312,0,0.879,0.023,1.2,0
		c0.025,0.217-0.002,0.442,0,0.672c0.004,0.368-0.011,0.773-0.101,1.198C6.254,11.439,5.902,11.451,5.531,11.449z"/>
	<path style="fill:#252526;" d="M1.861,10.543c0-0.522,0.111-1.05,0.308-1.5c0.437,0.129,0.916,0.283,1.458,0.375
		c-0.026,0.26-0.039,0.445-0.042,0.725c-0.004,0.34,0,0.768,0.042,1.121c-0.686-0.125-1.256-0.296-1.752-0.463
		C1.868,10.715,1.861,10.63,1.861,10.543z"/>
	<path style="fill:#252526;" d="M2.012,11.643c0.509,0.156,1.092,0.295,1.75,0.4c0.131,0.667,0.346,1.295,0.626,1.982
		C3.246,13.652,2.354,12.8,2.012,11.643z"/>
	<path style="fill:#252526;" d="M6.41,14.098c0.348-0.731,0.615-1.43,0.789-2.055c0.569-0.072,1.176-0.15,1.84-0.4
		C8.67,12.877,7.668,13.786,6.41,14.098z"/>
	<path style="fill:#252526;" d="M8.58,8.443c-0.441,0.153-0.856,0.239-1.255,0.3c-0.138-0.662-0.354-1.208-0.589-1.7
		C7.493,7.305,8.137,7.795,8.58,8.443z"/>
	<path style="fill:#252526;" d="M5.527,6.943c0.106,0,0.21-0.008,0.312,0c0.302,0.522,0.607,1.089,0.786,1.9
		c-0.367,0.025-0.729,0.004-1.095,0c-0.386-0.004-0.745-0.059-1.104-0.1c0.15-0.782,0.354-1.29,0.6-1.8
		C5.181,6.923,5.368,6.943,5.527,6.943z"/>
	<path style="fill:#252526;" d="M4.188,7.101c-0.186,0.465-0.356,1-0.471,1.612c-0.444-0.078-0.851-0.175-1.223-0.28
		C2.911,7.835,3.5,7.368,4.188,7.101z"/>
</g>
</svg>
