<?xml version="1.0" encoding="iso-8859-1"?>
<!-- Generator: Adobe Illustrator 20.1.0, SVG Export Plug-In . SVG Version: 6.00 Build 0)  -->
<svg version="1.1" xmlns="http://www.w3.org/2000/svg" xmlns:xlink="http://www.w3.org/1999/xlink" x="0px" y="0px"
	 viewBox="0 0 16 16" style="enable-background:new 0 0 16 16;" xml:space="preserve">
<g id="canvas">
	<path id="XMLID_1_" style="opacity:0;fill:#000000;" d="M16,16H0V0h16V16z"/>
</g>
<g id="outline">
	<path id="XMLID_23_" style="fill:#000000;" d="M9.979,13.262C9.872,14.977,8.754,16,6.922,16H5.238h-1.28H2.924
		C1.065,16,0,14.907,0,13.002c0-1.744,1-2.824,2.683-2.972c-0.281-0.553-0.486-1.152-0.592-1.79C2.063,8.068,2.04,7.933,2.026,7.773
		C2.01,7.598,2,7.428,2,7.245C2,3.798,4.804,1,8.25,1c3.386,0,6.127,2.655,6.24,6.041c0.007,0.101,0.01,0.157,0.01,0.213
		C14.5,10.101,12.621,12.511,9.979,13.262z"/>
</g>
<g id="iconBg">
	<path id="XMLID_24_" style="fill:#FFFFFF;" d="M13.491,7.078C13.396,4.261,11.09,2.005,8.25,2.005C5.351,2.005,3,4.356,3,7.255
		c0,0.153,0.009,0.304,0.022,0.453c0.012,0.135,0.031,0.267,0.053,0.398c0.001,0.005,0.001,0.009,0.002,0.014
		C3.19,8.804,3.448,9.434,3.798,10H4.7h0.235c-0.368-0.444-0.653-0.958-0.82-1.526c0.598,0.184,1.283,0.36,2.058,0.483
		C6.24,9.301,6.334,9.65,6.438,10h0.638c0.077,0,0.145,0.013,0.219,0.017c-0.1-0.317-0.199-0.634-0.269-0.946
		c0.393,0.039,0.8,0.064,1.22,0.068c0.101,0.002,0.201,0.002,0.302,0.002c0.261,0,0.524-0.008,0.79-0.021
		c-0.13,0.422-0.304,0.872-0.504,1.34c0.246,0.159,0.447,0.367,0.617,0.605c0.324-0.716,0.593-1.398,0.767-2.022
		c0.67-0.086,1.383-0.256,2.164-0.55c-0.4,1.341-1.44,2.396-2.761,2.84c0.141,0.261,0.243,0.555,0.305,0.885
		c2.074-0.701,3.575-2.648,3.575-4.96C13.5,7.195,13.492,7.137,13.491,7.078z M7.701,2.982c0.18-0.023,0.362-0.039,0.549-0.039
		c0.124,0,0.245,0.008,0.366,0.019c0.351,0.608,0.708,1.384,0.915,2.33c-0.428,0.029-0.85,0.033-1.277,0.029
		C7.805,5.316,7.369,5.286,6.95,5.238C7.125,4.327,7.414,3.577,7.701,2.982z M3.953,7.558C3.945,7.458,3.938,7.357,3.938,7.255
		c0-0.614,0.131-1.197,0.361-1.727C4.813,5.68,5.386,5.824,6.024,5.933C5.992,6.237,5.97,6.548,5.967,6.876
		C5.962,7.277,5.992,7.688,6.04,8.104C5.233,7.957,4.536,7.755,3.953,7.558z M6.139,5.121C5.62,5.03,5.146,4.916,4.712,4.793
		c0.485-0.697,1.173-1.241,1.976-1.554C6.471,3.782,6.271,4.405,6.139,5.121z M9.56,8.287C9.121,8.318,8.691,8.324,8.254,8.321
		c-0.477-0.005-0.936-0.04-1.378-0.092C6.812,7.772,6.779,7.322,6.783,6.884c0.004-0.29,0.023-0.566,0.051-0.836
		C7.286,6.1,7.757,6.133,8.246,6.138C8.347,6.14,8.447,6.14,8.548,6.14c0.366,0,0.737-0.012,1.116-0.04
		c0.028,0.254,0.049,0.513,0.053,0.785C9.721,7.318,9.665,7.787,9.56,8.287z M9.66,3.184c0.883,0.305,1.635,0.885,2.151,1.641
		c-0.515,0.177-1,0.3-1.463,0.372C10.188,4.424,9.936,3.758,9.66,3.184z M12.549,7.536c-0.779,0.339-1.479,0.542-2.136,0.647
		c0.083-0.459,0.125-0.896,0.12-1.307c-0.002-0.3-0.025-0.587-0.057-0.867c0.545-0.085,1.121-0.231,1.737-0.453
		c0.224,0.521,0.349,1.095,0.349,1.699C12.562,7.35,12.555,7.442,12.549,7.536z M9.02,12.998C9.02,14.5,8.12,15,6.995,15H4.816
		c0,0-0.089-0.281-0.531-1.012c-0.286-0.639,0.175-1.114,0.463-0.926C5.163,13.334,5.582,14,5.582,14h1.662
		c0.775,0,0.775-0.625,0.775-1c0-1-0.625-1-1-1l-0.536-1h0.664C8.272,11,9.02,11.498,9.02,12.998z M1.025,13.002
		C1.025,11.5,1.925,11,3.05,11h2.179c0,0,0.089,0.281,0.531,1.012c0.286,0.639-0.175,1.114-0.463,0.926
		C4.882,12.666,4.463,12,4.463,12H2.801c-0.775,0-0.775,0.625-0.775,1c0,1,0.625,1,1,1l0.512,1h-0.64
		C1.772,15,1.025,14.502,1.025,13.002z"/>
</g>
</svg>
