<?xml version="1.0" encoding="UTF-8" standalone="no"?>
<svg
   viewBox="0 0 16 16"
   version="1.1"
   id="svg646"
   sodipodi:docname="WGSL_16x.svg"
   width="16"
   height="16"
   inkscape:version="1.2.1 (9c6d41e410, 2022-07-14)"
   xmlns:inkscape="http://www.inkscape.org/namespaces/inkscape"
   xmlns:sodipodi="http://sodipodi.sourceforge.net/DTD/sodipodi-0.dtd"
   xmlns="http://www.w3.org/2000/svg"
   xmlns:svg="http://www.w3.org/2000/svg"><defs
   id="defs650" />
<sodipodi:namedview
   id="namedview648"
   pagecolor="#ffffff"
   bordercolor="#666666"
   borderopacity="1.0"
   inkscape:showpageshadow="2"
   inkscape:pageopacity="0.0"
   inkscape:pagecheckerboard="0"
   inkscape:deskcolor="#d1d1d1"
   showgrid="false"
   inkscape:zoom="11.582041"
   inkscape:cx="-35.572315"
   inkscape:cy="27.974345"
   inkscape:window-width="1920"
   inkscape:window-height="1011"
   inkscape:window-x="0"
   inkscape:window-y="0"
   inkscape:window-maximized="1"
   inkscape:current-layer="svg646" />
<linearGradient
   id="a"
   gradientUnits="userSpaceOnUse"
   x1="67.733002"
   x2="67.733002"
   y1="31.882999"
   y2="50.932999"
   gradientTransform="matrix(0.15839702,0,0,0.15839702,-5.5617761,3.9177944)">
  <stop
     offset="0"
     stop-color="#91e12a"
     id="stop611" />
  <stop
     offset="1"
     stop-color="#7b8a49"
     id="stop613" />
</linearGradient>
<linearGradient
   id="c"
   gradientUnits="userSpaceOnUse"
   x1="84.667"
   x2="84.667"
   y1="23.416"
   y2="65.75"
   gradientTransform="matrix(0.15839702,0,0,0.15839702,-5.5617761,3.9177944)">
  <stop
     offset="0"
     stop-color="#2263ea"
     id="stop616" />
  <stop
     offset="1"
     stop-color="#33c0f4"
     id="stop618" />
</linearGradient>
<linearGradient
   id="b"
   gradientUnits="userSpaceOnUse"
   x1="50.799999"
   x2="50.799999"
   y1="23.416"
   y2="65.75"
   gradientTransform="matrix(0.15839702,0,0,0.15839702,-5.5617761,3.9177944)">
  <stop
     offset="0"
     stop-color="#e12400"
     id="stop621" />
  <stop
     offset="1"
     stop-color="#febe00"
     id="stop623" />
</linearGradient>
<linearGradient
   id="d"
   gradientUnits="userSpaceOnUse"
   x1="52.917"
   x2="52.917"
   y1="40.349998"
   y2="65.75"
   gradientTransform="matrix(0.15839702,0,0,0.15839702,-5.5617761,3.9177944)">
  <stop
     offset="0"
     stop-color="#f6d339"
     id="stop626" />
  <stop
     offset="1"
     stop-color="#ffd55f"
     id="stop628" />
</linearGradient>
<linearGradient
   id="e"
   gradientUnits="userSpaceOnUse"
   x1="82.550003"
   x2="82.550003"
   y1="40.349998"
   y2="65.75"
   gradientTransform="matrix(0.15839702,0,0,0.15839702,-5.5617761,3.9177944)">
  <stop
     offset="0"
     stop-color="#99def2"
     id="stop631" />
  <stop
     offset="1"
     stop-color="#84d2f8"
     id="stop633" />
</linearGradient>
<g
   id="g872"
   transform="translate(-51.06092,-2.7199615)"
   inkscape:label="document">
  <g
     id="canvas"
     transform="translate(51.06092,2.7199615)">
	<path
   id="XMLID_1_"
   style="opacity:0;fill:#f6f6f6"
   d="M 16,16 H 0 V 0 h 16 z" />

</g>
  <g
     id="outline"
     transform="translate(51.06092,2.7199615)">
	<path
   style="fill:#f6f6f6"
   d="M 4,15 C 3.03,15 2,14.299 2,13 V 3 C 2,1.701 3.03,1 4,1 h 6.061 L 14,4.556 V 13 c 0,0.97 -0.701,2 -2,2 z"
   id="path835" />

</g>
  <g
     id="iconBg"
     transform="translate(51.06092,2.7199615)">
	<path
   style="fill:#C5C5C5"
   d="M 9.641,2 H 3.964 C 3.964,2 3,2 3,3 c 0,0.805 0,7.442 0,10 0,1 0.965,1 0.965,1 0,0 7,0 8,0 1,0 1.035,-1 1.035,-1 V 5 Z M 12,13 H 4 V 3 h 5 v 3 h 3 z"
   id="path838" />

</g>
  <g
     id="iconFg"
     transform="translate(51.06092,2.7199615)">
	<path
   id="XMLID_3_"
   style="fill:#f0eff1"
   d="m 4,3 h 5 v 3 h 3 v 7 H 4 Z" />

</g>
</g>
<g
   id="g2511"
   inkscape:label="wgsl"
   transform="translate(-0.04215848,0.54536193)"
   style="stroke-width:1.5;stroke-dasharray:none">
  <path
     id="path2513"
     style="fill:none;fill-opacity:1;stroke:#f0eff1;stroke-width:1.5;stroke-dasharray:none;stroke-opacity:1"
     d="M 2.484375,7.6269531 1.1445312,14.332031 h 2.6816407 l 1.3398437,-2.345703 1.3417969,2.345703 H 9.1894531 L 7.8496094,7.6269531 6.171875,10.308594 5.1660156,8.96875 4.1601562,10.308594 Z" />
  <path
     d="M 4.1611081,10.309114 5.1669292,8.9679666 6.1727503,10.309114 5.1669292,11.98543 Z"
     fill="url(#a)"
     id="path636"
     style="fill:url(#a);stroke-width:1.5;stroke-dasharray:none" />
  <path
     d="M 2.4847925,7.626819 1.1436449,14.332398 4.1611081,10.309114 Z"
     fill="url(#b)"
     id="path638"
     style="fill:url(#b);stroke-width:1.5;stroke-dasharray:none" />
  <path
     d="M 9.1902135,14.332398 6.1727503,10.309114 7.8492243,7.626819 Z"
     fill="url(#c)"
     id="path640"
     style="fill:url(#c);stroke-width:1.5;stroke-dasharray:none" />
  <path
     d="M 1.1436449,14.332398 4.1611081,10.309114 5.1669292,11.98543 3.82594,14.332398 Z"
     fill="url(#d)"
     id="path642"
     style="fill:url(#d);stroke-width:1.5;stroke-dasharray:none" />
  <path
     d="m 5.1669292,11.98543 1.0058211,-1.676316 3.0174632,4.023284 H 6.5080768 Z"
     fill="url(#e)"
     id="path644"
     style="fill:url(#e);stroke-width:1.5;stroke-dasharray:none" />
</g>





</svg>
