<?xml version="1.0" encoding="iso-8859-1"?>
<!-- Generator: Adobe Illustrator 19.2.1, SVG Export Plug-In . SVG Version: 6.00 Build 0)  -->
<svg version="1.1" xmlns="http://www.w3.org/2000/svg" xmlns:xlink="http://www.w3.org/1999/xlink" x="0px" y="0px"
	 viewBox="0 0 16 16" style="enable-background:new 0 0 16 16;" xml:space="preserve">
<g id="_x7B__PAGE_GRID__x7D_">
</g>
<g id="outline">
	<path style="fill:#252526;" d="M14,5.586L9.414,1H2v10H1.586L0,12.586v1.828L1.586,16h0.828l0.396-0.396
		C3.195,15.85,3.689,16,4.25,16s1.055-0.15,1.44-0.396L6.086,16h0.828l1-1H14V5.586z"/>
</g>
<g id="icon_x5F_bg">
	<path style="fill:#C5C5C5;" d="M12.99,14h-4.5v-1.414L8.405,12.5h3.086V6h-2.5V3.5h-4.5v7.517C4.408,11.01,4.326,11,4.24,11
		c-0.475,0-0.896,0.112-1.25,0.294V2h6l4,4V14z M6.49,12l-0.5,0.5l1,1l-1,1l0.5,0.5l1.5-1.5L6.49,12z M0.49,13.5l1.5,1.5l0.5-0.5
		l-1-1l1-1L1.99,12L0.49,13.5z M5.49,12.75v1.5c0,0.414-0.56,0.75-1.25,0.75s-1.25-0.336-1.25-0.75v-1.5
		c0-0.414,0.56-0.75,1.25-0.75S5.49,12.336,5.49,12.75z M5.24,12.75c0-0.236-0.428-0.5-1-0.5s-1,0.264-1,0.5s0.428,0.5,1,0.5
		S5.24,12.986,5.24,12.75z"/>
</g>
<g id="icon_x5F_fg">
</g>
<g id="not_x5F_bg">
</g>
<g id="not_x5F_fg">
</g>
</svg>
