<?xml version="1.0" encoding="iso-8859-1"?>
<!-- Generator: Adobe Illustrator 20.1.0, SVG Export Plug-In . SVG Version: 6.00 Build 0)  -->
<svg version="1.1" xmlns="http://www.w3.org/2000/svg" xmlns:xlink="http://www.w3.org/1999/xlink" x="0px" y="0px"
	 viewBox="0 0 16 16" style="enable-background:new 0 0 16 16;" xml:space="preserve">
<g id="canvas">
	<path style="opacity:0;fill:#252526;" d="M16,16H0V0h16V16z"/>
</g>
<g id="outline">
	<path style="fill:#252526;" d="M16,2.5v10c0,0.827-0.673,1.5-1.5,1.5H2.504c-0.827,0-1.5-0.673-1.5-1.5v-8
		c0-0.827,0.673-1.5,1.5-1.5H5.39l1-2h8.11C15.327,1,16,1.673,16,2.5z"/>
</g>
<g id="iconBg">
	<path style="fill:#DCB67A;" d="M15,2.5v10c0,0.276-0.225,0.5-0.5,0.5H14V4l0,0V3h-1h-2H8.012H8.008l-0.5,1H10v9H2.504
		C2.227,13,2,12.776,2,12.5v-8C2,4.224,2.227,4,2.504,4h3.504l1-2H14.5C14.775,2,15,2.224,15,2.5z"/>
	<path style="fill:#C5C5C5;" d="M13,3v1h-2V3H13z M13,4v2h-2V4h-1v9h1v-1h1v-1h-1v-1h1V9h-1V8h1V7h1v1h-1v1h1v1h-1v1h1v1h-1v1h2V4
		H13z"/>
</g>
<g id="iconFg">
	<path style="fill:#252526;" d="M11,3v1H7.5L8,3H11z M13,3v1h1V3H13z M13,7h-1v1h1V7z M13,9h-1v1h1V9z M11,10v1h1v-1H11z M13,11h-1
		v1h1V11z M11,12v1h1v-1H11z M11,8v1h1V8H11z M13,6V4h-2v2H13z"/>
</g>
</svg>
