<?xml version="1.0" encoding="iso-8859-1"?>
<!-- Generator: Adobe Illustrator 20.1.0, SVG Export Plug-In . SVG Version: 6.00 Build 0)  -->
<svg version="1.1" id="Icon" xmlns="http://www.w3.org/2000/svg" xmlns:xlink="http://www.w3.org/1999/xlink" x="0px" y="0px"
	 viewBox="0 0 500 500" style="enable-background:new 0 0 500 500;" xml:space="preserve">
<circle id="Circle" style="fill-rule:evenodd;clip-rule:evenodd;fill:#7E2B99;" cx="250" cy="250" r="250"/>
<path id="Folder" style="fill:#DCB67A;" d="M235.795,278.835l32.068-15.226l28.861,23.297L353,231.721l10.781,4.487v-75.853
	c0,0,1.801-19.356-19.604-19.356c-21.405,0-117.181,0-117.181,0l-23.663,39.278h-75.644c0,0-19.695-1.769-19.695,19.572
	c0,16.997,0,98.829,0,137.388c0,19.946,19.964,19.793,19.964,19.793s53.708,0,107.837,0V278.835z M236.766,160.638h107.339v19.639
	H226.563L236.766,160.638z"/>
<path id="Logo" style="fill:#FFFFFF;" d="M354.955,246.009l-57.585,54.015l-30.412-24.551l-20.682,9.819v58.927l21.087,9.82
	l30.007-24.554l57.174,54.017l27.983-9.82V255.831L354.955,246.009z M265.739,334.4v-39.286l19.464,19.641L265.739,334.4z
	 M317.647,314.755l38.928-29.464v58.927L317.647,314.755z"/>
</svg>
