<?xml version="1.0" encoding="iso-8859-1"?>
<!-- Generator: Adobe Illustrator 19.2.1, SVG Export Plug-In . SVG Version: 6.00 Build 0)  -->
<svg version="1.1" xmlns="http://www.w3.org/2000/svg" xmlns:xlink="http://www.w3.org/1999/xlink" x="0px" y="0px" width="500px"
	 height="500px" viewBox="0 0 500 500" style="enable-background:new 0 0 500 500;" xml:space="preserve">
<g id="Background_1_" style="enable-background:new    ;">
	<g id="Background">
		<g>
			<circle style="fill-rule:evenodd;clip-rule:evenodd;fill:#7E2B99;" cx="250" cy="250" r="250"/>
		</g>
	</g>
</g>
<g id="Folder_1_" style="enable-background:new    ;">
	<g id="Folder">
		<g>
			<path style="fill-rule:evenodd;clip-rule:evenodd;fill:#DCB67A;" d="M363.781,337.544V160.355c0,0,1.801-19.356-19.604-19.356
				c-21.405,0-117.181,0-117.181,0l-23.663,39.278h-75.644c0,0-19.695-1.769-19.695,19.572v137.388
				c0,19.946,19.964,19.793,19.964,19.793s194.612,0,216.286,0S363.781,337.544,363.781,337.544z M344.105,180.277H226.563
				l10.203-19.639h107.339V180.277z"/>
		</g>
	</g>
</g>
<g id="VS_Icon_1_">
	<g id="Color_Fill_9">
		<g>
			<polygon style="fill-rule:evenodd;clip-rule:evenodd;fill:#7E2B99;" points="353,231.721 296.724,286.906 267.863,263.609 
				235.795,278.835 235.795,400 393.008,400 393.008,248.371 			"/>
		</g>
	</g>
	<g id="Shape_3_copy">
		<g>
			<path style="fill-rule:evenodd;clip-rule:evenodd;fill:#FFFFFF;" d="M354.955,246.009l-57.585,54.015l-30.412-24.551
				l-20.682,9.819v58.927l21.087,9.82l30.007-24.554l57.174,54.017l27.983-9.82V255.831L354.955,246.009z M265.739,334.4v-39.286
				l19.464,19.641L265.739,334.4z M356.574,344.219l-38.928-29.463l38.928-29.464V344.219z"/>
		</g>
	</g>
</g>
</svg>
