<svg xmlns="http://www.w3.org/2000/svg" viewBox="0 0 16 16"><style>.icon-canvas-transparent{opacity:0;fill:#f6f6f6}.icon-vs-out{fill:#f6f6f6}.icon-vs-bg{fill:#424242}.icon-vs-fg{fill:#f0eff1}</style><path class="icon-canvas-transparent" d="M16 16H0V0h16v16z" id="canvas"/><path class="icon-vs-out" d="M0 16V4h2V2h2V0h12v12h-2v2h-2v2H0z" id="outline"/><path class="icon-vs-bg" d="M5 1v2H3v2H1v10h10v-2h2v-2h2V1H5zm5 13H2V6h8v8zm2-2h-1V5H4V4h8v8zm2-2h-1V3H6V2h8v8z" id="iconBg"/><path class="icon-vs-fg" d="M10 14H2V6h8v8zm2-2h-1V5H4V4h8v8zm2-2h-1V3H6V2h8v8z" id="iconFg"/></svg>