<svg xmlns="http://www.w3.org/2000/svg" viewBox="0 0 16 16"><style>.icon-canvas-transparent{opacity:0;fill:#f6f6f6}.icon-vs-out{fill:#f6f6f6}.icon-vs-fg{fill:#f0eff1}.icon-vs-bg{fill:#424242}</style><path class="icon-canvas-transparent" d="M16 16H0V0h16v16z" id="canvas"/><g id="outline"><path class="icon-vs-out" d="M11.621 0H3v10H.022v5.893H3V16h13V4.379z"/><path class="icon-vs-bg" d="M11.207 1H4v9h1V2h5v4h4v4h.036v5H15V4.793L11.207 1zM11 5V2.207L13.793 5H11zm-7.417 5.964H2.506l-1.469 4h.984l.284-1h1.436l.287 1h.989l-1.434-4zm-1.068 2.385l.517-1.619c.002.014.49 1.619.49 1.619H2.515zm5.725.475c0 .084-.011.172-.029.262a1.026 1.026 0 0 1-.282.499 1.11 1.11 0 0 1-.272.196c-.11.056-.237.102-.382.134-.148.032-.313.05-.503.05-.083 0-.175-.006-.272-.021a3.15 3.15 0 0 1-.286-.052 2.109 2.109 0 0 1-.248-.073.691.691 0 0 1-.169-.085v-.856c.057.053.124.105.204.154a1.953 1.953 0 0 0 .543.22c.098.023.188.032.273.032a.727.727 0 0 0 .242-.034.417.417 0 0 0 .152-.092.277.277 0 0 0 .079-.125.43.43 0 0 0 .023-.139.39.39 0 0 0-.043-.181.583.583 0 0 0-.127-.153 1.54 1.54 0 0 0-.211-.147 5.423 5.423 0 0 0-.294-.154 2.425 2.425 0 0 1-.41-.245 1.382 1.382 0 0 1-.268-.267.92.92 0 0 1-.146-.292 1.168 1.168 0 0 1 .054-.789 1.04 1.04 0 0 1 .279-.36c.12-.1.265-.176.435-.231.17-.054.36-.081.566-.081a3.611 3.611 0 0 1 .533.043 2.028 2.028 0 0 1 .378.094v.838a.972.972 0 0 0-.181-.115 1.798 1.798 0 0 0-.466-.157 1.291 1.291 0 0 0-.243-.022.792.792 0 0 0-.188.022.502.502 0 0 0-.158.069.336.336 0 0 0-.153.29c0 .066.012.126.037.18a.474.474 0 0 0 .107.148.92.92 0 0 0 .183.132c.073.042.157.086.254.133.177.085.326.171.452.26.123.087.226.179.304.274.08.098.139.198.177.304.037.104.056.217.056.337zm3.797-2.86h-.149l-.674 2.382c-.01.038-.134.618-.143.618h-.014c-.006 0-.013-.113-.023-.162a43.6 43.6 0 0 0-.102-.454l-.71-2.384H9.036v4h.878l-.054-2.658.816 2.658h.676l.909-2.575-.028 2.575h.803v-4h-.999z"/></g><g id="iconFg"><path class="icon-vs-fg" d="M11 2.207V5h2.793z"/><path class="icon-vs-fg" d="M14 10V6h-4V2H5v8z"/><path class="icon-vs-fg" d="M11 2.207V5h2.793z"/><path class="icon-vs-fg" d="M14 10V6h-4V2H5v8z"/></g></svg>