<svg viewBox="0 0 16 16" xmlns="http://www.w3.org/2000/svg">
  <path d="M2 0v1.586L1.414 1H0v3.414L1.441 5.85C1.174 6.189 1 6.594 1 7v7c0 1 1 2 2 2h6c1 0 2-1 2-2v-1h2v-1c1.108 0 2-.892 2-2h1V3h-1c0-1.108-.892-2-2-2V0H2z" fill="#F6F6F6"/>
  <path d="M3 1v3L1 2v2l3 3 3-3V2L5 4V1H3zm6 0v1H8v1h5v7h-2v2h1v-1h1c.554 0 1-.446 1-1V9h1V8h-1V7h1V6h-1V5h1V4h-1V3c0-.554-.446-1-1-1h-1V1h-1v1h-1V1H9zM6.408 6L5.404 7H7v2h2v5H3V7.404l-.896-.894A1.096 1.096 0 002 7v7c0 1 .965 1 .965 1h6c1 0 1.035-1 1.035-1V9L7 6h-.592zM4 8v1h2V8H4zm0 2v1h4v-1H4zm0 2v1h4v-1H4z" fill="#424242"/>
</svg>