<?xml version="1.0" encoding="iso-8859-1"?>
<!-- Generator: Adobe Illustrator 20.1.0, SVG Export Plug-In . SVG Version: 6.00 Build 0)  -->
<svg version="1.1" xmlns="http://www.w3.org/2000/svg" xmlns:xlink="http://www.w3.org/1999/xlink" x="0px" y="0px"
	 viewBox="0 0 16 16" style="enable-background:new 0 0 16 16;" xml:space="preserve">
<g id="outline">
	<rect style="opacity:0;fill:#F6F6F6;" width="16" height="16"/>
	<polygon style="fill:#F6F6F6;" points="16,7 14,7 14,4 10,4 10,7 10,7 10,4 6.272,4 5.044,5.949 4,4 0,4 0,13 4,13 4,10.688 
		5.02,12.069 6,10.703 6,13 10,13 10,10.657 12.113,13.243 16,8.351 	"/>
</g>
<g id="icon_x5F_bg">
	<polygon style="fill:#424242;" points="1.013,12 1,5 3,5 5,6.991 7,5 9,5 9,12 7,12 7,7.651 5.009,10 3,7.703 3,12 	"/>
	<polygon style="fill:#424242;" points="11,5 13,5 13,8 15.002,8 12.102,11.641 9.134,8 11,8 	"/>
</g>
</svg>
