<?xml version="1.0" encoding="iso-8859-1"?>
<!-- Generator: Adobe Illustrator 20.1.0, SVG Export Plug-In . SVG Version: 6.00 Build 0)  -->
<svg version="1.1" xmlns="http://www.w3.org/2000/svg" xmlns:xlink="http://www.w3.org/1999/xlink" x="0px" y="0px"
	 viewBox="0 0 16 16" style="enable-background:new 0 0 16 16;" xml:space="preserve">
<g id="outline">
	<rect style="opacity:0;fill-rule:evenodd;clip-rule:evenodd;fill:#F6F6F6;" width="16" height="16"/>
	<polygon style="fill-rule:evenodd;clip-rule:evenodd;fill:#F6F6F6;" points="13,16 13,0.211 2,1.876 2,14.497 11.923,16 	"/>
</g>
<g id="color_x5F_decoration">
	<path style="fill-rule:evenodd;clip-rule:evenodd;fill:#217346;" d="M3,2.736v10.9L12,15V1.374L3,2.736z M8.181,11.88L7.112,9.494
		C7.101,9.474,7.091,9.448,7.083,9.418c-0.01-0.03-0.02-0.064-0.027-0.105C7.042,9.273,7.03,9.221,7.022,9.172
		C7.011,9.123,7.001,9,6.987,9H6.972C6.964,9,6.96,9.066,6.948,9.1C6.94,9.133,6.931,9.176,6.919,9.215
		C6.907,9.256,6.897,9.303,6.882,9.352C6.868,9.399,6.851,9.454,6.829,9.507l-1.025,2.239l-1.525-0.088l1.822-3.409L4.429,4.833
		l1.566-0.089c0,0,0.999,2.733,1.01,2.691C7.017,7.39,7.104,7.108,7.12,7.057c0.02-0.054,0.033-0.056,0.055-0.117
		c0.02-0.062,0.041-0.101,0.064-0.169l0.986-2.17l1.627-0.088L7.921,8.216l1.986,3.763L8.181,11.88z"/>
</g>
<g id="not_x5F_fg">
	<path style="fill:#FFFFFF;" d="M9.807,4.546L8.18,4.641L7.193,6.824C7.169,6.892,7.148,6.958,7.128,7.019
		c-0.021,0.062-0.035,0.117-0.055,0.17C7.058,7.241,7.044,7.289,7.033,7.333C7.021,7.375,7.009,7.416,7.001,7.45H6.984
		c-0.01-0.058-0.025-0.111-0.041-0.166C6.929,7.232,6.917,7.18,6.9,7.13C6.888,7.081,6.871,7.033,6.855,6.986
		c-0.018-0.046-0.033-0.09-0.053-0.133L5.949,4.771L4.382,4.86l1.672,3.416l-1.822,3.409l1.525,0.088l1.025-2.238
		c0.021-0.053,0.039-0.107,0.053-0.154c0.016-0.049,0.025-0.094,0.037-0.135c0.012-0.039,0.021-0.078,0.029-0.113
		C6.914,9.1,6.917,9.068,6.925,9.041h0.016c0.014,0.061,0.023,0.117,0.035,0.166c0.008,0.049,0.02,0.094,0.033,0.133
		c0.008,0.041,0.018,0.074,0.027,0.105C7.044,9.475,7.054,9.5,7.066,9.521l1.069,2.385l1.727,0.102L7.875,8.246L9.807,4.546"/>
</g>
</svg>
