<?xml version="1.0" encoding="iso-8859-1"?>
<!-- Generator: Adobe Illustrator 20.1.0, SVG Export Plug-In . SVG Version: 6.00 Build 0)  -->
<svg version="1.1" xmlns="http://www.w3.org/2000/svg" xmlns:xlink="http://www.w3.org/1999/xlink" x="0px" y="0px"
	 viewBox="0 0 16 16" style="enable-background:new 0 0 16 16;" xml:space="preserve">
<g id="canvas">
	<path style="opacity:0;fill:#F6F6F6;" d="M16,16H0V0h16V16z"/>
</g>
<g id="outline">
	<path style="fill:#F6F6F6;" d="M16,3.556V12c0,0.97-0.701,2-2,2H8v2H6.931L0,15.019V6.482l4-0.567V2c0-1.299,1.03-2,2-2h6.061
		L16,3.556z"/>
</g>
<g id="iconBg">
	<path style="fill:#424242;" d="M11.641,1H5.964C5.964,1,5,1,5,2c0,0.365,0,1.933,0,3.773l1-0.142V2h5v3h3v7H8v1
		c2.15,0,5.316,0,5.965,0c1,0,1.035-1,1.035-1V4L11.641,1z"/>
</g>
<g id="iconFg">
	<polygon style="fill:#F0EFF1;" points="11,5 11,2 6,2 6,5.632 8,5.348 8,12 14,12 14,5 	"/>
</g>
<g id="colorImportance">
	<path style="fill:#2B579A;" d="M1,7.35v6.8L7,15V6.5L1,7.35z"/>
</g>
<g id="notificationFg">
	<path style="fill:#FFFFFF;" d="M6.5,9l-0.922,4H4.541c0,0-0.521-2.671-0.525-2.856H3.997C3.982,10.348,3.428,13,3.428,13H2.403
		L1.5,9h1.006l0.506,2.5C3.023,11.318,3.619,9,3.619,9h0.941c0,0,0.586,2.651,0.609,2.5L5.584,9H6.5z"/>
</g>
</svg>
