<?xml version="1.0" encoding="iso-8859-1"?>
<!-- Generator: Adobe Illustrator 21.1.0, SVG Export Plug-In . SVG Version: 6.00 Build 0)  -->
<svg version="1.1" xmlns="http://www.w3.org/2000/svg" xmlns:xlink="http://www.w3.org/1999/xlink" x="0px" y="0px"
	 viewBox="0 0 16 16" style="enable-background:new 0 0 16 16;" xml:space="preserve">
<g id="icon_x5F_bg">
	<g>
		<path style="fill:#424242;" d="M11.639,1H5.964C5.964,1,5,1,5,2c0,0.508,0,3.337,0,6h1V2h5v3h3v3v1.001v3v0.994
			c0.961-0.025,1-0.994,1-0.994V4L11.639,1z"/>
	</g>
</g>
<g id="icon_x5F_fg">
	<g>
		<path style="fill:#F0EFF1;" d="M6,2v6h8V5h-3V2"/>
	</g>
	<path style="fill:#BD1E2D;" d="M1,9v6h12V9H1z M2,10h1.085c0.552,0,0.949,0.098,1.191,0.295c0.242,0.196,0.363,0.515,0.363,0.956
		s-0.121,0.76-0.363,0.956c-0.242,0.196-0.639,0.295-1.191,0.295H2.79V14H2V10z M2.79,10.664v1.173h0.324
		c0.259,0,0.441-0.044,0.545-0.131s0.157-0.239,0.157-0.455s-0.052-0.368-0.157-0.455s-0.286-0.131-0.545-0.131H2.79z M5.69,10
		h0.847c0.654,0,1.124,0.155,1.412,0.468c0.288,0.311,0.431,0.821,0.431,1.528c0,0.709-0.144,1.221-0.431,1.533
		C7.661,13.844,7.19,14,6.536,14H5.69V10z M6.48,10.713v2.575h0.214c0.311,0,0.532-0.097,0.664-0.294
		c0.132-0.195,0.198-0.528,0.198-0.998c0-0.466-0.066-0.797-0.198-0.991c-0.132-0.195-0.354-0.292-0.664-0.292H6.48z M12,10.697
		h-1.701v0.863h1.549v0.697h-1.549V14h-0.79v-4H12V10.697z"/>
</g>
</svg>
