<?xml version="1.0" encoding="iso-8859-1"?>
<!-- Generator: Adobe Illustrator 20.1.0, SVG Export Plug-In . SVG Version: 6.00 Build 0)  -->
<svg version="1.1" xmlns="http://www.w3.org/2000/svg" xmlns:xlink="http://www.w3.org/1999/xlink" x="0px" y="0px"
	 viewBox="0 0 16 16" style="enable-background:new 0 0 16 16;" xml:space="preserve">
<g id="outline">
	<rect style="opacity:0;fill:#F6F6F6;" width="16" height="16"/>
	<path style="fill:#F6F6F6;" d="M13.934,7.295l0.261,0.159V3.558l-0.67-0.234c-0.607-0.211-1.322-0.314-2.188-0.314
		c-1.056,0-1.936,0.248-2.614,0.737C8.663,3.789,8.62,3.841,8.565,3.887V2.998H1v3.284h1.986V12h3.583V6.282H7.56
		C7.593,6.616,7.69,6.981,7.908,7.35L7.577,7.1v4.145l0.571,0.271c0.662,0.315,1.472,0.474,2.409,0.474
		c1.31,0,2.29-0.29,2.996-0.888c0.64-0.541,0.978-1.277,0.978-2.127C14.53,8.346,14.326,7.773,13.934,7.295z"/>
</g>
<g id="color_x5F_importance">
	<g>
		<path style="fill:#E04C06;" d="M7.565,5.282H5.569V11H3.986V5.282H2V3.998h5.565V5.282z"/>
		<path style="fill:#E04C06;" d="M13.53,8.975c0,0.558-0.209,1.013-0.624,1.365c-0.513,0.434-1.295,0.65-2.35,0.65
			c-0.794,0-1.453-0.127-1.979-0.377V9.106c0.607,0.458,1.282,0.688,2.023,0.688c0.384,0,0.674-0.074,0.87-0.222
			c0.164-0.125,0.245-0.281,0.245-0.466c0-0.216-0.122-0.414-0.362-0.593c-0.194-0.138-0.546-0.312-1.059-0.522
			c-1.167-0.486-1.75-1.145-1.75-1.977c0-0.605,0.254-1.092,0.761-1.457c0.508-0.366,1.184-0.548,2.03-0.548
			c0.744,0,1.363,0.086,1.858,0.259v1.408c-0.517-0.314-1.102-0.471-1.762-0.471c-0.327,0-0.589,0.063-0.782,0.188
			c-0.193,0.125-0.291,0.291-0.291,0.494c0,0.217,0.085,0.397,0.255,0.541c0.161,0.135,0.472,0.297,0.931,0.49
			c0.68,0.289,1.164,0.569,1.457,0.841C13.356,8.093,13.53,8.499,13.53,8.975z"/>
	</g>
</g>
</svg>
