<svg xmlns="http://www.w3.org/2000/svg" width="16" height="16"><style type="text/css">.icon-canvas-transparent{opacity:0;fill:#F6F6F6;} .icon-vs-out{fill:#F6F6F6;} .icon-vs-fg{fill:#F0EFF1;} .icon-folder{fill:#DCB67A;} .icon-vs-bg{fill:#424242;}</style><path class="icon-canvas-transparent" d="M16 16h-16v-16h16v16z" id="canvas"/><path class="icon-vs-out" d="M16 2.5v10c0 .827-.673 1.5-1.5 1.5h-4.757c-1.009 1.221-2.535 2-4.243 2-3.038 0-5.5-2.462-5.5-5.5 0-1.178.373-2.267 1.004-3.161v-2.839c0-.827.673-1.5 1.5-1.5h2.886l1-2h8.11c.827 0 1.5.673 1.5 1.5z" id="outline"/><path class="icon-folder" d="M14.5 2h-7.492l-1 2h-3.504c-.277 0-.5.224-.5.5v1.754c.95-.783 2.168-1.254 3.496-1.254 3.038 0 5.5 2.462 5.5 5.5 0 .901-.221 1.749-.605 2.5h4.105c.275 0 .5-.224.5-.5v-10c0-.276-.225-.5-.5-.5zm-.496 2h-6.496l.5-1h5.9959999999999996v1z" id="iconBg"/><path class="icon-vs-fg" d="M14 3v1h-6.5l.5-1h6z" id="iconFg"/><g id="colorImportance"><path class="icon-vs-bg" d="M10 10.5l-.008-.152c-.081-2.414-2.057-4.348-4.492-4.348-2.485 0-4.5 2.015-4.5 4.5l.02.389.045.341.002.013c.313 1.891 1.803 3.38 3.696 3.691l.013.002.337.044.387.02.439-.021c2.279-.223 4.061-2.142 4.061-4.479zm-2.592-1.067c.467-.073.961-.198 1.489-.388.191.445.299.937.299 1.455l-.012.24c-.667.291-1.268.465-1.831.555.07-.393.108-.768.104-1.119-.002-.259-.023-.503-.049-.743zm1.145-1.017c-.442.153-.857.258-1.255.319-.138-.661-.354-1.233-.589-1.725.757.262 1.4.759 1.844 1.406zm-3.053 5.78l-.324-.018c-.322-.717-.57-1.43-.725-2.124.336.033.686.057 1.045.059l.259.002c.224 0 .45-.006.678-.018-.196.638-.487 1.335-.87 2.095l-.063.004zm.004-2.782c-.41-.006-.803-.035-1.182-.079-.055-.392-.082-.778-.078-1.153.002-.247.02-.507.043-.737.387.043.789.055 1.209.055h.259c.314 0 .632.012.956-.012.025.219.044.451.046.683.004.372-.044.778-.135 1.208-.376.025-.744.037-1.118.035zm-.004-4.61l.313.016c.301.521.607 1.186.786 1.996-.368.026-.729.03-1.095.026-.386-.004-.76-.03-1.119-.071.15-.782.398-1.424.645-1.934.154-.02.31-.033.47-.033zm-1.34.254c-.186.465-.355 1-.471 1.613-.443-.079-.849-.176-1.222-.281.417-.598 1.006-1.065 1.693-1.332zm-2.356 3.442c0-.525.112-1.025.31-1.481.44.131.931.254 1.478.346-.027.262-.047.528-.049.811-.004.342.021.694.063 1.051-.691-.126-1.288-.299-1.788-.467l-.014-.26zm.151 1.044c.513.157 1.102.31 1.765.415.132.673.349 1.359.632 2.053-1.153-.377-2.052-1.301-2.397-2.468zm4.436 2.54c.35-.737.62-1.424.795-2.054.574-.073 1.186-.22 1.856-.472-.373 1.245-1.384 2.213-2.651 2.526z"/></g></svg>