<svg xmlns="http://www.w3.org/2000/svg" width="16" height="16"><style type="text/css">.icon-canvas-transparent{opacity:0;fill:#F6F6F6;} .icon-vs-out{fill:#F6F6F6;} .icon-vs-fg{fill:#F0EFF1;} .icon-folder{fill:#DCB67A;} .icon-vs-bg{fill:#424242;}</style><path class="icon-canvas-transparent" d="M16 16h-16v-16h16v16z" id="canvas"/><path class="icon-vs-out" d="M16 2.969v9c0 .617-.227 1.102-.57 1.435-.57.543-1.43.565-1.43.565h-4.234c-1.008 1.239-2.544 2.031-4.266 2.031-3.038 0-5.5-2.462-5.5-5.5 0-.586.093-1.149.263-1.678l-.263-.657v-1.196h1v-2c0-1.299 1.03-2 2-2h2.884l1-2h7.116c.995 0 2 .697 2 2z" id="outline"/><g id="iconBg"><path class="icon-folder" d="M10.395 8c.384.751.605 1.599.605 2.5s-.221 1.749-.605 2.5h3.605l-3-5h-.605z"/><path class="icon-folder" d="M14 2h-6.5l-1 2h-3.5c.236 0-1 0-1 1v1.257c.306-.253.643-.469 1-.652v-.605h4l1-2h6v9.984s1 .016 1-.984v-9c0-1-1-1-1-1z"/></g><path class="icon-vs-fg" d="M8 2.969l-1 2h-4v.636c.751-.384 1.599-.605 2.5-.605 2.124 0 3.963 1.206 4.88 2.969h.62l3 5v-10h-6z" id="iconFg"/><g id="colorImportance"><path class="icon-vs-bg" d="M10 10.5l-.008-.152c-.081-2.414-2.057-4.348-4.492-4.348-2.485 0-4.5 2.015-4.5 4.5l.02.389.045.341.002.013c.313 1.891 1.803 3.38 3.696 3.691l.013.002.337.044.387.02.439-.021c2.279-.223 4.061-2.142 4.061-4.479zm-2.592-1.067c.467-.073.961-.198 1.489-.388.191.445.299.937.299 1.455l-.012.24c-.667.291-1.268.465-1.831.555.07-.393.108-.768.104-1.119-.002-.259-.023-.503-.049-.743zm1.145-1.017c-.442.153-.857.258-1.255.319-.138-.661-.354-1.233-.589-1.725.757.262 1.4.759 1.844 1.406zm-3.053 5.78l-.324-.018c-.322-.717-.57-1.43-.725-2.124.336.033.686.057 1.045.059l.259.002c.224 0 .45-.006.678-.018-.196.638-.487 1.335-.87 2.095l-.063.004zm.004-2.782c-.41-.006-.803-.035-1.182-.079-.055-.392-.082-.778-.078-1.153.002-.247.02-.507.043-.737.387.043.789.055 1.209.055h.259c.314 0 .632.012.956-.012.025.219.044.451.046.683.004.372-.044.778-.135 1.208-.376.025-.744.037-1.118.035zm-.004-4.61l.313.016c.301.521.607 1.186.786 1.996-.368.026-.729.03-1.095.026-.386-.004-.76-.03-1.119-.071.15-.782.398-1.424.645-1.934.154-.02.31-.033.47-.033zm-1.34.254c-.186.465-.355 1-.471 1.613-.443-.079-.849-.176-1.222-.281.417-.598 1.006-1.065 1.693-1.332zm-2.356 3.442c0-.525.112-1.025.31-1.481.44.131.931.254 1.478.346-.027.262-.047.528-.049.811-.004.342.021.694.063 1.051-.691-.126-1.288-.299-1.788-.467l-.014-.26zm.151 1.044c.513.157 1.102.31 1.765.415.132.673.349 1.359.632 2.053-1.153-.377-2.052-1.301-2.397-2.468zm4.436 2.54c.35-.737.62-1.424.795-2.054.574-.073 1.186-.22 1.856-.472-.373 1.245-1.384 2.213-2.651 2.526z"/></g></svg>